<svg id="Ebene_1" data-name="Ebene 1" xmlns="http://www.w3.org/2000/svg" version="1.1" viewBox="0 0 100 100">
  <defs>
    <style>
      .cls-1{font-family:BarlowSemiCondensed-BoldItalic,&apos;Barlow Semi Condensed&apos;;font-size:26.8px;font-weight:700;letter-spacing:0}.cls-1,.cls-2,.cls-3{fill:#000}.cls-1,.cls-3{font-style:italic}.cls-1,.cls-3,.cls-4{isolation:isolate}.cls-2{stroke-width:0}.cls-5{opacity:.2}.cls-6{opacity:.4}.cls-3{font-family:BarlowSemiCondensed-BlackItalic,&apos;Barlow Semi Condensed&apos;;font-size:66.9px;font-weight:800;letter-spacing:0}
    </style>
  </defs>
  <g class="cls-4">
    <text class="cls-3" transform="translate(27.4 213.9)"><tspan x="0" y="0">BF</tspan></text>
  </g>
  <g class="cls-4">
    <text class="cls-1" transform="translate(22.5 238.4)"><tspan x="0" y="0">2035</tspan></text>
  </g>
  <g class="cls-6">
    <g class="cls-4">
      <text class="cls-3" transform="translate(17.4 213.9)"><tspan x="0" y="0">BF</tspan></text>
    </g>
    <g class="cls-4">
      <text class="cls-1" transform="translate(12.5 238.4)"><tspan x="0" y="0">2035</tspan></text>
    </g>
  </g>
  <g class="cls-5">
    <g class="cls-4">
      <text class="cls-3" transform="translate(10.4 213.9)"><tspan x="0" y="0">BF</tspan></text>
    </g>
    <g class="cls-4">
      <text class="cls-1" transform="translate(5.5 238.4)"><tspan x="0" y="0">2035</tspan></text>
    </g>
  </g>
  <g class="cls-4">
    <g class="cls-4">
      <path class="cls-2" d="m28.5 60 5.6-44.8c0-.6.5-1 1.1-1h14.3c9.8 0 15.4 3.7 14.2 13.2-.5 4.3-2.3 7.3-5.4 9.2-.3.1-.3.3 0 .4 3 2.3 4.3 5.8 3.8 10.6C61 57 53.5 61 45 61H29.4c-.6 0-.9-.4-.9-1Zm13.8-9.7h3.5c2.3 0 3.9-1.4 4.2-4.1.3-2.6-.9-4.1-3.1-4.1h-3.6c-.2 0-.3.1-.4.3L42 50c0 .2.1.3.3.3Zm2.1-17.9h2.9c2.5 0 4-1.3 4.3-3.7.3-2.4-.9-3.7-3.3-3.7h-2.9c-.2 0-.3.1-.4.3l-.8 6.8c0 .2 0 .3.3.3ZM62.9 60l5.6-44.8c0-.6.5-1 1.1-1H97c.6 0 .9.4.9 1L96.8 24c0 .6-.5 1-1.1 1H79.8c-.2 0-.3.1-.4.3l-.7 6.4c0 .2 0 .3.3.3h9.3c.5 0 .9.4.8 1L88 41.7c0 .6-.5 1-1.1 1h-9.3c-.2 0-.3.1-.3.3l-2.1 16.9c0 .6-.5 1-1.1 1H63.9c-.6 0-.9-.4-.9-1Z"/>
    </g>
  </g>
  <g class="cls-4">
    <g class="cls-4">
      <path class="cls-2" d="M23.2 82.2c2.2-2.3 4.3-4.5 6-6.5 1.3-1.5 2.3-2.9 2.4-3.9.2-1.3-.5-2-1.6-2s-1.9.8-2.1 2v.9c-.1.2-.3.3-.5.3h-3.1c-.2 0-.3-.1-.3-.3l.2-1.3c.3-2.9 3.1-4.8 6.2-4.8s5.2 2.2 4.8 5.3a10 10 0 0 1-2.6 5.1 60.2 60.2 0 0 1-5 5.2v.2h6.2c.2 0 .3.1.3.3l-.3 2.6c0 .2-.2.3-.3.3H22.8c-.2 0-.3-.1-.3-.3l.3-2.6c0-.2 0-.3.2-.4ZM36 80l.9-7.8c.4-3.5 2.9-5.8 6.3-5.8s5.4 2.3 5 5.8l-.9 7.8c-.5 3.5-2.9 5.8-6.4 5.8S35.5 83.5 36 80Zm5.3 2.6c1.2 0 2.1-.9 2.3-2.3l1-8.2c.2-1.4-.5-2.3-1.7-2.3s-2.1.9-2.2 2.3l-1 8.2c-.2 1.4.5 2.3 1.7 2.3ZM48.5 81.6v-1.8c0-.2.2-.3.3-.3h3.1c.2 0 .3.1.3.3V81c0 .9.6 1.5 1.5 1.5s1.5-.5 1.8-1.4l.4-1.9a6 6 0 0 0 0-1.9c-.2-.9-.7-1.4-1.4-1.4s-.7.1-1.1.4c-.2.1-.3 0-.4 0l-1.3-1.7v-.5l4.3-3.9V70h-5.6c-.2 0-.3-.1-.3-.3l.3-2.6c0-.2.2-.3.3-.3h9.9c.2 0 .3.1.3.3l-.3 2.7-.2.4-3.7 3.7v.2c1.3.2 2.2 1.1 2.6 2.5a9.2 9.2 0 0 1-.8 6.3c-1 1.9-2.8 3-5.2 3s-4.7-1.6-4.8-4.1ZM61.2 81.6v-1.2c0-.4.1-.3.3-.3h3.1c.2 0 .3.1.3.3v.5c.1.9.6 1.6 1.5 1.6s1.6-.8 1.9-1.8l.3-1.4v-1.5c-.1-.9-.6-1.5-1.4-1.5s-1.6.5-1.9 1.3c0 .2-.2.3-.4.3h-3.1c-.2 0-.3-.1-.3-.3l1.3-10.4c0-.2.2-.3.3-.3h9.6c.2 0 .3.1.3.3l-.3 2.6c0 .2-.2.3-.3.3h-6.1l-.1.1-.5 3.8c0 .1 0 .2.1 0 .8-.6 1.7-1 2.6-1 2.6 0 3.7 1.8 4 3.9v2.4c0 .7-.2 1.3-.4 2-.8 2.5-2.6 4.4-5.9 4.4s-4.5-1.5-4.7-4.1Z"/>
    </g>
  </g>
  <g class="cls-6">
    <g class="cls-4">
      <g class="cls-4">
        <path class="cls-2" d="m18.5 60 5.6-44.8c0-.6.5-1 1.1-1h14.3c9.8 0 15.4 3.7 14.2 13.2-.5 4.3-2.3 7.3-5.4 9.2-.3.1-.3.3 0 .4 3 2.3 4.3 5.8 3.8 10.6C51 57 43.5 61 35 61H19.4c-.6 0-.9-.4-.9-1Zm13.7-9.7h3.5c2.3 0 3.9-1.4 4.2-4.1.3-2.6-.9-4.1-3.1-4.1h-3.6c-.2 0-.3.1-.4.3l-.9 7.6c0 .2.1.3.3.3Zm2.2-17.9h2.9c2.5 0 4-1.3 4.3-3.7.3-2.4-.9-3.7-3.3-3.7h-2.9c-.2 0-.3.1-.4.3l-.8 6.8c0 .2 0 .3.3.3ZM52.9 60l5.6-44.8c0-.6.5-1 1.1-1H87c.6 0 .9.4.9 1L86.8 24c0 .6-.5 1-1.1 1H69.8c-.2 0-.3.1-.4.3l-.7 6.4c0 .2 0 .3.3.3h9.3c.5 0 .9.4.8 1L78 41.7c0 .6-.5 1-1.1 1h-9.3c-.2 0-.3.1-.3.3l-2.1 16.9c0 .6-.5 1-1.1 1H53.9c-.6 0-.9-.4-.9-1Z"/>
      </g>
    </g>
    <g class="cls-4">
      <g class="cls-4">
        <path class="cls-2" d="M13.2 82.2c2.2-2.3 4.3-4.5 6-6.5 1.3-1.5 2.3-2.9 2.4-3.9.2-1.3-.5-2-1.6-2s-1.9.8-2.1 2v.9c-.1.2-.3.3-.5.3h-3.1c-.2 0-.3-.1-.3-.3l.2-1.3c.3-2.9 3.1-4.8 6.2-4.8s5.2 2.2 4.8 5.3a10 10 0 0 1-2.6 5.1 60.2 60.2 0 0 1-5 5.2v.2h6.2c.2 0 .3.1.3.3l-.3 2.6c0 .2-.2.3-.3.3H12.8c-.2 0-.3-.1-.3-.3l.3-2.6c0-.2 0-.3.2-.4ZM26 80l.9-7.8c.4-3.5 2.9-5.8 6.3-5.8s5.4 2.3 5 5.8l-.9 7.8c-.5 3.5-2.9 5.8-6.4 5.8S25.5 83.5 26 80Zm5.3 2.6c1.2 0 2.1-.9 2.3-2.3l1-8.2c.2-1.4-.5-2.3-1.7-2.3s-2.1.9-2.2 2.3l-1 8.2c-.2 1.4.5 2.3 1.7 2.3ZM38.5 81.6v-1.8c0-.2.2-.3.3-.3h3.1c.2 0 .3.1.3.3V81c0 .9.6 1.5 1.5 1.5s1.5-.5 1.8-1.4l.4-1.9a6 6 0 0 0 0-1.9c-.2-.9-.7-1.4-1.4-1.4s-.7.1-1.1.4c-.2.1-.3 0-.4 0l-1.3-1.7v-.5l4.3-3.9V70h-5.6c-.2 0-.3-.1-.3-.3l.3-2.6c0-.2.2-.3.3-.3h9.9c.2 0 .3.1.3.3l-.3 2.7-.2.4-3.7 3.7v.2a3 3 0 0 1 2.6 2.5 9.2 9.2 0 0 1-.8 6.3c-1 1.9-2.8 3-5.2 3s-4.7-1.6-4.8-4.1ZM51.2 81.6v-1.2c0-.4.1-.3.3-.3h3.1c.2 0 .3.1.3.3v.5c.1.9.6 1.6 1.5 1.6s1.6-.8 1.9-1.8l.3-1.4v-1.5c-.1-.9-.6-1.5-1.4-1.5s-1.6.5-1.9 1.3c0 .2-.2.3-.4.3h-3.1c-.2 0-.3-.1-.3-.3l1.3-10.4c0-.2.2-.3.3-.3h9.6c.2 0 .3.1.3.3l-.3 2.6c0 .2-.2.3-.3.3h-6.1l-.1.1-.5 3.8c0 .1 0 .2.1 0 .8-.6 1.7-1 2.6-1 2.6 0 3.7 1.8 4 3.9v2.4c0 .7-.2 1.3-.4 2-.8 2.5-2.6 4.4-5.9 4.4s-4.5-1.5-4.7-4.1Z"/>
      </g>
    </g>
  </g>
  <g class="cls-5">
    <g class="cls-4">
      <g class="cls-4">
        <path class="cls-2" d="m11.5 60 5.6-44.8c0-.6.5-1 1.1-1h14.3c9.8 0 15.4 3.7 14.2 13.2-.5 4.3-2.3 7.3-5.4 9.2-.3.1-.3.3 0 .4 3 2.3 4.3 5.8 3.8 10.6C44 57 36.5 61 28 61H12.4c-.6 0-.9-.4-.9-1Zm13.7-9.7h3.5c2.3 0 3.9-1.4 4.2-4.1.3-2.6-.9-4.1-3.1-4.1h-3.6c-.2 0-.3.1-.4.3l-.9 7.6c0 .2.1.3.3.3Zm2.2-17.9h2.9c2.5 0 4-1.3 4.3-3.7.3-2.4-.9-3.7-3.3-3.7h-2.9c-.2 0-.3.1-.4.3l-.8 6.8c0 .2 0 .3.3.3ZM45.9 60l5.6-44.8c0-.6.5-1 1.1-1H80c.6 0 .9.4.9 1L79.8 24c0 .6-.5 1-1.1 1H62.8c-.2 0-.3.1-.4.3l-.7 6.4c0 .2 0 .3.3.3h9.3c.5 0 .9.4.8 1L71 41.7c0 .6-.5 1-1.1 1h-9.3c-.2 0-.3.1-.3.3l-2.1 16.9c0 .6-.5 1-1.1 1H46.9c-.6 0-.9-.4-.9-1Z"/>
      </g>
    </g>
    <g class="cls-4">
      <g class="cls-4">
        <path class="cls-2" d="M6.2 82.2c2.2-2.3 4.3-4.5 6-6.5 1.3-1.5 2.3-2.9 2.4-3.9.2-1.3-.5-2-1.6-2s-1.9.8-2.1 2v.9c-.1.2-.3.3-.5.3H7.3c-.2 0-.3-.1-.3-.3l.2-1.3c.3-2.9 3.1-4.8 6.2-4.8s5.2 2.2 4.8 5.3a10 10 0 0 1-2.6 5.1 60.2 60.2 0 0 1-5 5.2v.2h6.2c.2 0 .3.1.3.3l-.3 2.6c0 .2-.2.3-.3.3H6c-.2 0-.3-.1-.3-.3l.3-2.6c0-.2 0-.3.2-.4ZM19 80l.9-7.8c.4-3.5 2.9-5.8 6.3-5.8s5.4 2.3 5 5.8l-.9 7.8c-.5 3.5-2.9 5.8-6.4 5.8S18.5 83.5 19 80Zm5.3 2.6c1.2 0 2.1-.9 2.3-2.3l1-8.2c.2-1.4-.5-2.3-1.7-2.3s-2.1.9-2.2 2.3l-1 8.2c-.2 1.4.5 2.3 1.7 2.3ZM31.5 81.6v-1.8c0-.2.2-.3.3-.3h3.1c.2 0 .3.1.3.3V81c0 .9.6 1.5 1.5 1.5s1.5-.5 1.8-1.4l.4-1.9a6 6 0 0 0 0-1.9c-.2-.9-.7-1.4-1.4-1.4s-.7.1-1.1.4c-.2.1-.3 0-.4 0l-1.3-1.7v-.5l4.3-3.9V70h-5.6c-.2 0-.3-.1-.3-.3l.3-2.6c0-.2.2-.3.3-.3h9.9c.2 0 .3.1.3.3l-.3 2.7-.2.4-3.7 3.7v.2a3 3 0 0 1 2.6 2.5 9.2 9.2 0 0 1-.8 6.3c-1 1.9-2.8 3-5.2 3s-4.7-1.6-4.8-4.1ZM44.2 81.6v-1.2c0-.4.1-.3.3-.3h3.1c.2 0 .3.1.3.3v.5c.1.9.6 1.6 1.5 1.6s1.6-.8 1.9-1.8l.3-1.4v-1.5c-.1-.9-.6-1.5-1.4-1.5s-1.6.5-1.9 1.3c0 .2-.2.3-.4.3h-3.1c-.2 0-.3-.1-.3-.3l1.3-10.4c0-.2.2-.3.3-.3h9.6c.2 0 .3.1.3.3l-.3 2.6c0 .2-.2.3-.3.3h-6.1l-.1.1-.5 3.8c0 .1 0 .2.1 0 .8-.6 1.7-1 2.6-1 2.6 0 3.7 1.8 4 3.9v2.4c0 .7-.2 1.3-.4 2-.8 2.5-2.6 4.4-5.9 4.4s-4.5-1.5-4.7-4.1Z"/>
      </g>
    </g>
  </g>
</svg>