<?xml version="1.0" encoding="UTF-8"?>
<svg id="Ebene_1" data-name="Ebene 1" xmlns="http://www.w3.org/2000/svg" version="1.1" viewBox="0 0 100 100">
  <defs>
    <style>
      .cls-1 {
        font-family: BarlowSemiCondensed-BoldItalic, 'Barlow Semi Condensed';
        font-size: 26.8px;
        font-weight: 700;
        letter-spacing: 0em;
      }

      .cls-1, .cls-2, .cls-3 {
        fill: #000;
      }

      .cls-1, .cls-3 {
        font-style: italic;
      }

      .cls-1, .cls-3, .cls-4 {
        isolation: isolate;
      }

      .cls-2 {
        stroke-width: 0px;
      }

      .cls-5 {
        opacity: .2;
      }

      .cls-6 {
        opacity: .4;
      }

      .cls-3 {
        font-family: BarlowSemiCondensed-BlackItalic, 'Barlow Semi Condensed';
        font-size: 66.9px;
        font-weight: 800;
        letter-spacing: 0em;
      }
    </style>
  </defs>
  <g>
    <g class="cls-4">
      <text class="cls-3" transform="translate(27.4 213.9)"><tspan x="0" y="0">BF</tspan></text>
    </g>
    <g class="cls-4">
      <text class="cls-1" transform="translate(22.5 238.4)"><tspan x="0" y="0">2035</tspan></text>
    </g>
  </g>
  <g class="cls-6">
    <g class="cls-4">
      <text class="cls-3" transform="translate(17.4 213.9)"><tspan x="0" y="0">BF</tspan></text>
    </g>
    <g class="cls-4">
      <text class="cls-1" transform="translate(12.5 238.4)"><tspan x="0" y="0">2035</tspan></text>
    </g>
  </g>
  <g class="cls-5">
    <g class="cls-4">
      <text class="cls-3" transform="translate(10.4 213.9)"><tspan x="0" y="0">BF</tspan></text>
    </g>
    <g class="cls-4">
      <text class="cls-1" transform="translate(5.5 238.4)"><tspan x="0" y="0">2035</tspan></text>
    </g>
  </g>
  <g>
    <g class="cls-4">
      <g class="cls-4">
        <path class="cls-2" d="M28.5,60l5.6-44.8c0-.6.5-1,1.1-1h14.3c9.8,0,15.4,3.7,14.2,13.2-.5,4.3-2.3,7.3-5.4,9.2-.3.1-.3.3,0,.4,3,2.3,4.3,5.8,3.8,10.6-1.1,9.4-8.6,13.4-17.1,13.4h-15.6c-.6,0-.9-.4-.9-1ZM42.3,50.3h3.5c2.3,0,3.9-1.4,4.2-4.1.3-2.6-.9-4.1-3.1-4.1h-3.6c-.2,0-.3.1-.4.3l-.9,7.6c0,.2.1.3.3.3ZM44.4,32.4h2.9c2.5,0,4-1.3,4.3-3.7.3-2.4-.9-3.7-3.3-3.7h-2.9c-.2,0-.3.1-.4.3l-.8,6.8c0,.2,0,.3.3.3Z"/>
        <path class="cls-2" d="M62.9,60l5.6-44.8c0-.6.5-1,1.1-1h27.4c.6,0,.9.4.9,1l-1.1,8.8c0,.6-.5,1-1.1,1h-15.9c-.2,0-.3.1-.4.3l-.7,6.4c0,.2,0,.3.3.3h9.3c.5,0,.9.4.8,1l-1.1,8.7c0,.6-.5,1-1.1,1h-9.3c-.2,0-.3.1-.3.3l-2.1,16.9c0,.6-.5,1-1.1,1h-10.2c-.6,0-.9-.4-.9-1Z"/>
      </g>
    </g>
    <g class="cls-4">
      <g class="cls-4">
        <path class="cls-2" d="M23.2,82.2c2.2-2.3,4.3-4.5,6-6.5,1.3-1.5,2.3-2.9,2.4-3.9.2-1.3-.5-2-1.6-2s-1.9.8-2.1,2v.9c-.1.2-.3.3-.5.3h-3.1c-.2,0-.3-.1-.3-.3l.2-1.3c.3-2.9,3.1-4.8,6.2-4.8s5.2,2.2,4.8,5.3c-.2,1.7-1.1,3.3-2.6,5.1-1.4,1.7-3.2,3.5-5,5.2,0,0,0,.2,0,.2h6.2c.2,0,.3.1.3.3l-.3,2.6c0,.2-.2.3-.3.3h-10.7c-.2,0-.3-.1-.3-.3l.3-2.6c0-.2,0-.3.2-.4Z"/>
        <path class="cls-2" d="M36,80l.9-7.8c.4-3.5,2.9-5.8,6.3-5.8s5.4,2.3,5,5.8l-.9,7.8c-.5,3.5-2.9,5.8-6.4,5.8s-5.4-2.3-4.9-5.8ZM41.3,82.6c1.2,0,2.1-.9,2.3-2.3l1-8.2c.2-1.4-.5-2.3-1.7-2.3s-2.1.9-2.2,2.3l-1,8.2c-.2,1.4.5,2.3,1.7,2.3Z"/>
        <path class="cls-2" d="M48.5,81.6c0-.6,0-1.2,0-1.8,0-.2.2-.3.3-.3h3.1c.2,0,.3.1.3.3,0,.4,0,.8,0,1.2,0,.9.6,1.5,1.5,1.5s1.5-.5,1.8-1.4c.2-.5.3-1.2.4-1.9.1-.8.1-1.4,0-1.9-.2-.9-.7-1.4-1.4-1.4s-.7.1-1.1.4c-.2.1-.3,0-.4,0l-1.3-1.7c-.1-.1-.1-.3,0-.5l4.3-3.9c0,0,0-.2,0-.2h-5.6c-.2,0-.3-.1-.3-.3l.3-2.6c0-.2.2-.3.3-.3h9.9c.2,0,.3.1.3.3l-.3,2.7c0,.2-.1.3-.2.4l-3.7,3.7c0,0,0,.1,0,.2,1.3.2,2.2,1.1,2.6,2.5.2.8.3,1.8.2,3-.2,1.3-.5,2.4-1,3.3-1,1.9-2.8,3-5.2,3s-4.7-1.6-4.8-4.1Z"/>
        <path class="cls-2" d="M61.2,81.6c0-.3,0-.8,0-1.2s.1-.3.3-.3h3.1c.2,0,.3.1.3.3v.5c.1.9.6,1.6,1.5,1.6s1.6-.8,1.9-1.8c.1-.5.2-1,.3-1.4,0-.5,0-1,0-1.5-.1-.9-.6-1.5-1.4-1.5s-1.6.5-1.9,1.3c0,.2-.2.3-.4.3h-3.1c-.2,0-.3-.1-.3-.3l1.3-10.4c0-.2.2-.3.3-.3h9.6c.2,0,.3.1.3.3l-.3,2.6c0,.2-.2.3-.3.3h-6.1c0,0-.1,0-.1.1l-.5,3.8c0,.1,0,.2.1,0,.8-.6,1.7-1,2.6-1,2.6,0,3.7,1.8,4,3.9,0,.8,0,1.6,0,2.4,0,.7-.2,1.3-.4,2-.8,2.5-2.6,4.4-5.9,4.4s-4.5-1.5-4.7-4.1Z"/>
      </g>
    </g>
  </g>
  <g class="cls-6">
    <g class="cls-4">
      <g class="cls-4">
        <path class="cls-2" d="M18.5,60l5.6-44.8c0-.6.5-1,1.1-1h14.3c9.8,0,15.4,3.7,14.2,13.2-.5,4.3-2.3,7.3-5.4,9.2-.3.1-.3.3,0,.4,3,2.3,4.3,5.8,3.8,10.6-1.1,9.4-8.6,13.4-17.1,13.4h-15.6c-.6,0-.9-.4-.9-1ZM32.2,50.3h3.5c2.3,0,3.9-1.4,4.2-4.1.3-2.6-.9-4.1-3.1-4.1h-3.6c-.2,0-.3.1-.4.3l-.9,7.6c0,.2.1.3.3.3ZM34.4,32.4h2.9c2.5,0,4-1.3,4.3-3.7.3-2.4-.9-3.7-3.3-3.7h-2.9c-.2,0-.3.1-.4.3l-.8,6.8c0,.2,0,.3.3.3Z"/>
        <path class="cls-2" d="M52.9,60l5.6-44.8c0-.6.5-1,1.1-1h27.4c.6,0,.9.4.9,1l-1.1,8.8c0,.6-.5,1-1.1,1h-15.9c-.2,0-.3.1-.4.3l-.7,6.4c0,.2,0,.3.3.3h9.3c.5,0,.9.4.8,1l-1.1,8.7c0,.6-.5,1-1.1,1h-9.3c-.2,0-.3.1-.3.3l-2.1,16.9c0,.6-.5,1-1.1,1h-10.2c-.6,0-.9-.4-.9-1Z"/>
      </g>
    </g>
    <g class="cls-4">
      <g class="cls-4">
        <path class="cls-2" d="M13.2,82.2c2.2-2.3,4.3-4.5,6-6.5,1.3-1.5,2.3-2.9,2.4-3.9.2-1.3-.5-2-1.6-2s-1.9.8-2.1,2v.9c-.1.2-.3.3-.5.3h-3.1c-.2,0-.3-.1-.3-.3l.2-1.3c.3-2.9,3.1-4.8,6.2-4.8s5.2,2.2,4.8,5.3c-.2,1.7-1.1,3.3-2.6,5.1-1.4,1.7-3.2,3.5-5,5.2,0,0,0,.2,0,.2h6.2c.2,0,.3.1.3.3l-.3,2.6c0,.2-.2.3-.3.3h-10.7c-.2,0-.3-.1-.3-.3l.3-2.6c0-.2,0-.3.2-.4Z"/>
        <path class="cls-2" d="M26,80l.9-7.8c.4-3.5,2.9-5.8,6.3-5.8s5.4,2.3,5,5.8l-.9,7.8c-.5,3.5-2.9,5.8-6.4,5.8s-5.4-2.3-4.9-5.8ZM31.3,82.6c1.2,0,2.1-.9,2.3-2.3l1-8.2c.2-1.4-.5-2.3-1.7-2.3s-2.1.9-2.2,2.3l-1,8.2c-.2,1.4.5,2.3,1.7,2.3Z"/>
        <path class="cls-2" d="M38.5,81.6c0-.6,0-1.2,0-1.8,0-.2.2-.3.3-.3h3.1c.2,0,.3.1.3.3,0,.4,0,.8,0,1.2,0,.9.6,1.5,1.5,1.5s1.5-.5,1.8-1.4c.2-.5.3-1.2.4-1.9.1-.8.1-1.4,0-1.9-.2-.9-.7-1.4-1.4-1.4s-.7.1-1.1.4c-.2.1-.3,0-.4,0l-1.3-1.7c-.1-.1-.1-.3,0-.5l4.3-3.9c0,0,0-.2,0-.2h-5.6c-.2,0-.3-.1-.3-.3l.3-2.6c0-.2.2-.3.3-.3h9.9c.2,0,.3.1.3.3l-.3,2.7c0,.2-.1.3-.2.4l-3.7,3.7c0,0,0,.1,0,.2,1.3.2,2.3,1.1,2.6,2.5.2.8.3,1.8.2,3-.2,1.3-.5,2.4-1,3.3-1,1.9-2.8,3-5.2,3s-4.7-1.6-4.8-4.1Z"/>
        <path class="cls-2" d="M51.2,81.6c0-.3,0-.8,0-1.2s.1-.3.3-.3h3.1c.2,0,.3.1.3.3v.5c.1.9.6,1.6,1.5,1.6s1.6-.8,1.9-1.8c.1-.5.2-1,.3-1.4,0-.5,0-1,0-1.5-.1-.9-.6-1.5-1.4-1.5s-1.6.5-1.9,1.3c0,.2-.2.3-.4.3h-3.1c-.2,0-.3-.1-.3-.3l1.3-10.4c0-.2.2-.3.3-.3h9.6c.2,0,.3.1.3.3l-.3,2.6c0,.2-.2.3-.3.3h-6.1c0,0-.1,0-.1.1l-.5,3.8c0,.1,0,.2.1,0,.8-.6,1.7-1,2.6-1,2.6,0,3.7,1.8,4,3.9,0,.8,0,1.6,0,2.4,0,.7-.2,1.3-.4,2-.8,2.5-2.6,4.4-5.9,4.4s-4.5-1.5-4.7-4.1Z"/>
      </g>
    </g>
  </g>
  <g class="cls-5">
    <g class="cls-4">
      <g class="cls-4">
        <path class="cls-2" d="M11.5,60l5.6-44.8c0-.6.5-1,1.1-1h14.3c9.8,0,15.4,3.7,14.2,13.2-.5,4.3-2.3,7.3-5.4,9.2-.3.1-.3.3,0,.4,3,2.3,4.3,5.8,3.8,10.6-1.1,9.4-8.6,13.4-17.1,13.4h-15.6c-.6,0-.9-.4-.9-1ZM25.2,50.3h3.5c2.3,0,3.9-1.4,4.2-4.1.3-2.6-.9-4.1-3.1-4.1h-3.6c-.2,0-.3.1-.4.3l-.9,7.6c0,.2.1.3.3.3ZM27.4,32.4h2.9c2.5,0,4-1.3,4.3-3.7.3-2.4-.9-3.7-3.3-3.7h-2.9c-.2,0-.3.1-.4.3l-.8,6.8c0,.2,0,.3.3.3Z"/>
        <path class="cls-2" d="M45.9,60l5.6-44.8c0-.6.5-1,1.1-1h27.4c.6,0,.9.4.9,1l-1.1,8.8c0,.6-.5,1-1.1,1h-15.9c-.2,0-.3.1-.4.3l-.7,6.4c0,.2,0,.3.3.3h9.3c.5,0,.9.4.8,1l-1.1,8.7c0,.6-.5,1-1.1,1h-9.3c-.2,0-.3.1-.3.3l-2.1,16.9c0,.6-.5,1-1.1,1h-10.2c-.6,0-.9-.4-.9-1Z"/>
      </g>
    </g>
    <g class="cls-4">
      <g class="cls-4">
        <path class="cls-2" d="M6.2,82.2c2.2-2.3,4.3-4.5,6-6.5,1.3-1.5,2.3-2.9,2.4-3.9.2-1.3-.5-2-1.6-2s-1.9.8-2.1,2v.9c-.1.2-.3.3-.5.3h-3.1c-.2,0-.3-.1-.3-.3l.2-1.3c.3-2.9,3.1-4.8,6.2-4.8s5.2,2.2,4.8,5.3c-.2,1.7-1.1,3.3-2.6,5.1-1.4,1.7-3.2,3.5-5,5.2,0,0,0,.2,0,.2h6.2c.2,0,.3.1.3.3l-.3,2.6c0,.2-.2.3-.3.3H6c-.2,0-.3-.1-.3-.3l.3-2.6c0-.2,0-.3.2-.4Z"/>
        <path class="cls-2" d="M19,80l.9-7.8c.4-3.5,2.9-5.8,6.3-5.8s5.4,2.3,5,5.8l-.9,7.8c-.5,3.5-2.9,5.8-6.4,5.8s-5.4-2.3-4.9-5.8ZM24.3,82.6c1.2,0,2.1-.9,2.3-2.3l1-8.2c.2-1.4-.5-2.3-1.7-2.3s-2.1.9-2.2,2.3l-1,8.2c-.2,1.4.5,2.3,1.7,2.3Z"/>
        <path class="cls-2" d="M31.5,81.6c0-.6,0-1.2,0-1.8,0-.2.2-.3.3-.3h3.1c.2,0,.3.1.3.3,0,.4,0,.8,0,1.2,0,.9.6,1.5,1.5,1.5s1.5-.5,1.8-1.4c.2-.5.3-1.2.4-1.9.1-.8.1-1.4,0-1.9-.2-.9-.7-1.4-1.4-1.4s-.7.1-1.1.4c-.2.1-.3,0-.4,0l-1.3-1.7c-.1-.1-.1-.3,0-.5l4.3-3.9c0,0,0-.2,0-.2h-5.6c-.2,0-.3-.1-.3-.3l.3-2.6c0-.2.2-.3.3-.3h9.9c.2,0,.3.1.3.3l-.3,2.7c0,.2-.1.3-.2.4l-3.7,3.7c0,0,0,.1,0,.2,1.3.2,2.3,1.1,2.6,2.5.2.8.3,1.8.2,3-.2,1.3-.5,2.4-1,3.3-1,1.9-2.8,3-5.2,3s-4.7-1.6-4.8-4.1Z"/>
        <path class="cls-2" d="M44.2,81.6c0-.3,0-.8,0-1.2s.1-.3.3-.3h3.1c.2,0,.3.1.3.3v.5c.1.9.6,1.6,1.5,1.6s1.6-.8,1.9-1.8c.1-.5.2-1,.3-1.4,0-.5,0-1,0-1.5-.1-.9-.6-1.5-1.4-1.5s-1.6.5-1.9,1.3c0,.2-.2.3-.4.3h-3.1c-.2,0-.3-.1-.3-.3l1.3-10.4c0-.2.2-.3.3-.3h9.6c.2,0,.3.1.3.3l-.3,2.6c0,.2-.2.3-.3.3h-6.1c0,0-.1,0-.1.1l-.5,3.8c0,.1,0,.2.1,0,.8-.6,1.7-1,2.6-1,2.6,0,3.7,1.8,4,3.9,0,.8,0,1.6,0,2.4,0,.7-.2,1.3-.4,2-.8,2.5-2.6,4.4-5.9,4.4s-4.5-1.5-4.7-4.1Z"/>
      </g>
    </g>
  </g>
</svg>