<?xml version="1.0" encoding="utf-8"?>
<!-- Generator: Adobe Illustrator 28.2.0, SVG Export Plug-In . SVG Version: 6.00 Build 0)  -->
<svg version="1.1" id="Ebene_1" xmlns="http://www.w3.org/2000/svg" xmlns:xlink="http://www.w3.org/1999/xlink" x="0px" y="0px"
	 viewBox="0 0 100 100" style="enable-background:new 0 0 100 100;" xml:space="preserve">
<style type="text/css">
	.st0{opacity:5.000000e-02;}
	.st1{opacity:0.1;}
	.st2{opacity:0.2;}
	.st3{font-family:'BarlowCondensed-BlackItalic';}
	.st4{font-size:66.9279px;}
	.st5{font-family:'BarlowCondensed-ExtraBoldItalic';}
	.st6{font-size:26.7712px;}
</style>
<g id="background">
</g>
<g class="st0">
	<path d="M17.2,193.6c-0.1-0.1-0.1-0.2-0.1-0.3l3.2-26.4c0-0.1,0.1-0.2,0.2-0.3s0.2-0.1,0.3-0.1h5.4c0.1,0,0.2,0.1,0.3,0.1
		s0.1,0.2,0.1,0.3l-1.1,8.8c0,0.1,0,0.2,0.1,0.2s0.1,0,0.2-0.1l5.1-9c0.1-0.2,0.3-0.3,0.6-0.3h5.7c0.2,0,0.3,0.1,0.3,0.1
		s0,0.2-0.1,0.4l-6.9,11.5c0,0,0,0.1-0.1,0.1v0.1l4,14.5v0.2c0,0.1,0,0.2-0.1,0.3s-0.2,0.1-0.3,0.1h-5.7c-0.3,0-0.5-0.1-0.5-0.3
		l-2.3-9.1c0-0.1-0.1-0.1-0.1-0.1s-0.1,0-0.2,0.1l-0.9,1.4c0,0.1-0.1,0.2-0.1,0.2l-0.9,7.4c0,0.1-0.1,0.2-0.2,0.3s-0.2,0.1-0.3,0.1
		h-5.4C17.4,193.7,17.3,193.7,17.2,193.6z"/>
	<path d="M48.1,173.7c0.1,0.1,0.1,0.2,0.1,0.3l-0.4,3.6c0,0.1-0.1,0.2-0.2,0.3c-0.1,0.1-0.2,0.1-0.3,0.1h-1.8
		c-0.1,0-0.2,0.1-0.2,0.2l-1.9,15c0,0.1-0.1,0.2-0.2,0.3c-0.1,0.1-0.2,0.1-0.3,0.1h-5.3c-0.1,0-0.2,0-0.3-0.1s-0.1-0.2-0.1-0.3
		l1.9-15c0-0.1-0.1-0.2-0.2-0.2h-1c-0.1,0-0.2,0-0.3-0.1s-0.1-0.2-0.1-0.3l0.4-3.6c0-0.1,0.1-0.2,0.2-0.3c0.1-0.1,0.2-0.1,0.3-0.1h1
		c0.2,0,0.2-0.1,0.2-0.2l0.2-1.2c0.3-2.2,1-3.7,2.2-4.5c1.2-0.9,2.9-1.3,5.2-1.3h1.2c0.1,0,0.2,0,0.3,0.1s0.1,0.2,0.1,0.3l-0.4,3.5
		c0,0.3-0.2,0.5-0.4,0.5c-0.5,0-1,0.2-1.3,0.6s-0.5,0.8-0.6,1.3l-0.1,0.6c0,0.1,0,0.2,0.2,0.2H48C48,173.5,48,173.6,48.1,173.7z"/>
	<path d="M61.8,191.7c-1.7,1.3-3.7,2-6,2h-7.6c-0.1,0-0.2,0-0.3-0.1s-0.1-0.2-0.1-0.3l3.2-26.4c0-0.1,0.1-0.2,0.2-0.3
		c0.1-0.1,0.2-0.1,0.3-0.1h6.7c2.4,0,4.2,0.5,5.6,1.6c1.3,1,2,2.6,2,4.7c0,0.6,0,1-0.1,1.3c-0.3,2.5-1.3,4.3-3,5.5
		c-0.1,0.1-0.2,0.2-0.1,0.2c1.5,1.2,2.2,2.9,2.2,5c0,0.3,0,0.7-0.1,1.2C64.4,188.4,63.4,190.4,61.8,191.7z M57.8,187.2
		c0.5-0.6,0.7-1.6,0.7-2.7c0-0.8-0.2-1.4-0.5-1.8s-0.7-0.7-1.3-0.7h-1.2c-0.1,0-0.2,0.1-0.2,0.2l-0.7,5.8c0,0.1,0,0.2,0.2,0.2H56
		C56.7,188.1,57.3,187.8,57.8,187.2z M56.6,172.1l-0.6,5c0,0.1,0,0.2,0.2,0.2h0.7c0.8,0,1.4-0.3,1.9-0.9c0.5-0.6,0.7-1.4,0.7-2.4
		c0-0.7-0.2-1.2-0.5-1.5c-0.3-0.4-0.8-0.5-1.4-0.5h-0.7C56.8,171.9,56.7,172,56.6,172.1z"/>
</g>
<g class="st1">
	<path d="M8.6,188.1c0,0.1,0.1,0.1,0.1,0.1h7.6c0.1,0,0.2,0.1,0.3,0.1s0.1,0.2,0.1,0.3l-0.5,4.6c0,0.1-0.1,0.2-0.2,0.3
		s-0.2,0.1-0.3,0.1H0.9c-0.3,0-0.4-0.2-0.4-0.5l0.6-4.8c0-0.1,0.1-0.3,0.3-0.6l2.5-2.6c2.7-2.8,4.6-4.9,5.6-6.3
		c0.8-1.1,1.5-2.1,1.9-3.1s0.6-1.8,0.6-2.7c0-1.1-0.4-1.6-1.2-1.6c-0.4,0-0.8,0.2-1.1,0.6c-0.3,0.4-0.5,0.8-0.6,1.4l-0.2,1.7
		c0,0.1-0.1,0.2-0.2,0.3c-0.1,0.1-0.2,0.1-0.3,0.1H2.9c-0.1,0-0.2,0-0.3-0.1s-0.1-0.2-0.1-0.3l0.2-1.9c0.4-2.2,1.4-3.9,3.1-5.2
		c1.6-1.3,3.6-2,5.9-2c2,0,3.6,0.6,4.8,1.8c1.2,1.2,1.8,2.8,1.8,4.7c0,0.3,0,0.7-0.1,1.2c-0.2,1.4-0.5,2.7-1.1,3.9s-1.4,2.4-2.5,3.8
		c-0.9,1.1-2.3,2.6-4.3,4.7l-1.7,1.8C8.6,188,8.6,188,8.6,188.1z"/>
	<path d="M20.2,192.3c-1.2-1.2-1.8-2.9-1.8-5c0-0.3,0-0.7,0.1-1.3l1.4-11.8c0.3-2.5,1.3-4.5,2.9-6s3.6-2.3,5.9-2.3
		c2.1,0,3.8,0.6,5,1.8s1.8,2.9,1.8,5c0,0.6,0,1.1-0.1,1.4L34,185.9c-0.3,2.5-1.3,4.5-2.9,6s-3.6,2.2-5.9,2.2
		C23.1,194.2,21.4,193.6,20.2,192.3z M27,188c0.3-0.4,0.5-1,0.6-1.6l1.5-12.6c0-0.1,0-0.3,0-0.6c0-0.5-0.1-0.9-0.3-1.2
		c-0.2-0.3-0.5-0.5-0.9-0.5c-0.5,0-0.9,0.2-1.2,0.6c-0.3,0.4-0.5,1-0.6,1.6l-1.6,12.6c0,0.1,0,0.3,0,0.5c0,0.5,0.1,0.9,0.3,1.3
		s0.5,0.5,0.9,0.5C26.3,188.6,26.7,188.4,27,188z"/>
	<path d="M51,184.9l-0.4,2.5c-0.3,1.9-1.2,3.5-2.8,4.7c-1.5,1.2-3.3,1.8-5.5,1.8c-2.1,0-3.8-0.5-5-1.6s-1.9-2.5-1.9-4.3
		c0-0.3,0-0.6,0-0.8c0-0.4,0.1-1.1,0.2-2.1c0-0.3,0.2-0.5,0.5-0.5h5.3c0.3,0,0.4,0.1,0.4,0.4c0,0.3,0,0.6-0.1,0.8
		c0,0.3-0.1,0.5-0.1,0.8c0,0.5,0.1,0.9,0.3,1.2s0.5,0.4,0.9,0.4s0.8-0.1,1.1-0.4s0.5-0.7,0.6-1.2l0.3-2.5l0.1-0.9
		c0.1-0.6,0.1-1.2,0.1-1.8c0-0.4-0.1-0.8-0.3-1.1s-0.5-0.4-0.9-0.4s-0.9,0.2-1.4,0.6c-0.2,0.1-0.3,0.2-0.3,0.2s-0.2-0.1-0.3-0.2
		l-2.4-3c-0.1-0.1-0.1-0.2-0.1-0.3s0.1-0.2,0.2-0.3l5.1-4.9c0.1-0.2,0.1-0.2,0-0.2h-6.5c-0.1,0-0.2,0-0.3-0.1s-0.1-0.2-0.1-0.3
		l0.5-4.6c0-0.1,0.1-0.2,0.2-0.3c0.1-0.1,0.2-0.1,0.3-0.1h13.8c0.1,0,0.2,0.1,0.3,0.1s0.1,0.2,0.1,0.3l-0.5,4.7
		c0,0.2-0.1,0.4-0.3,0.6l-4.7,4.9c-0.1,0.2-0.1,0.2,0,0.2c1.1,0.1,2,0.6,2.7,1.6s0.9,2.2,0.8,3.7C51.1,183,51.1,183.8,51,184.9z"/>
	<path d="M54.3,192.3c-1.2-1.2-1.8-2.9-1.8-5c0-0.3,0-0.7,0.1-1.3l1.4-11.8c0.3-2.5,1.3-4.5,2.9-6s3.6-2.3,5.9-2.3
		c2.1,0,3.8,0.6,5,1.8s1.8,2.9,1.8,5c0,0.6,0,1.1-0.1,1.4l-1.4,11.8c-0.3,2.5-1.3,4.5-2.9,6s-3.6,2.2-5.9,2.2
		C57.2,194.2,55.5,193.6,54.3,192.3z M61.2,188c0.3-0.4,0.5-1,0.6-1.6l1.5-12.6c0-0.1,0-0.3,0-0.6c0-0.5-0.1-0.9-0.3-1.2
		s-0.5-0.5-0.9-0.5c-0.5,0-0.9,0.2-1.2,0.6c-0.3,0.4-0.5,1-0.6,1.6l-1.6,12.6c0,0.1,0,0.3,0,0.5c0,0.5,0.1,0.9,0.3,1.3
		s0.5,0.5,0.9,0.5C60.5,188.6,60.8,188.4,61.2,188z"/>
</g>
<g class="st2">
	<path d="M17.3,188.1c0,0.1,0.1,0.1,0.1,0.1H25c0.1,0,0.2,0.1,0.3,0.1s0.1,0.2,0.1,0.3l-0.5,4.6c0,0.1-0.1,0.2-0.2,0.3
		s-0.2,0.1-0.3,0.1H9.5c-0.3,0-0.4-0.2-0.4-0.5l0.6-4.8c0-0.1,0.1-0.3,0.3-0.6l2.5-2.7c2.7-2.8,4.6-4.9,5.6-6.3
		c0.8-1.1,1.5-2.1,1.9-3.1c0.4-0.9,0.6-1.8,0.6-2.7c0-1.1-0.4-1.6-1.2-1.6c-0.4,0-0.8,0.2-1.1,0.6c-0.3,0.4-0.5,0.8-0.5,1.4
		l-0.2,1.7c0,0.1-0.1,0.2-0.2,0.3s-0.2,0.1-0.3,0.1h-5.5c-0.1,0-0.2,0-0.3-0.1s-0.1-0.2-0.1-0.3l0.2-1.9c0.4-2.2,1.4-3.9,3.1-5.2
		s3.6-2,5.9-2c2,0,3.6,0.6,4.8,1.8c1.2,1.2,1.8,2.8,1.8,4.7c0,0.3,0,0.7-0.1,1.2c-0.2,1.4-0.5,2.7-1.1,3.9s-1.4,2.4-2.5,3.8
		c-0.9,1.1-2.3,2.6-4.3,4.7l-1.7,1.8C17.3,188,17.3,188,17.3,188.1z"/>
	<path d="M28.9,192.3c-1.2-1.2-1.8-2.9-1.8-5c0-0.3,0-0.7,0.1-1.3l1.4-11.8c0.3-2.5,1.3-4.5,2.9-6c1.6-1.5,3.6-2.3,5.9-2.3
		c2.1,0,3.8,0.6,5,1.8s1.8,2.9,1.8,5c0,0.6,0,1.1-0.1,1.4l-1.4,11.8c-0.3,2.5-1.3,4.5-2.9,6s-3.6,2.2-5.9,2.2
		C31.8,194.2,30.1,193.6,28.9,192.3z M35.7,188c0.3-0.4,0.5-1,0.6-1.6l1.5-12.6c0-0.1,0-0.3,0-0.6c0-0.5-0.1-0.9-0.3-1.2
		s-0.5-0.5-0.9-0.5c-0.5,0-0.9,0.2-1.2,0.6c-0.3,0.4-0.5,1-0.6,1.6l-1.6,12.6c0,0.1,0,0.3,0,0.5c0,0.5,0.1,0.9,0.3,1.3
		s0.5,0.5,0.9,0.5C35,188.6,35.4,188.4,35.7,188z"/>
	<path d="M59.7,184.9l-0.4,2.5c-0.3,1.9-1.2,3.5-2.8,4.7c-1.5,1.2-3.3,1.8-5.5,1.8c-2.1,0-3.8-0.5-5-1.6s-1.9-2.5-1.9-4.3
		c0-0.3,0-0.6,0-0.8c0-0.4,0.1-1.1,0.2-2.1c0-0.3,0.2-0.5,0.5-0.5h5.3c0.3,0,0.4,0.1,0.4,0.4c0,0.3,0,0.6-0.1,0.8
		c0,0.3-0.1,0.5-0.1,0.8c0,0.5,0.1,0.9,0.3,1.2s0.5,0.4,0.9,0.4s0.8-0.1,1.1-0.4s0.5-0.7,0.6-1.2l0.3-2.5l0.1-0.9
		c0.1-0.6,0.1-1.2,0.1-1.8c0-0.4-0.1-0.8-0.3-1.1s-0.5-0.4-0.9-0.4s-0.9,0.2-1.4,0.6c-0.2,0.1-0.3,0.2-0.3,0.2s-0.2-0.1-0.3-0.2
		l-2.4-3c-0.1-0.1-0.1-0.2-0.1-0.3s0.1-0.2,0.2-0.3l5.1-4.9c0.1-0.2,0.1-0.2,0-0.2h-6.5c-0.1,0-0.2,0-0.3-0.1s-0.1-0.2-0.1-0.3
		l0.5-4.6c0-0.1,0.1-0.2,0.2-0.3c0.1-0.1,0.2-0.1,0.3-0.1h13.8c0.1,0,0.2,0.1,0.3,0.1c0.1,0.1,0.1,0.2,0.1,0.3l-0.6,4.7
		c0,0.2-0.1,0.4-0.3,0.6L56,177c-0.1,0.2-0.1,0.2,0,0.2c1.1,0.1,2,0.6,2.7,1.6s0.9,2.2,0.8,3.7C59.8,183,59.8,183.8,59.7,184.9z"/>
	<path d="M63,192.3c-1.2-1.2-1.8-2.9-1.8-5c0-0.3,0-0.7,0.1-1.3l1.4-11.8c0.3-2.5,1.3-4.5,2.9-6s3.6-2.3,5.9-2.3
		c2.1,0,3.8,0.6,5,1.8s1.8,2.9,1.8,5c0,0.6,0,1.1-0.1,1.4l-1.4,11.8c-0.3,2.5-1.3,4.5-2.9,6s-3.6,2.2-5.9,2.2
		C65.9,194.2,64.2,193.6,63,192.3z M69.8,188c0.3-0.4,0.5-1,0.6-1.6l1.5-12.6c0-0.1,0-0.3,0-0.6c0-0.5-0.1-0.9-0.3-1.2
		c-0.2-0.3-0.5-0.5-0.9-0.5c-0.5,0-0.9,0.2-1.2,0.6c-0.3,0.4-0.5,1-0.6,1.6l-1.6,12.6c0,0.1,0,0.3,0,0.5c0,0.5,0.1,0.9,0.3,1.3
		s0.5,0.5,0.9,0.5C69.1,188.6,69.5,188.4,69.8,188z"/>
</g>
<g>
	<path d="M31.1,188.1c0,0.1,0.1,0.1,0.1,0.1h7.6c0.1,0,0.2,0.1,0.3,0.1s0.1,0.2,0.1,0.3l-0.5,4.6c0,0.1-0.1,0.2-0.2,0.3
		c-0.1,0.1-0.2,0.1-0.3,0.1H23.3c-0.3,0-0.4-0.2-0.4-0.5l0.6-4.8c0-0.1,0.1-0.3,0.3-0.6l2.5-2.6c2.7-2.8,4.6-4.9,5.6-6.3
		c0.8-1.1,1.5-2.1,1.9-3.1s0.6-1.8,0.6-2.7c0-1.1-0.4-1.6-1.2-1.6c-0.4,0-0.8,0.2-1.1,0.6c-0.3,0.4-0.5,0.8-0.5,1.4l-0.2,1.7
		c0,0.1-0.1,0.2-0.2,0.3s-0.2,0.1-0.3,0.1h-5.5c-0.1,0-0.2,0-0.3-0.1c-0.1-0.1-0.1-0.2-0.1-0.3l0.2-1.9c0.4-2.2,1.4-3.9,3.1-5.2
		c1.6-1.3,3.6-2,5.9-2c2,0,3.6,0.6,4.8,1.8s1.8,2.8,1.8,4.7c0,0.3,0,0.7-0.1,1.2c-0.2,1.4-0.5,2.7-1.1,3.9s-1.4,2.4-2.5,3.8
		c-0.9,1.1-2.3,2.6-4.3,4.7l-1.7,1.8C31.1,188,31.1,188,31.1,188.1z"/>
	<path d="M42.7,192.3c-1.2-1.2-1.8-2.9-1.8-5c0-0.3,0-0.7,0.1-1.3l1.4-11.8c0.3-2.5,1.3-4.5,2.9-6s3.6-2.3,5.9-2.3
		c2.1,0,3.8,0.6,5,1.8s1.8,2.9,1.8,5c0,0.6,0,1.1-0.1,1.4l-1.4,11.8c-0.3,2.5-1.3,4.5-2.9,6s-3.6,2.2-5.9,2.2
		C45.5,194.2,43.9,193.6,42.7,192.3z M49.5,188c0.3-0.4,0.5-1,0.6-1.6l1.5-12.6c0-0.1,0-0.3,0-0.6c0-0.5-0.1-0.9-0.3-1.2
		s-0.5-0.5-0.9-0.5c-0.5,0-0.9,0.2-1.2,0.6c-0.3,0.4-0.5,1-0.6,1.6L47,186.3c0,0.1,0,0.3,0,0.5c0,0.5,0.1,0.9,0.3,1.3
		s0.5,0.5,0.9,0.5C48.8,188.6,49.2,188.4,49.5,188z"/>
	<path d="M73.4,184.9l-0.4,2.5c-0.3,1.9-1.2,3.5-2.8,4.7c-1.5,1.2-3.3,1.8-5.5,1.8c-2.1,0-3.8-0.5-5-1.6s-1.9-2.5-1.9-4.3
		c0-0.3,0-0.6,0-0.8c0-0.4,0.1-1.1,0.2-2.1c0-0.3,0.2-0.5,0.5-0.5h5.3c0.3,0,0.4,0.1,0.4,0.4c0,0.3,0,0.6-0.1,0.8
		c0,0.3-0.1,0.5-0.1,0.8c0,0.5,0.1,0.9,0.3,1.2c0.2,0.3,0.5,0.4,0.9,0.4s0.8-0.1,1.1-0.4s0.5-0.7,0.6-1.2l0.3-2.5l0.1-0.9
		c0.1-0.6,0.1-1.2,0.1-1.8c0-0.4-0.1-0.8-0.3-1.1c-0.2-0.3-0.5-0.4-0.9-0.4s-0.9,0.2-1.4,0.6c-0.2,0.1-0.3,0.2-0.3,0.2
		c-0.1,0-0.2-0.1-0.3-0.2l-2.4-3c-0.1-0.1-0.1-0.2-0.1-0.3s0.1-0.2,0.2-0.3L67,172c0.1-0.2,0.1-0.2,0-0.2h-6.5c-0.1,0-0.2,0-0.3-0.1
		s-0.1-0.2-0.1-0.3l0.5-4.6c0-0.1,0.1-0.2,0.2-0.3c0.1-0.1,0.2-0.1,0.3-0.1h13.8c0.1,0,0.2,0.1,0.3,0.1c0.1,0.1,0.1,0.2,0.1,0.3
		l-0.6,4.7c0,0.2-0.1,0.4-0.3,0.6L70,177c-0.1,0.2-0.1,0.2,0,0.2c1.1,0.1,2,0.6,2.7,1.6s0.9,2.2,0.8,3.7
		C73.6,183,73.5,183.8,73.4,184.9z"/>
	<path d="M76.8,192.3c-1.2-1.2-1.8-2.9-1.8-5c0-0.3,0-0.7,0.1-1.3l1.4-11.8c0.3-2.5,1.3-4.5,2.9-6s3.6-2.3,5.9-2.3
		c2.1,0,3.8,0.6,5,1.8s1.8,2.9,1.8,5c0,0.6,0,1.1-0.1,1.4l-1.4,11.8c-0.3,2.5-1.3,4.5-2.9,6s-3.6,2.2-5.9,2.2
		C79.7,194.2,78,193.6,76.8,192.3z M83.6,188c0.3-0.4,0.5-1,0.6-1.6l1.5-12.6c0-0.1,0-0.3,0-0.6c0-0.5-0.1-0.9-0.3-1.2
		c-0.2-0.3-0.5-0.5-0.9-0.5c-0.5,0-0.9,0.2-1.2,0.6c-0.3,0.4-0.5,1-0.6,1.6l-1.6,12.6c0,0.1,0,0.3,0,0.5c0,0.5,0.1,0.9,0.3,1.3
		s0.5,0.5,0.9,0.5C82.9,188.6,83.3,188.4,83.6,188z"/>
</g>
<g class="st1">
	<path d="M44.5,179.3c-0.1,0.1-0.2,0.1-0.3,0.1h-2.3c-0.2,0-0.2,0.1-0.2,0.2l-0.8,3c0,0.1,0,0.2,0.1,0.2h1.5c0.1,0,0.2,0.1,0.3,0.1
		s0.1,0.2,0.1,0.3l-0.5,4.6c0,0.1-0.1,0.2-0.2,0.3c-0.1,0.1-0.2,0.1-0.3,0.1h-2.3c-0.2,0-0.2,0.1-0.2,0.2l-1.2,4.6
		c-0.1,0.3-0.3,0.4-0.5,0.4h-5.4c-0.3,0-0.4-0.2-0.3-0.5l1.2-4.6c0-0.1,0-0.2-0.1-0.2h-2.3c-0.2,0-0.2,0.1-0.2,0.2l-1.2,4.6
		c-0.1,0.3-0.3,0.4-0.5,0.4h-5.4c-0.3,0-0.4-0.2-0.4-0.5l1.2-4.6c0-0.1,0-0.2-0.1-0.2h-1.5c-0.1,0-0.2,0-0.3-0.1
		c-0.1-0.1-0.1-0.2-0.1-0.3l0.5-4.6c0-0.1,0.1-0.2,0.2-0.3s0.2-0.1,0.3-0.1h2.3c0.1,0,0.2-0.1,0.3-0.2l0.8-3c0-0.1,0-0.2-0.1-0.2
		h-1.5c-0.1,0-0.2-0.1-0.3-0.1s-0.1-0.2-0.1-0.3l0.5-4.6c0-0.1,0.1-0.2,0.2-0.3s0.2-0.1,0.3-0.1H28c0,0,0.1,0,0.2-0.1
		c0.1,0,0.1-0.1,0.1-0.1l1.2-4.7c0.1-0.3,0.3-0.4,0.5-0.4h5.4c0.3,0,0.4,0.2,0.3,0.5l-1.2,4.6c0,0.1,0,0.2,0.1,0.2h2.3
		c0.1,0,0.2-0.1,0.3-0.2l1.2-4.7c0.1-0.3,0.3-0.4,0.5-0.4h5.4c0.3,0,0.4,0.2,0.3,0.5l-1.2,4.6c0,0.1,0,0.2,0.1,0.2H45
		c0.1,0,0.2,0.1,0.3,0.1s0.1,0.2,0.1,0.3l-0.5,4.6C44.7,179.1,44.6,179.3,44.5,179.3z M34.6,182.7l0.8-3c0-0.1,0-0.2-0.1-0.2H33
		c0,0-0.1,0-0.2,0.1l-0.1,0.1l-0.8,3c0,0.1,0,0.2,0.1,0.2h2.3C34.4,182.9,34.5,182.9,34.6,182.7z"/>
	<path d="M47.3,193.5c-1.2-1.2-1.8-2.9-1.8-5c0-0.3,0-0.7,0.1-1.3l1.4-11.8c0.3-2.5,1.3-4.5,2.9-6c1.6-1.5,3.6-2.3,5.9-2.3
		c2.1,0,3.8,0.6,5,1.9c1.2,1.2,1.8,2.9,1.8,5c0,0.6,0,1.1-0.1,1.4l-1.4,11.8c-0.3,2.5-1.3,4.5-2.9,6s-3.6,2.2-5.9,2.2
		C50.2,195.4,48.5,194.7,47.3,193.5z M54.2,189.2c0.3-0.4,0.5-1,0.6-1.6l1.5-12.6c0-0.1,0-0.3,0-0.6c0-0.5-0.1-0.9-0.3-1.2
		s-0.5-0.4-0.9-0.4c-0.5,0-0.9,0.2-1.2,0.6c-0.3,0.4-0.5,1-0.6,1.6l-1.6,12.6c0,0.1,0,0.3,0,0.5c0,0.5,0.1,0.9,0.3,1.3
		s0.5,0.5,0.9,0.5C53.5,189.8,53.8,189.6,54.2,189.2z"/>
</g>
<g id="BF-1" class="st0">
	<path d="M35.9,157.8c-2.4,2-5.3,2.9-8.7,2.9H16c-0.2,0-0.3-0.1-0.5-0.2c-0.1-0.1-0.1-0.3-0.1-0.5l4.7-38.5c0-0.2,0.1-0.4,0.3-0.5
		c0.1-0.1,0.3-0.2,0.5-0.2h9.8c3.5,0,6.2,0.8,8.1,2.3c2,1.5,2.9,3.8,2.9,6.8c0,0.8,0,1.5-0.1,1.9c-0.5,3.6-1.9,6.3-4.5,8
		c-0.2,0.1-0.2,0.2-0.1,0.3c2.1,1.8,3.2,4.2,3.2,7.3c0,0.4,0,1-0.1,1.8C39.7,153,38.3,155.8,35.9,157.8z M30.1,151.1
		c0.7-0.9,1-2.3,1-4c0-1.1-0.2-2-0.7-2.6c-0.5-0.7-1.1-1-1.9-1h-1.7c-0.2,0-0.3,0.1-0.3,0.3l-1,8.4c-0.1,0.2,0,0.3,0.2,0.3h1.6
		C28.5,152.6,29.4,152.1,30.1,151.1z M28.4,129.2l-0.9,7.3c-0.1,0.2,0,0.3,0.2,0.3h1c1.2,0,2.1-0.4,2.8-1.3c0.7-0.9,1-2,1-3.6
		c0-1-0.2-1.7-0.7-2.2s-1.2-0.8-2.1-0.8h-1C28.6,128.9,28.5,129,28.4,129.2z"/>
	<path d="M66.7,128.7c-0.1,0.1-0.3,0.2-0.5,0.2H55c-0.2,0-0.3,0.1-0.3,0.3l-0.8,7.2c0,0.2,0.1,0.3,0.2,0.3h6.1
		c0.2,0,0.3,0.1,0.5,0.2c0.1,0.1,0.2,0.3,0.1,0.5l-0.8,6.8c0,0.2-0.1,0.4-0.2,0.5c-0.2,0.1-0.3,0.2-0.5,0.2h-6
		c-0.2,0-0.3,0.1-0.3,0.3L51,160c0,0.2-0.1,0.4-0.3,0.5c-0.1,0.1-0.3,0.2-0.5,0.2h-7.9c-0.2,0-0.3-0.1-0.5-0.2
		c-0.1-0.1-0.2-0.3-0.1-0.5l4.7-38.5c0-0.2,0.1-0.4,0.3-0.5c0.1-0.1,0.3-0.2,0.5-0.2h19.9c0.4,0,0.6,0.2,0.6,0.7l-0.9,6.7
		C66.9,128.4,66.8,128.6,66.7,128.7z"/>
</g>
<g id="BF-2" class="st1">
	<path d="M39.9,157.8c-2.4,2-5.3,2.9-8.7,2.9H20c-0.2,0-0.3-0.1-0.5-0.2c-0.1-0.1-0.2-0.3-0.1-0.5l4.7-38.5c0-0.2,0.1-0.4,0.3-0.5
		c0.1-0.1,0.3-0.2,0.5-0.2h9.8c3.5,0,6.2,0.8,8.1,2.3c2,1.5,2.9,3.8,2.9,6.8c0,0.8,0,1.5-0.1,1.9c-0.5,3.6-1.9,6.3-4.5,8
		c-0.2,0.1-0.2,0.2-0.1,0.3c2.1,1.8,3.2,4.2,3.2,7.3c0,0.4,0,1-0.1,1.8C43.7,153,42.3,155.8,39.9,157.8z M34.1,151.1
		c0.7-0.9,1-2.3,1-4c0-1.1-0.2-2-0.7-2.6c-0.5-0.7-1.1-1-1.9-1h-1.7c-0.2,0-0.3,0.1-0.3,0.3l-1,8.4c-0.1,0.2,0,0.3,0.2,0.3h1.6
		C32.5,152.6,33.4,152.1,34.1,151.1z M32.4,129.2l-0.9,7.3c-0.1,0.2,0,0.3,0.2,0.3h1c1.2,0,2.1-0.4,2.8-1.3c0.7-0.9,1-2,1-3.6
		c0-1-0.2-1.7-0.7-2.2s-1.2-0.8-2.1-0.8h-1C32.6,128.9,32.5,129,32.4,129.2z"/>
	<path d="M70.7,128.7c-0.1,0.1-0.3,0.2-0.5,0.2H59c-0.2,0-0.3,0.1-0.3,0.3l-0.8,7.2c0,0.2,0.1,0.3,0.2,0.3h6.1
		c0.2,0,0.3,0.1,0.5,0.2c0.1,0.1,0.2,0.3,0.1,0.5l-0.8,6.8c0,0.2-0.1,0.4-0.2,0.5c-0.2,0.1-0.3,0.2-0.5,0.2h-6
		c-0.2,0-0.3,0.1-0.3,0.3L55,160c0,0.2-0.1,0.4-0.3,0.5c-0.1,0.1-0.3,0.2-0.5,0.2h-7.9c-0.2,0-0.3-0.1-0.5-0.2
		c-0.1-0.1-0.2-0.3-0.1-0.5l4.7-38.5c0-0.2,0.1-0.4,0.3-0.5c0.1-0.1,0.3-0.2,0.5-0.2h19.9c0.4,0,0.6,0.2,0.6,0.7l-0.9,6.7
		C70.9,128.4,70.8,128.6,70.7,128.7z"/>
</g>
<g id="BF-3" class="st2">
	<path d="M51,157.8c-2.4,2-5.3,3-8.7,3l-11.2,0.1c-0.2,0-0.3-0.1-0.5-0.2c-0.1-0.1-0.1-0.3-0.1-0.5l4.5-38.6c0-0.2,0.1-0.3,0.2-0.5
		c0.1-0.1,0.3-0.2,0.5-0.2l9.8-0.1c3.5,0,6.2,0.7,8.1,2.2c2,1.5,3,3.8,3,6.8c0,0.8,0,1.5-0.1,1.9c-0.4,3.6-1.9,6.3-4.4,8.1
		c-0.2,0.1-0.2,0.2-0.1,0.3c2.1,1.7,3.2,4.2,3.2,7.3c0,0.4,0,1-0.1,1.8C54.8,153,53.4,155.8,51,157.8z M45.2,151.2
		c0.7-0.9,1-2.3,1-4c0-1.1-0.2-2-0.7-2.6s-1.1-1-1.9-1h-1.7c-0.2,0-0.3,0.1-0.3,0.3l-1,8.4c-0.1,0.2,0,0.3,0.2,0.3h1.7
		C43.6,152.6,44.5,152.2,45.2,151.2z M43.3,129.3l-0.8,7.3c-0.1,0.2,0,0.3,0.2,0.3h1c1.2,0,2.1-0.4,2.8-1.3c0.7-0.9,1-2.1,1-3.6
		c0-1-0.2-1.7-0.7-2.2s-1.2-0.8-2.1-0.8h-1C43.5,129,43.3,129.1,43.3,129.3z"/>
	<path d="M81.5,128.5c-0.1,0.1-0.3,0.2-0.5,0.2l-11.1,0.1c-0.2,0-0.3,0.1-0.3,0.3l-0.8,7.2c0,0.2,0.1,0.3,0.2,0.3h6.1
		c0.2,0,0.3,0.1,0.5,0.2c0.1,0.1,0.2,0.3,0.1,0.5l-0.8,6.8c0,0.2-0.1,0.3-0.2,0.5c-0.2,0.1-0.3,0.2-0.5,0.2h-6
		c-0.2,0-0.3,0.1-0.3,0.3L66.1,160c0,0.2-0.1,0.4-0.2,0.5s-0.3,0.2-0.5,0.2l-7.9,0.1c-0.2,0-0.3-0.1-0.5-0.2
		c-0.1-0.1-0.2-0.3-0.1-0.5l4.5-38.6c0-0.2,0.1-0.3,0.2-0.5c0.1-0.1,0.3-0.2,0.5-0.2l19.9-0.1c0.4,0,0.6,0.2,0.6,0.7l-0.8,6.7
		C81.8,128.2,81.7,128.4,81.5,128.5z"/>
</g>
<g id="BF-4">
	<path d="M65.9,157.8c-2.4,2-5.3,2.9-8.8,2.9H46c-0.2,0-0.3-0.1-0.5-0.2c-0.1-0.1-0.2-0.3-0.1-0.5l4.7-38.5c0-0.2,0.1-0.4,0.3-0.5
		c0.1-0.1,0.3-0.2,0.5-0.2h9.8c3.5,0,6.2,0.8,8.1,2.3c2,1.5,2.9,3.8,2.9,6.8c0,0.8,0,1.5-0.1,1.9c-0.5,3.6-1.9,6.3-4.4,8
		c-0.2,0.1-0.2,0.2-0.1,0.3c2.1,1.8,3.2,4.2,3.2,7.3c0,0.4,0,1-0.1,1.8C69.7,153,68.3,155.8,65.9,157.8z M60.1,151.1
		c0.7-0.9,1-2.3,1-4c0-1.1-0.2-2-0.7-2.6c-0.5-0.7-1.1-1-1.9-1h-1.7c-0.2,0-0.3,0.1-0.3,0.3l-1,8.4c-0.1,0.2,0,0.3,0.2,0.3h1.7
		C58.5,152.6,59.4,152.1,60.1,151.1z M58.4,129.2l-0.8,7.3c-0.1,0.2,0,0.3,0.2,0.3h1c1.2,0,2.1-0.4,2.8-1.3c0.7-0.9,1-2,1-3.6
		c0-1-0.2-1.7-0.7-2.2s-1.2-0.8-2.1-0.8h-1C58.6,128.9,58.5,129,58.4,129.2z"/>
	<path d="M96.7,128.7c-0.1,0.1-0.3,0.2-0.5,0.2H85.1c-0.2,0-0.3,0.1-0.3,0.3l-0.8,7.2c0,0.2,0.1,0.3,0.2,0.3h6.1
		c0.2,0,0.3,0.1,0.5,0.2c0.1,0.1,0.2,0.3,0.1,0.5l-0.8,6.8c0,0.2-0.1,0.4-0.2,0.5c-0.2,0.1-0.3,0.2-0.5,0.2h-6
		c-0.2,0-0.3,0.1-0.3,0.3L81,160c0,0.2-0.1,0.4-0.3,0.5c-0.1,0.1-0.3,0.2-0.5,0.2h-7.9c-0.2,0-0.3-0.1-0.5-0.2
		c-0.1-0.1-0.2-0.3-0.1-0.5l4.7-38.5c0-0.2,0.1-0.4,0.3-0.5c0.1-0.1,0.3-0.2,0.5-0.2h19.9c0.4,0,0.6,0.2,0.6,0.7l-0.9,6.7
		C96.9,128.4,96.8,128.6,96.7,128.7z"/>
</g>
<g>
	<text transform="matrix(1 0 0 1 31.3958 59.2134)" class="st3 st4">BF</text>
	<text transform="matrix(1 0 0 1 25.5287 83.6548)" class="st5 st6">2035</text>
</g>
<g class="st1">
	<text transform="matrix(1 0 0 1 8.8454 59.2134)" class="st3 st4">BF</text>
	<text transform="matrix(1 0 0 1 2.9782 83.6548)" class="st5 st6">2035</text>
</g>
<g class="st2">
	<text transform="matrix(1 0 0 1 15.8655 59.2134)" class="st3 st4">BF</text>
	<text transform="matrix(1 0 0 1 9.9984 83.6548)" class="st5 st6">2035</text>
</g>
</svg>
