<svg width="210" height="490" viewBox="0 0 210 490" fill="none" xmlns="http://www.w3.org/2000/svg">
<mask id="path-1-inside-1_26_418" fill="white">
<path d="M-7 441H217V499H-7V441Z"/>
</mask>
<path d="M-7 441H217V499H-7V441Z" fill="#58ACF2"/>
<path d="M-7 441V434H-14V441H-7ZM217 441H224V434H217V441ZM217 499V506H224V499H217ZM-7 499H-14V506H-7V499ZM-7 448H217V434H-7V448ZM210 441V499H224V441H210ZM217 492H-7V506H217V492ZM0 499V441H-14V499H0Z" fill="white" mask="url(#path-1-inside-1_26_418)"/>
<text fill="black" xml:space="preserve" style="white-space: pre" font-family="Barlow Condensed" font-size="14" font-weight="bold" letter-spacing="0.07em"><tspan x="62.7401" y="472.8">PARTIZIPATION</tspan></text>
<g opacity="0.1">
<mask id="path-4-inside-2_26_418" fill="white">
<path d="M-7 357H217V441H-7V357Z"/>
</mask>
<path d="M-7 357H217V441H-7V357Z" fill="#58ACF2"/>
<path d="M-7 357V350H-14V357H-7ZM217 357H224V350H217V357ZM217 441V448H224V441H217ZM-7 441H-14V448H-7V441ZM-7 364H217V350H-7V364ZM210 357V441H224V357H210ZM217 434H-7V448H217V434ZM0 441V357H-14V441H0Z" fill="white" mask="url(#path-4-inside-2_26_418)"/>
</g>
<g filter="url(#filter0_d_26_418)">
<rect x="15" y="389" width="70" height="21" rx="7" fill="white"/>
<text fill="black" xml:space="preserve" style="white-space: pre" font-family="Barlow Condensed" font-size="8" letter-spacing="0em"><tspan x="21.832" y="402.3">Staatliche </tspan></text>
<text fill="black" xml:space="preserve" style="white-space: pre" font-family="Barlow Condensed" font-size="8" font-weight="bold" letter-spacing="0em"><tspan x="48.957" y="402.3">F&#xf6;rderung</tspan></text>
</g>
<g filter="url(#filter1_d_26_418)">
<rect x="126" y="371" width="70" height="21" rx="7" fill="white"/>
<text fill="black" xml:space="preserve" style="white-space: pre" font-family="Barlow Condensed" font-size="8" letter-spacing="0em"><tspan x="148.238" y="380.3">Staatliche </tspan><tspan x="135.234" y="388.3">F&#xf6;rder</tspan></text>
<text fill="black" xml:space="preserve" style="white-space: pre" font-family="Barlow Condensed" font-size="8" font-weight="bold" letter-spacing="0em"><tspan x="152.141" y="388.3">bereitschaft</tspan></text>
</g>
<path d="M88.2929 398.793C87.9024 399.183 87.9024 399.817 88.2929 400.207L94.6569 406.571C95.0474 406.962 95.6805 406.962 96.0711 406.571C96.4616 406.181 96.4616 405.547 96.0711 405.157L90.4142 399.5L96.0711 393.843C96.4616 393.453 96.4616 392.819 96.0711 392.429C95.6805 392.038 95.0474 392.038 94.6569 392.429L88.2929 398.793ZM105.5 390.5H106.5H105.5ZM105.5 390.5H106.5H105.5ZM122 380.5H114.5V382.5H122V380.5ZM96.5 398.5H89V400.5H96.5V398.5ZM104.5 390.5C104.5 394.918 100.918 398.5 96.5 398.5V400.5C102.023 400.5 106.5 396.023 106.5 390.5H104.5ZM114.5 380.5C108.977 380.5 104.5 384.977 104.5 390.5H106.5C106.5 386.082 110.082 382.5 114.5 382.5V380.5Z" fill="#333333"/>
<g filter="url(#filter2_d_26_418)">
<rect x="126" y="406" width="70" height="21" rx="7" fill="white"/>
<text fill="black" xml:space="preserve" style="white-space: pre" font-family="Barlow Condensed" font-size="8" letter-spacing="0em"><tspan x="147.437" y="415.3">Staatliche &#10;</tspan><tspan x="140.062" y="423.3">F&#xf6;rder</tspan></text>
<text fill="black" xml:space="preserve" style="white-space: pre" font-family="Barlow Condensed" font-size="8" font-weight="bold" letter-spacing="0em"><tspan x="156.969" y="423.3">f&#xe4;higkeit</tspan></text>
</g>
<path d="M88.2929 398.793C87.9024 399.183 87.9024 399.817 88.2929 400.207L94.6569 406.571C95.0474 406.962 95.6805 406.962 96.0711 406.571C96.4616 406.181 96.4616 405.547 96.0711 405.157L90.4142 399.5L96.0711 393.843C96.4616 393.453 96.4616 392.819 96.0711 392.429C95.6805 392.038 95.0474 392.038 94.6569 392.429L88.2929 398.793ZM105.5 408H106.5H105.5ZM105.5 408H106.5H105.5ZM122 415.5H114V417.5H122V415.5ZM97 398.5H89V400.5H97V398.5ZM106.5 408C106.5 402.753 102.247 398.5 97 398.5V400.5C101.142 400.5 104.5 403.858 104.5 408H106.5ZM114 415.5C109.858 415.5 106.5 412.142 106.5 408H104.5C104.5 413.247 108.753 417.5 114 417.5V415.5Z" fill="#333333"/>
<g opacity="0.25">
<mask id="path-14-inside-3_26_418" fill="white">
<path d="M-7 273H217V357H-7V273Z"/>
</mask>
<path d="M-7 273H217V357H-7V273Z" fill="#58ACF2"/>
<path d="M-7 273V266H-14V273H-7ZM217 273H224V266H217V273ZM217 357V364H224V357H217ZM-7 357H-14V364H-7V357ZM-7 280H217V266H-7V280ZM210 273V357H224V273H210ZM217 350H-7V364H217V350ZM0 357V273H-14V357H0Z" fill="white" mask="url(#path-14-inside-3_26_418)"/>
</g>
<g opacity="0.5">
<mask id="path-16-inside-4_26_418" fill="white">
<path d="M-7 105H217V273H-7V105Z"/>
</mask>
<path d="M-7 105H217V273H-7V105Z" fill="#58ACF2"/>
<path d="M-7 105V98H-14V105H-7ZM217 105H224V98H217V105ZM217 273V280H224V273H217ZM-7 273H-14V280H-7V273ZM-7 112H217V98H-7V112ZM210 105V273H224V105H210ZM217 266H-7V280H217V266ZM0 273V105H-14V273H0Z" fill="white" mask="url(#path-16-inside-4_26_418)"/>
</g>
<g filter="url(#filter3_d_26_418)">
<rect x="119" y="146.204" width="84" height="28" rx="7" fill="white"/>
<text fill="black" fill-opacity="0.8" xml:space="preserve" style="white-space: pre" font-family="Barlow Condensed" font-size="8" letter-spacing="0em"><tspan x="127.941" y="159.004">Partizipation-Ma&#xdf;nahmen&#10;</tspan></text>
<text fill="black" fill-opacity="0.8" xml:space="preserve" style="white-space: pre" font-family="Barlow Condensed" font-size="8" font-weight="bold" letter-spacing="0em"><tspan x="143.508" y="167.004">durchf&#xfc;hren</tspan></text>
</g>
<g filter="url(#filter4_d_26_418)">
<rect x="7" y="134.864" width="84" height="28" rx="7" fill="white"/>
<text fill="black" fill-opacity="0.8" xml:space="preserve" style="white-space: pre" font-family="Barlow Condensed" font-size="8" letter-spacing="0em"><tspan x="14.4961" y="147.664">Partizipations-Ma&#xdf;nahmen </tspan></text>
<text fill="black" fill-opacity="0.8" xml:space="preserve" style="white-space: pre" font-family="Barlow Condensed" font-size="8" font-weight="bold" letter-spacing="0em"><tspan x="35.0391" y="155.664">bewerben</tspan></text>
</g>
<g filter="url(#filter5_d_26_418)">
<rect x="17" y="189.5" width="63" height="14" fill="white" fill-opacity="0.8"/>
<text fill="black" fill-opacity="0.8" xml:space="preserve" style="white-space: pre" font-family="Barlow Condensed" font-size="6" font-weight="500" letter-spacing="0em"><tspan x="19.6631" y="198.6">Microsite zu </tspan><tspan x="77.3369" y="198.6"> </tspan></text>
<text fill="black" fill-opacity="0.8" xml:space="preserve" style="white-space: pre" font-family="Barlow Condensed" font-size="6" font-weight="bold" letter-spacing="0em"><tspan x="44.5889" y="198.6">Besichtigungen</tspan></text>
</g>
<path d="M49.1768 167.19C49.0791 167.093 48.9209 167.093 48.8232 167.19L47.2322 168.781C47.1346 168.879 47.1346 169.037 47.2322 169.135C47.3299 169.233 47.4882 169.233 47.5858 169.135L49 167.721L50.4142 169.135C50.5118 169.233 50.6701 169.233 50.7678 169.135C50.8654 169.037 50.8654 168.879 50.7678 168.781L49.1768 167.19ZM49.25 183.861L49.25 183.361L48.75 183.361L48.75 183.861L49.25 183.861ZM49.25 182.861L49.25 181.862L48.75 181.862L48.75 182.861L49.25 182.861ZM49.25 181.362L49.25 180.362L48.75 180.362L48.75 181.362L49.25 181.362ZM49.25 179.863L49.25 178.863L48.75 178.863L48.75 179.863L49.25 179.863ZM49.25 178.363L49.25 177.364L48.75 177.364L48.75 178.363L49.25 178.363ZM49.25 176.864L49.25 175.864L48.75 175.864L48.75 176.864L49.25 176.864ZM49.25 175.364L49.25 174.365L48.75 174.365L48.75 175.364L49.25 175.364ZM49.25 173.865L49.25 172.865L48.75 172.865L48.75 173.865L49.25 173.865ZM49.25 172.365L49.25 171.366L48.75 171.366L48.75 172.365L49.25 172.365ZM49.25 170.866L49.25 169.866L48.75 169.866L48.75 170.866L49.25 170.866ZM49.25 169.367L49.25 168.367L48.75 168.367L48.75 169.367L49.25 169.367ZM49.25 167.867L49.25 167.367L48.75 167.367L48.75 167.867L49.25 167.867ZM49.1768 167.19C49.0791 167.093 48.9209 167.093 48.8232 167.19L47.2322 168.781C47.1346 168.879 47.1346 169.037 47.2322 169.135C47.3299 169.233 47.4882 169.233 47.5858 169.135L49 167.721L50.4142 169.135C50.5118 169.233 50.6701 169.233 50.7678 169.135C50.8654 169.037 50.8654 168.879 50.7678 168.781L49.1768 167.19ZM49.25 183.861L49.25 183.361L48.75 183.361L48.75 183.861L49.25 183.861ZM49.25 182.861L49.25 181.862L48.75 181.862L48.75 182.861L49.25 182.861ZM49.25 181.362L49.25 180.362L48.75 180.362L48.75 181.362L49.25 181.362ZM49.25 179.863L49.25 178.863L48.75 178.863L48.75 179.863L49.25 179.863ZM49.25 178.363L49.25 177.364L48.75 177.364L48.75 178.363L49.25 178.363ZM49.25 176.864L49.25 175.864L48.75 175.864L48.75 176.864L49.25 176.864ZM49.25 175.364L49.25 174.365L48.75 174.365L48.75 175.364L49.25 175.364ZM49.25 173.865L49.25 172.865L48.75 172.865L48.75 173.865L49.25 173.865ZM49.25 172.365L49.25 171.366L48.75 171.366L48.75 172.365L49.25 172.365ZM49.25 170.866L49.25 169.866L48.75 169.866L48.75 170.866L49.25 170.866ZM49.25 169.367L49.25 168.367L48.75 168.367L48.75 169.367L49.25 169.367ZM49.25 167.867L49.25 167.367L48.75 167.367L48.75 167.867L49.25 167.867Z" fill="#333333"/>
<g opacity="0.75">
<mask id="path-25-inside-5_26_418" fill="white">
<path d="M-7 -7H217V105H-7V-7Z"/>
</mask>
<path d="M-7 -7H217V105H-7V-7Z" fill="#58ACF2"/>
<path d="M-7 -7V-14H-14V-7H-7ZM217 -7H224V-14H217V-7ZM217 105V112H224V105H217ZM-7 105H-14V112H-7V105ZM-7 0H217V-14H-7V0ZM210 -7V105H224V-7H210ZM217 98H-7V112H217V98ZM0 105V-7H-14V105H0Z" fill="white" mask="url(#path-25-inside-5_26_418)"/>
</g>
<g filter="url(#filter6_d_26_418)">
<rect x="112" y="54" width="84" height="21" rx="7" fill="white"/>
<text fill="black" fill-opacity="0.8" xml:space="preserve" style="white-space: pre" font-family="Barlow Condensed" font-size="8" letter-spacing="0em"><tspan x="116.539" y="63.3">Gest&#xe4;rkte </tspan><tspan x="157.301" y="71.3"> von F&#38;T</tspan></text>
<text fill="black" fill-opacity="0.8" xml:space="preserve" style="white-space: pre" font-family="Barlow Condensed" font-size="8" font-weight="bold" letter-spacing="0em"><tspan x="143.047" y="63.3">gesellschaftliche </tspan><tspan x="128.121" y="71.3">Akzeptanz</tspan></text>
</g>
<g filter="url(#filter7_d_26_418)">
<rect x="14" y="54" width="84" height="21" rx="7" fill="white"/>
<text fill="black" fill-opacity="0.8" xml:space="preserve" style="white-space: pre" font-family="Barlow Condensed" font-size="8" letter-spacing="0em"><tspan x="18.6875" y="63.3">Erh&#xf6;hte </tspan><tspan x="93.3125" y="63.3"> </tspan><tspan x="16.8594" y="71.3">bei Sch&#xfc;lerinnen und Sch&#xfc;lern</tspan></text>
<text fill="black" fill-opacity="0.8" xml:space="preserve" style="white-space: pre" font-family="Barlow Condensed" font-size="8" font-weight="bold" letter-spacing="0em"><tspan x="40.2578" y="63.3">MINT-Begeisterung</tspan></text>
</g>
<path d="M199.293 380.793C198.902 381.183 198.902 381.817 199.293 382.207L205.657 388.571C206.047 388.962 206.681 388.962 207.071 388.571C207.462 388.181 207.462 387.547 207.071 387.157L201.414 381.5L207.071 375.843C207.462 375.453 207.462 374.819 207.071 374.429C206.681 374.038 206.047 374.038 205.657 374.429L199.293 380.793ZM153 79V106.266H155V79H153ZM178 131.266H193V129.266H178V131.266ZM216 154.266V364.5H218V154.266H216ZM216 364.5C216 373.337 208.837 380.5 200 380.5V382.5C209.941 382.5 218 374.441 218 364.5H216ZM193 131.266C205.703 131.266 216 141.563 216 154.266H218C218 140.459 206.807 129.266 193 129.266V131.266ZM153 106.266C153 120.073 164.193 131.266 178 131.266V129.266C165.297 129.266 155 118.968 155 106.266H153Z" fill="#333333"/>
<defs>
<filter id="filter0_d_26_418" x="11" y="385" width="78" height="29" filterUnits="userSpaceOnUse" color-interpolation-filters="sRGB">
<feFlood flood-opacity="0" result="BackgroundImageFix"/>
<feColorMatrix in="SourceAlpha" type="matrix" values="0 0 0 0 0 0 0 0 0 0 0 0 0 0 0 0 0 0 127 0" result="hardAlpha"/>
<feOffset/>
<feGaussianBlur stdDeviation="2"/>
<feComposite in2="hardAlpha" operator="out"/>
<feColorMatrix type="matrix" values="0 0 0 0 0 0 0 0 0 0 0 0 0 0 0 0 0 0 0.25 0"/>
<feBlend mode="normal" in2="BackgroundImageFix" result="effect1_dropShadow_26_418"/>
<feBlend mode="normal" in="SourceGraphic" in2="effect1_dropShadow_26_418" result="shape"/>
</filter>
<filter id="filter1_d_26_418" x="122" y="367" width="78" height="29" filterUnits="userSpaceOnUse" color-interpolation-filters="sRGB">
<feFlood flood-opacity="0" result="BackgroundImageFix"/>
<feColorMatrix in="SourceAlpha" type="matrix" values="0 0 0 0 0 0 0 0 0 0 0 0 0 0 0 0 0 0 127 0" result="hardAlpha"/>
<feOffset/>
<feGaussianBlur stdDeviation="2"/>
<feComposite in2="hardAlpha" operator="out"/>
<feColorMatrix type="matrix" values="0 0 0 0 0 0 0 0 0 0 0 0 0 0 0 0 0 0 0.25 0"/>
<feBlend mode="normal" in2="BackgroundImageFix" result="effect1_dropShadow_26_418"/>
<feBlend mode="normal" in="SourceGraphic" in2="effect1_dropShadow_26_418" result="shape"/>
</filter>
<filter id="filter2_d_26_418" x="122" y="402" width="78" height="29" filterUnits="userSpaceOnUse" color-interpolation-filters="sRGB">
<feFlood flood-opacity="0" result="BackgroundImageFix"/>
<feColorMatrix in="SourceAlpha" type="matrix" values="0 0 0 0 0 0 0 0 0 0 0 0 0 0 0 0 0 0 127 0" result="hardAlpha"/>
<feOffset/>
<feGaussianBlur stdDeviation="2"/>
<feComposite in2="hardAlpha" operator="out"/>
<feColorMatrix type="matrix" values="0 0 0 0 0 0 0 0 0 0 0 0 0 0 0 0 0 0 0.25 0"/>
<feBlend mode="normal" in2="BackgroundImageFix" result="effect1_dropShadow_26_418"/>
<feBlend mode="normal" in="SourceGraphic" in2="effect1_dropShadow_26_418" result="shape"/>
</filter>
<filter id="filter3_d_26_418" x="115" y="142.204" width="92" height="36" filterUnits="userSpaceOnUse" color-interpolation-filters="sRGB">
<feFlood flood-opacity="0" result="BackgroundImageFix"/>
<feColorMatrix in="SourceAlpha" type="matrix" values="0 0 0 0 0 0 0 0 0 0 0 0 0 0 0 0 0 0 127 0" result="hardAlpha"/>
<feOffset/>
<feGaussianBlur stdDeviation="2"/>
<feComposite in2="hardAlpha" operator="out"/>
<feColorMatrix type="matrix" values="0 0 0 0 0 0 0 0 0 0 0 0 0 0 0 0 0 0 0.25 0"/>
<feBlend mode="normal" in2="BackgroundImageFix" result="effect1_dropShadow_26_418"/>
<feBlend mode="normal" in="SourceGraphic" in2="effect1_dropShadow_26_418" result="shape"/>
</filter>
<filter id="filter4_d_26_418" x="3" y="130.864" width="92" height="36" filterUnits="userSpaceOnUse" color-interpolation-filters="sRGB">
<feFlood flood-opacity="0" result="BackgroundImageFix"/>
<feColorMatrix in="SourceAlpha" type="matrix" values="0 0 0 0 0 0 0 0 0 0 0 0 0 0 0 0 0 0 127 0" result="hardAlpha"/>
<feOffset/>
<feGaussianBlur stdDeviation="2"/>
<feComposite in2="hardAlpha" operator="out"/>
<feColorMatrix type="matrix" values="0 0 0 0 0 0 0 0 0 0 0 0 0 0 0 0 0 0 0.25 0"/>
<feBlend mode="normal" in2="BackgroundImageFix" result="effect1_dropShadow_26_418"/>
<feBlend mode="normal" in="SourceGraphic" in2="effect1_dropShadow_26_418" result="shape"/>
</filter>
<filter id="filter5_d_26_418" x="10" y="182.5" width="77" height="28" filterUnits="userSpaceOnUse" color-interpolation-filters="sRGB">
<feFlood flood-opacity="0" result="BackgroundImageFix"/>
<feColorMatrix in="SourceAlpha" type="matrix" values="0 0 0 0 0 0 0 0 0 0 0 0 0 0 0 0 0 0 127 0" result="hardAlpha"/>
<feOffset/>
<feGaussianBlur stdDeviation="3.5"/>
<feComposite in2="hardAlpha" operator="out"/>
<feColorMatrix type="matrix" values="0 0 0 0 0 0 0 0 0 0 0 0 0 0 0 0 0 0 0.25 0"/>
<feBlend mode="normal" in2="BackgroundImageFix" result="effect1_dropShadow_26_418"/>
<feBlend mode="normal" in="SourceGraphic" in2="effect1_dropShadow_26_418" result="shape"/>
</filter>
<filter id="filter6_d_26_418" x="108" y="50" width="92" height="29" filterUnits="userSpaceOnUse" color-interpolation-filters="sRGB">
<feFlood flood-opacity="0" result="BackgroundImageFix"/>
<feColorMatrix in="SourceAlpha" type="matrix" values="0 0 0 0 0 0 0 0 0 0 0 0 0 0 0 0 0 0 127 0" result="hardAlpha"/>
<feOffset/>
<feGaussianBlur stdDeviation="2"/>
<feComposite in2="hardAlpha" operator="out"/>
<feColorMatrix type="matrix" values="0 0 0 0 0 0 0 0 0 0 0 0 0 0 0 0 0 0 0.25 0"/>
<feBlend mode="normal" in2="BackgroundImageFix" result="effect1_dropShadow_26_418"/>
<feBlend mode="normal" in="SourceGraphic" in2="effect1_dropShadow_26_418" result="shape"/>
</filter>
<filter id="filter7_d_26_418" x="10" y="50" width="92" height="29" filterUnits="userSpaceOnUse" color-interpolation-filters="sRGB">
<feFlood flood-opacity="0" result="BackgroundImageFix"/>
<feColorMatrix in="SourceAlpha" type="matrix" values="0 0 0 0 0 0 0 0 0 0 0 0 0 0 0 0 0 0 127 0" result="hardAlpha"/>
<feOffset/>
<feGaussianBlur stdDeviation="2"/>
<feComposite in2="hardAlpha" operator="out"/>
<feColorMatrix type="matrix" values="0 0 0 0 0 0 0 0 0 0 0 0 0 0 0 0 0 0 0.25 0"/>
<feBlend mode="normal" in2="BackgroundImageFix" result="effect1_dropShadow_26_418"/>
<feBlend mode="normal" in="SourceGraphic" in2="effect1_dropShadow_26_418" result="shape"/>
</filter>
</defs>
</svg>
