<svg width="210" height="490" viewBox="0 0 210 490" fill="none" xmlns="http://www.w3.org/2000/svg">
<path d="M57.1868 203.293C56.7963 202.902 56.1632 202.902 55.7726 203.293L49.4087 209.657C49.0181 210.047 49.0181 210.681 49.4087 211.071C49.7992 211.462 50.4324 211.462 50.8229 211.071L56.4797 205.414L62.1366 211.071C62.5271 211.462 63.1603 211.462 63.5508 211.071C63.9413 210.681 63.9413 210.047 63.5508 209.657L57.1868 203.293ZM57.4797 318.543V204H55.4797V318.543H57.4797ZM58.9368 320C58.1321 320 57.4797 319.348 57.4797 318.543H55.4797C55.4797 320.452 57.0275 322 58.9368 322V320Z" fill="#333333"/>
<path d="M156.401 53.2215C156.011 52.831 155.378 52.831 154.987 53.2215L148.623 59.5854C148.232 59.976 148.232 60.6091 148.623 60.9997C149.014 61.3902 149.647 61.3902 150.037 60.9997L155.694 55.3428L161.351 60.9997C161.741 61.3902 162.375 61.3902 162.765 60.9997C163.156 60.6091 163.156 59.976 162.765 59.5854L156.401 53.2215ZM156.694 175V53.9286H154.694V175H156.694Z" fill="#333333"/>
<path d="M150.293 397.893C149.902 398.284 149.902 398.917 150.293 399.307L156.657 405.671C157.047 406.062 157.681 406.062 158.071 405.671C158.462 405.281 158.462 404.647 158.071 404.257L152.414 398.6L158.071 392.943C158.462 392.553 158.462 391.92 158.071 391.529C157.681 391.138 157.047 391.138 156.657 391.529L150.293 397.893ZM102 75.5H181V73.5H102V75.5ZM204 98.5V374.6H206V98.5H204ZM181 397.6H151V399.6H181V397.6ZM204 374.6C204 387.303 193.703 397.6 181 397.6V399.6C194.807 399.6 206 388.407 206 374.6H204ZM181 75.5C193.703 75.5 204 85.7974 204 98.5H206C206 84.6929 194.807 73.5 181 73.5V75.5Z" fill="#333333"/>
<path d="M150.293 397.893C149.902 398.283 149.902 398.917 150.293 399.307L156.657 405.671C157.047 406.062 157.681 406.062 158.071 405.671C158.462 405.281 158.462 404.647 158.071 404.257L152.414 398.6L158.071 392.943C158.462 392.553 158.462 391.92 158.071 391.529C157.681 391.138 157.047 391.138 156.657 391.529L150.293 397.893ZM55 45.9285V65.1104H57V45.9285H55ZM80 90.1104H181V88.1104H80V90.1104ZM204 113.11V374.6H206V113.11H204ZM181 397.6H151V399.6H181V397.6ZM204 374.6C204 387.303 193.703 397.6 181 397.6V399.6C194.807 399.6 206 388.407 206 374.6H204ZM181 90.1104C193.703 90.1104 204 100.408 204 113.11H206C206 99.3033 194.807 88.1104 181 88.1104V90.1104ZM55 65.1104C55 78.9175 66.1929 90.1104 80 90.1104V88.1104C67.2975 88.1104 57 77.8129 57 65.1104H55Z" fill="#333333"/>
<path d="M10.4797 189.5V189.5C8.00571 189.5 6.00012 187.494 6.00012 185.02V113.11C6.00012 99.8555 16.7453 89.1104 30.0001 89.1104H32C45.2548 89.1104 56 78.3652 56 65.1104V45.9285" stroke="#333333" stroke-width="2" stroke-linejoin="bevel"/>
<mask id="path-6-inside-1_26_292" fill="white">
<path d="M-7 441H217V499H-7V441Z"/>
</mask>
<path d="M-7 441H217V499H-7V441Z" fill="#B394F4"/>
<path d="M-7 441V434H-14V441H-7ZM217 441H224V434H217V441ZM217 499V506H224V499H217ZM-7 499H-14V506H-7V499ZM-7 448H217V434H-7V448ZM210 441V499H224V441H210ZM217 492H-7V506H217V492ZM0 499V441H-14V499H0Z" fill="white" mask="url(#path-6-inside-1_26_292)"/>
<text fill="black" xml:space="preserve" style="white-space: pre" font-family="Barlow Condensed" font-size="14" font-weight="bold" letter-spacing="0.07em"><tspan x="75.4269" y="472.8">INDUSTRIE</tspan></text>
<g opacity="0.1">
<mask id="path-9-inside-2_26_292" fill="white">
<path d="M-7 357H217V441H-7V357Z"/>
</mask>
<path d="M-7 357H217V441H-7V357Z" fill="#B394F4"/>
<path d="M-7 357V350H-14V357H-7ZM217 357H224V350H217V357ZM217 441V448H224V441H217ZM-7 441H-14V448H-7V441ZM-7 364H217V350H-7V364ZM210 357V441H224V357H210ZM217 434H-7V448H217V434ZM0 441V357H-14V441H0Z" fill="white" mask="url(#path-9-inside-2_26_292)"/>
</g>
<g filter="url(#filter0_d_26_292)">
<rect x="63" y="386" width="84" height="25.2" rx="7" fill="white"/>
<text fill="black" xml:space="preserve" style="white-space: pre" font-family="Barlow Condensed" font-size="8" font-weight="bold" letter-spacing="0em"><tspan x="78.9727" y="401.4">Steueraufkommen</tspan></text>
</g>
<g opacity="0.25">
<mask id="path-13-inside-3_26_292" fill="white">
<path d="M-7 273H217V357H-7V273Z"/>
</mask>
<path d="M-7 273H217V357H-7V273Z" fill="#B394F4"/>
<path d="M-7 273V266H-14V273H-7ZM217 273H224V266H217V273ZM217 357V364H224V357H217ZM-7 357H-14V364H-7V357ZM-7 280H217V266H-7V280ZM210 273V357H224V273H210ZM217 350H-7V364H217V350ZM0 357V273H-14V357H0Z" fill="white" mask="url(#path-13-inside-3_26_292)"/>
</g>
<g filter="url(#filter1_d_26_292)">
<rect x="62.9368" y="307" width="85.1403" height="28" rx="7" fill="white"/>
<text fill="black" xml:space="preserve" style="white-space: pre" font-family="Barlow Condensed" font-size="8" font-weight="bold" letter-spacing="0em"><tspan x="69.4717" y="319.8">Kommerzielle Bedeutung &#x2028;</tspan></text>
<text fill="black" xml:space="preserve" style="white-space: pre" font-family="Barlow Condensed" font-size="8" letter-spacing="0em"><tspan x="83.0772" y="327.8">der BT </tspan></text>
<text fill="black" xml:space="preserve" style="white-space: pre" font-family="Barlow Condensed" font-size="8" font-weight="bold" letter-spacing="0em"><tspan x="101.39" y="327.8">erkennen</tspan></text>
</g>
<g opacity="0.5">
<mask id="path-17-inside-4_26_292" fill="white">
<path d="M-7 105H217V273H-7V105Z"/>
</mask>
<path d="M-7 105H217V273H-7V105Z" fill="#B394F4"/>
<path d="M-7 105V98H-14V105H-7ZM217 105H224V98H217V105ZM217 273V280H224V273H217ZM-7 273H-14V280H-7V273ZM-7 112H217V98H-7V112ZM210 105V273H224V105H210ZM217 266H-7V280H217V266ZM0 273V105H-14V273H0Z" fill="white" mask="url(#path-17-inside-4_26_292)"/>
</g>
<g filter="url(#filter2_d_26_292)">
<rect x="25.7306" y="149" width="63" height="14" fill="white" fill-opacity="0.8"/>
<text fill="black" fill-opacity="0.8" xml:space="preserve" style="white-space: pre" font-family="Barlow Condensed" font-size="6" font-weight="500" letter-spacing="0em"><tspan x="41.6915" y="155.1">Lehrmodul zum </tspan><tspan x="33.1046" y="161.1">kommerziellen Potential</tspan></text>
</g>
<g filter="url(#filter3_d_26_292)">
<rect x="14.4797" y="179" width="84" height="21" rx="7" fill="white"/>
<text fill="black" xml:space="preserve" style="white-space: pre" font-family="Barlow Condensed" font-size="8" letter-spacing="0em"><tspan x="53.3704" y="196.3">vermitteln</tspan></text>
<text fill="black" xml:space="preserve" style="white-space: pre" font-family="Barlow Condensed" font-size="8" font-weight="bold" letter-spacing="0em"><tspan x="21.2454" y="188.3">Kommerzielle Bedeutung </tspan><tspan x="33.4407" y="196.3">der BT </tspan></text>
</g>
<g filter="url(#filter4_d_26_292)">
<rect x="113.694" y="179" width="84" height="21" rx="7" fill="white"/>
<text fill="black" fill-opacity="0.8" xml:space="preserve" style="white-space: pre" font-family="Barlow Condensed" font-size="8" letter-spacing="0em"><tspan x="117.925" y="192.3">Anbietermonopole vermeiden</tspan></text>
</g>
<g opacity="0.75">
<mask id="path-25-inside-5_26_292" fill="white">
<path d="M-7 -7H217V105H-7V-7Z"/>
</mask>
<path d="M-7 -7H217V105H-7V-7Z" fill="#B394F4"/>
<path d="M-7 -7V-14H-14V-7H-7ZM217 -7H224V-14H217V-7ZM217 105V112H224V105H217ZM-7 105H-14V112H-7V105ZM-7 0H217V-14H-7V0ZM210 -7V105H224V-7H210ZM217 98H-7V112H217V98ZM0 105V-7H-14V105H0Z" fill="white" mask="url(#path-25-inside-5_26_292)"/>
</g>
<g filter="url(#filter5_d_26_292)">
<rect x="113.694" y="28.9286" width="84" height="21" rx="7" fill="white"/>
<text fill="black" fill-opacity="0.8" xml:space="preserve" style="white-space: pre" font-family="Barlow Condensed" font-size="8" letter-spacing="0em"><tspan x="126.354" y="38.2286">Kostenreduktion durch </tspan><tspan x="128.593" y="46.2286">Anbieter-Wettbewerb</tspan></text>
</g>
<g filter="url(#filter6_d_26_292)">
<rect x="14" y="20.9285" width="84" height="21" rx="7" fill="white"/>
<text fill="black" fill-opacity="0.8" xml:space="preserve" style="white-space: pre" font-family="Barlow Condensed" font-size="8" font-weight="bold" letter-spacing="0em"><tspan x="23.9531" y="30.2285">St&#xe4;rkere kommerzielle </tspan><tspan x="29.0977" y="38.2285">Nutzung</tspan></text>
<text fill="black" fill-opacity="0.8" xml:space="preserve" style="white-space: pre" font-family="Barlow Condensed" font-size="8" letter-spacing="0em"><tspan x="52.4727" y="38.2285"> von BT in D</tspan></text>
</g>
<g filter="url(#filter7_d_26_292)">
<rect x="14" y="64" width="84" height="21" rx="7" fill="white"/>
<text fill="black" fill-opacity="0.8" xml:space="preserve" style="white-space: pre" font-family="Barlow Condensed" font-size="8" font-weight="bold" letter-spacing="0em"><tspan x="31.9688" y="73.3">Hochqualifizierte </tspan><tspan x="17.3633" y="81.3">Fachkr&#xe4;fte</tspan></text>
<text fill="black" fill-opacity="0.8" xml:space="preserve" style="white-space: pre" font-family="Barlow Condensed" font-size="8" letter-spacing="0em"><tspan x="47.9805" y="81.3"> f&#xfc;r die Wirtschaft</tspan></text>
</g>
<defs>
<filter id="filter0_d_26_292" x="59" y="382" width="92" height="33.2" filterUnits="userSpaceOnUse" color-interpolation-filters="sRGB">
<feFlood flood-opacity="0" result="BackgroundImageFix"/>
<feColorMatrix in="SourceAlpha" type="matrix" values="0 0 0 0 0 0 0 0 0 0 0 0 0 0 0 0 0 0 127 0" result="hardAlpha"/>
<feOffset/>
<feGaussianBlur stdDeviation="2"/>
<feComposite in2="hardAlpha" operator="out"/>
<feColorMatrix type="matrix" values="0 0 0 0 0 0 0 0 0 0 0 0 0 0 0 0 0 0 0.25 0"/>
<feBlend mode="normal" in2="BackgroundImageFix" result="effect1_dropShadow_26_292"/>
<feBlend mode="normal" in="SourceGraphic" in2="effect1_dropShadow_26_292" result="shape"/>
</filter>
<filter id="filter1_d_26_292" x="58.9368" y="303" width="93.1403" height="36" filterUnits="userSpaceOnUse" color-interpolation-filters="sRGB">
<feFlood flood-opacity="0" result="BackgroundImageFix"/>
<feColorMatrix in="SourceAlpha" type="matrix" values="0 0 0 0 0 0 0 0 0 0 0 0 0 0 0 0 0 0 127 0" result="hardAlpha"/>
<feOffset/>
<feGaussianBlur stdDeviation="2"/>
<feComposite in2="hardAlpha" operator="out"/>
<feColorMatrix type="matrix" values="0 0 0 0 0 0 0 0 0 0 0 0 0 0 0 0 0 0 0.25 0"/>
<feBlend mode="normal" in2="BackgroundImageFix" result="effect1_dropShadow_26_292"/>
<feBlend mode="normal" in="SourceGraphic" in2="effect1_dropShadow_26_292" result="shape"/>
</filter>
<filter id="filter2_d_26_292" x="18.7306" y="142" width="77" height="28" filterUnits="userSpaceOnUse" color-interpolation-filters="sRGB">
<feFlood flood-opacity="0" result="BackgroundImageFix"/>
<feColorMatrix in="SourceAlpha" type="matrix" values="0 0 0 0 0 0 0 0 0 0 0 0 0 0 0 0 0 0 127 0" result="hardAlpha"/>
<feOffset/>
<feGaussianBlur stdDeviation="3.5"/>
<feComposite in2="hardAlpha" operator="out"/>
<feColorMatrix type="matrix" values="0 0 0 0 0 0 0 0 0 0 0 0 0 0 0 0 0 0 0.25 0"/>
<feBlend mode="normal" in2="BackgroundImageFix" result="effect1_dropShadow_26_292"/>
<feBlend mode="normal" in="SourceGraphic" in2="effect1_dropShadow_26_292" result="shape"/>
</filter>
<filter id="filter3_d_26_292" x="10.4797" y="175" width="92" height="29" filterUnits="userSpaceOnUse" color-interpolation-filters="sRGB">
<feFlood flood-opacity="0" result="BackgroundImageFix"/>
<feColorMatrix in="SourceAlpha" type="matrix" values="0 0 0 0 0 0 0 0 0 0 0 0 0 0 0 0 0 0 127 0" result="hardAlpha"/>
<feOffset/>
<feGaussianBlur stdDeviation="2"/>
<feComposite in2="hardAlpha" operator="out"/>
<feColorMatrix type="matrix" values="0 0 0 0 0 0 0 0 0 0 0 0 0 0 0 0 0 0 0.25 0"/>
<feBlend mode="normal" in2="BackgroundImageFix" result="effect1_dropShadow_26_292"/>
<feBlend mode="normal" in="SourceGraphic" in2="effect1_dropShadow_26_292" result="shape"/>
</filter>
<filter id="filter4_d_26_292" x="109.694" y="175" width="92" height="29" filterUnits="userSpaceOnUse" color-interpolation-filters="sRGB">
<feFlood flood-opacity="0" result="BackgroundImageFix"/>
<feColorMatrix in="SourceAlpha" type="matrix" values="0 0 0 0 0 0 0 0 0 0 0 0 0 0 0 0 0 0 127 0" result="hardAlpha"/>
<feOffset/>
<feGaussianBlur stdDeviation="2"/>
<feComposite in2="hardAlpha" operator="out"/>
<feColorMatrix type="matrix" values="0 0 0 0 0 0 0 0 0 0 0 0 0 0 0 0 0 0 0.25 0"/>
<feBlend mode="normal" in2="BackgroundImageFix" result="effect1_dropShadow_26_292"/>
<feBlend mode="normal" in="SourceGraphic" in2="effect1_dropShadow_26_292" result="shape"/>
</filter>
<filter id="filter5_d_26_292" x="109.694" y="24.9286" width="92" height="29" filterUnits="userSpaceOnUse" color-interpolation-filters="sRGB">
<feFlood flood-opacity="0" result="BackgroundImageFix"/>
<feColorMatrix in="SourceAlpha" type="matrix" values="0 0 0 0 0 0 0 0 0 0 0 0 0 0 0 0 0 0 127 0" result="hardAlpha"/>
<feOffset/>
<feGaussianBlur stdDeviation="2"/>
<feComposite in2="hardAlpha" operator="out"/>
<feColorMatrix type="matrix" values="0 0 0 0 0 0 0 0 0 0 0 0 0 0 0 0 0 0 0.25 0"/>
<feBlend mode="normal" in2="BackgroundImageFix" result="effect1_dropShadow_26_292"/>
<feBlend mode="normal" in="SourceGraphic" in2="effect1_dropShadow_26_292" result="shape"/>
</filter>
<filter id="filter6_d_26_292" x="10" y="16.9285" width="92" height="29" filterUnits="userSpaceOnUse" color-interpolation-filters="sRGB">
<feFlood flood-opacity="0" result="BackgroundImageFix"/>
<feColorMatrix in="SourceAlpha" type="matrix" values="0 0 0 0 0 0 0 0 0 0 0 0 0 0 0 0 0 0 127 0" result="hardAlpha"/>
<feOffset/>
<feGaussianBlur stdDeviation="2"/>
<feComposite in2="hardAlpha" operator="out"/>
<feColorMatrix type="matrix" values="0 0 0 0 0 0 0 0 0 0 0 0 0 0 0 0 0 0 0.25 0"/>
<feBlend mode="normal" in2="BackgroundImageFix" result="effect1_dropShadow_26_292"/>
<feBlend mode="normal" in="SourceGraphic" in2="effect1_dropShadow_26_292" result="shape"/>
</filter>
<filter id="filter7_d_26_292" x="10" y="60" width="92" height="29" filterUnits="userSpaceOnUse" color-interpolation-filters="sRGB">
<feFlood flood-opacity="0" result="BackgroundImageFix"/>
<feColorMatrix in="SourceAlpha" type="matrix" values="0 0 0 0 0 0 0 0 0 0 0 0 0 0 0 0 0 0 127 0" result="hardAlpha"/>
<feOffset/>
<feGaussianBlur stdDeviation="2"/>
<feComposite in2="hardAlpha" operator="out"/>
<feColorMatrix type="matrix" values="0 0 0 0 0 0 0 0 0 0 0 0 0 0 0 0 0 0 0.25 0"/>
<feBlend mode="normal" in2="BackgroundImageFix" result="effect1_dropShadow_26_292"/>
<feBlend mode="normal" in="SourceGraphic" in2="effect1_dropShadow_26_292" result="shape"/>
</filter>
</defs>
</svg>
