<svg width="210" height="490" viewBox="0 0 210 490" fill="none" xmlns="http://www.w3.org/2000/svg">
<mask id="path-1-inside-1_24_218" fill="white">
<path d="M-7 441H217V499H-7V441Z"/>
</mask>
<path d="M-7 441H217V499H-7V441Z" fill="#97B14C"/>
<path d="M-7 441V434H-14V441H-7ZM217 441H224V434H217V441ZM217 499V506H224V499H217ZM-7 499H-14V506H-7V499ZM-7 448H217V434H-7V448ZM210 441V499H224V441H210ZM217 492H-7V506H217V492ZM0 499V441H-14V499H0Z" fill="white" mask="url(#path-1-inside-1_24_218)"/>
<text fill="black" xml:space="preserve" style="white-space: pre" font-family="Barlow Condensed" font-size="14" font-weight="bold" letter-spacing="0.07em"><tspan x="33.9055" y="467.8">EIGENST&#xc4;NDIGKEIT UND </tspan><tspan x="57.6429" y="481.8">FACHKLICHKEIT</tspan></text>
<g opacity="0.5">
<mask id="path-4-inside-2_24_218" fill="white">
<path d="M-7 273H217V357H-7V273Z"/>
</mask>
<path d="M-7 273H217V357H-7V273Z" fill="#97B14C"/>
<path d="M-7 273V266H-14V273H-7ZM217 273H224V266H217V273ZM217 357V364H224V357H217ZM-7 357H-14V364H-7V357ZM-7 280H217V266H-7V280ZM210 273V357H224V273H210ZM217 350H-7V364H217V350ZM0 357V273H-14V357H0Z" fill="white" mask="url(#path-4-inside-2_24_218)"/>
</g>
<g opacity="0.5">
<mask id="path-6-inside-3_24_218" fill="white">
<path d="M-7 105H217V273H-7V105Z"/>
</mask>
<path d="M-7 105H217V273H-7V105Z" fill="#97B14C"/>
<path d="M-7 105V98H-14V105H-7ZM217 105H224V98H217V105ZM217 273V280H224V273H217ZM-7 273H-14V280H-7V273ZM-7 112H217V98H-7V112ZM210 105V273H224V105H210ZM217 266H-7V280H217V266ZM0 273V105H-14V273H0Z" fill="white" mask="url(#path-6-inside-3_24_218)"/>
</g>
<g opacity="0.5">
<mask id="path-8-inside-4_24_218" fill="white">
<path d="M-7 -7H217V105H-7V-7Z"/>
</mask>
<path d="M-7 -7H217V105H-7V-7Z" fill="#97B14C"/>
<path d="M-7 -7V-14H-14V-7H-7ZM217 -7H224V-14H217V-7ZM217 105V112H224V105H217ZM-7 105H-14V112H-7V105ZM-7 0H217V-14H-7V0ZM210 -7V105H224V-7H210ZM217 98H-7V112H217V98ZM0 105V-7H-14V105H0Z" fill="white" mask="url(#path-8-inside-4_24_218)"/>
</g>
<g filter="url(#filter0_d_24_218)">
<rect x="64" y="50" width="84" height="28" rx="4" fill="white"/>
<text fill="black" xml:space="preserve" style="white-space: pre" font-family="Barlow Condensed" font-size="8" letter-spacing="0em"><tspan x="92.1016" y="62.6">Gest&#xe4;rktes</tspan></text>
<text fill="black" xml:space="preserve" style="white-space: pre" font-family="Barlow Condensed" font-size="8" font-weight="bold" letter-spacing="0em"><tspan x="119.898" y="62.6"> </tspan><tspan x="77.6133" y="70.6">Gemeinschaftgef&#xfc;hl</tspan></text>
</g>
<g filter="url(#filter1_d_24_218)">
<rect x="17" y="228" width="63" height="14" fill="white" fill-opacity="0.7"/>
<text fill="black" fill-opacity="0.8" xml:space="preserve" style="white-space: pre" font-family="Barlow Condensed" font-size="6" font-weight="500" letter-spacing="0em"><tspan x="36.6377" y="234.1">Microsite zu </tspan><tspan x="29.5889" y="240.1">Forschungspreisen</tspan></text>
</g>
<rect x="7" y="175" width="84" height="28" rx="4" fill="white"/>
<text fill="black" fill-opacity="0.8" xml:space="preserve" style="white-space: pre" font-family="Barlow Condensed" font-size="8" letter-spacing="0em"><tspan x="29.1641" y="195.6">kommunizieren</tspan></text>
<text fill="black" fill-opacity="0.8" xml:space="preserve" style="white-space: pre" font-family="Barlow Condensed" font-size="8" font-weight="bold" letter-spacing="0em"><tspan x="25.4219" y="187.6">Eigenst&#xe4;ndigkeit&#10;</tspan></text>
<path d="M106.707 81.2929C106.317 80.9024 105.683 80.9024 105.293 81.2929L98.9289 87.6569C98.5384 88.0474 98.5384 88.6805 98.9289 89.0711C99.3195 89.4616 99.9526 89.4616 100.343 89.0711L106 83.4142L111.657 89.0711C112.047 89.4616 112.681 89.4616 113.071 89.0711C113.462 88.6805 113.462 88.0474 113.071 87.6569L106.707 81.2929ZM107 178V82H105V178H107ZM95 190C101.627 190 107 184.627 107 178H105C105 183.523 100.523 188 95 188V190Z" fill="#333333"/>
<rect x="119" y="175" width="84" height="28" rx="4" fill="white"/>
<text fill="black" fill-opacity="0.8" xml:space="preserve" style="white-space: pre" font-family="Barlow Condensed" font-size="8" letter-spacing="0em"><tspan x="146.477" y="195.6">verfestigen</tspan></text>
<text fill="black" fill-opacity="0.8" xml:space="preserve" style="white-space: pre" font-family="Barlow Condensed" font-size="8" font-weight="bold" letter-spacing="0em"><tspan x="137.422" y="187.6">Eigenst&#xe4;ndigkeit&#10;</tspan></text>
<path d="M106.707 81.2929C106.317 80.9024 105.683 80.9024 105.293 81.2929L98.9289 87.6569C98.5384 88.0474 98.5384 88.6805 98.9289 89.0711C99.3195 89.4616 99.9526 89.4616 100.343 89.0711L106 83.4142L111.657 89.0711C112.047 89.4616 112.681 89.4616 113.071 89.0711C113.462 88.6805 113.462 88.0474 113.071 87.6569L106.707 81.2929ZM107 180V82H105V180H107ZM115 188C110.582 188 107 184.418 107 180H105C105 185.523 109.477 190 115 190V188Z" fill="#333333"/>
<path d="M106.707 81.2929C106.317 80.9024 105.683 80.9024 105.293 81.2929L98.9289 87.6569C98.5384 88.0474 98.5384 88.6805 98.9289 89.0711C99.3195 89.4616 99.9526 89.4616 100.343 89.0711L106 83.4142L111.657 89.0711C112.047 89.4616 112.681 89.4616 113.071 89.0711C113.462 88.6805 113.462 88.0474 113.071 87.6569L106.707 81.2929ZM107 178V82H105V178H107ZM95 190C101.627 190 107 184.627 107 178H105C105 183.523 100.523 188 95 188V190Z" fill="#333333"/>
<g filter="url(#filter2_d_24_218)">
<rect x="119" y="126" width="63" height="14" fill="white" fill-opacity="0.7"/>
<text fill="black" fill-opacity="0.8" xml:space="preserve" style="white-space: pre" font-family="Barlow Condensed" font-size="6" font-weight="500" letter-spacing="0em"><tspan x="125.858" y="132.1">Beschleuniger</tspan><tspan x="175.142" y="132.1"> </tspan><tspan x="124.323" y="138.1">statt Beschleuniger</tspan></text>
<text fill="black" fill-opacity="0.8" xml:space="preserve" style="white-space: pre" font-family="Barlow Condensed" font-size="6" font-style="italic" font-weight="bold" letter-spacing="0em"><tspan x="154.306" y="132.1">forschung</tspan><tspan x="163.294" y="138.1">physik</tspan></text>
</g>
<g filter="url(#filter3_d_24_218)">
<rect x="140" y="147" width="63" height="14" fill="white" fill-opacity="0.7"/>
<text fill="black" fill-opacity="0.8" xml:space="preserve" style="white-space: pre" font-family="Barlow Condensed" font-size="6" font-weight="500" letter-spacing="0em"><tspan x="152.542" y="156.1">Verbandsgr&#xfc;ndung</tspan></text>
</g>
<g filter="url(#filter4_d_24_218)">
<rect x="134" y="239" width="63" height="16" fill="white" fill-opacity="0.7"/>
<text fill="black" fill-opacity="0.8" xml:space="preserve" style="white-space: pre" font-family="Barlow Condensed" font-size="6" font-weight="500" letter-spacing="0em"><tspan x="136.259" y="249.1">j&#xe4;hrliche Mitgliederbefragung</tspan></text>
</g>
<g filter="url(#filter5_d_24_218)">
<rect x="119" y="218" width="63" height="14" fill="white" fill-opacity="0.7"/>
<text fill="black" fill-opacity="0.8" xml:space="preserve" style="white-space: pre" font-family="Barlow Condensed" font-size="6" font-weight="500" letter-spacing="0em"><tspan x="121.707" y="227.1">Eintragung ins Lobbyregister</tspan></text>
</g>
<path d="M132.823 171.677C132.921 171.774 133.079 171.774 133.177 171.677L134.768 170.086C134.865 169.988 134.865 169.83 134.768 169.732C134.67 169.635 134.512 169.635 134.414 169.732L133 171.146L131.586 169.732C131.488 169.635 131.33 169.635 131.232 169.732C131.135 169.83 131.135 169.988 131.232 170.086L132.823 171.677ZM132.75 142.5L132.75 142.75L133.25 142.75L133.25 142.5L132.75 142.5ZM132.75 143.25L132.75 143.75L133.25 143.75L133.25 143.25L132.75 143.25ZM132.75 144.25L132.75 144.75L133.25 144.75L133.25 144.25L132.75 144.25ZM132.75 145.25L132.75 145.75L133.25 145.75L133.25 145.25L132.75 145.25ZM132.75 146.25L132.75 146.75L133.25 146.75L133.25 146.25L132.75 146.25ZM132.75 147.25L132.75 147.75L133.25 147.75L133.25 147.25L132.75 147.25ZM132.75 148.25L132.75 148.75L133.25 148.75L133.25 148.25L132.75 148.25ZM132.75 149.25L132.75 149.75L133.25 149.75L133.25 149.25L132.75 149.25ZM132.75 150.25L132.75 150.75L133.25 150.75L133.25 150.25L132.75 150.25ZM132.75 151.25L132.75 151.75L133.25 151.75L133.25 151.25L132.75 151.25ZM132.75 152.25L132.75 152.75L133.25 152.75L133.25 152.25L132.75 152.25ZM132.75 153.25L132.75 153.75L133.25 153.75L133.25 153.25L132.75 153.25ZM132.75 154.25L132.75 154.75L133.25 154.75L133.25 154.25L132.75 154.25ZM132.75 155.25L132.75 155.75L133.25 155.75L133.25 155.25L132.75 155.25ZM132.75 156.25L132.75 156.75L133.25 156.75L133.25 156.25L132.75 156.25ZM132.75 157.25L132.75 157.75L133.25 157.75L133.25 157.25L132.75 157.25ZM132.75 158.25L132.75 158.75L133.25 158.75L133.25 158.25L132.75 158.25ZM132.75 159.25L132.75 159.75L133.25 159.75L133.25 159.25L132.75 159.25ZM132.75 160.25L132.75 160.75L133.25 160.75L133.25 160.25L132.75 160.25ZM132.75 161.25L132.75 161.75L133.25 161.75L133.25 161.25L132.75 161.25ZM132.75 162.25L132.75 162.75L133.25 162.75L133.25 162.25L132.75 162.25ZM132.75 163.25L132.75 163.75L133.25 163.75L133.25 163.25L132.75 163.25ZM132.75 164.25L132.75 164.75L133.25 164.75L133.25 164.25L132.75 164.25ZM132.75 165.25L132.75 165.75L133.25 165.75L133.25 165.25L132.75 165.25ZM132.75 166.25L132.75 166.75L133.25 166.75L133.25 166.25L132.75 166.25ZM132.75 167.25L132.75 167.75L133.25 167.75L133.25 167.25L132.75 167.25ZM132.75 168.25L132.75 168.75L133.25 168.75L133.25 168.25L132.75 168.25ZM132.75 169.25L132.75 169.75L133.25 169.75L133.25 169.25L132.75 169.25ZM132.75 170.25L132.75 170.75L133.25 170.75L133.25 170.25L132.75 170.25ZM132.75 171.25L132.75 171.5L133.25 171.5L133.25 171.25L132.75 171.25ZM132.823 171.677C132.921 171.774 133.079 171.774 133.177 171.677L134.768 170.086C134.865 169.988 134.865 169.83 134.768 169.732C134.67 169.635 134.512 169.635 134.414 169.732L133 171.146L131.586 169.732C131.488 169.635 131.33 169.635 131.232 169.732C131.135 169.83 131.135 169.988 131.232 170.086L132.823 171.677ZM132.75 142.5L132.75 142.75L133.25 142.75L133.25 142.5L132.75 142.5ZM132.75 143.25L132.75 143.75L133.25 143.75L133.25 143.25L132.75 143.25ZM132.75 144.25L132.75 144.75L133.25 144.75L133.25 144.25L132.75 144.25ZM132.75 145.25L132.75 145.75L133.25 145.75L133.25 145.25L132.75 145.25ZM132.75 146.25L132.75 146.75L133.25 146.75L133.25 146.25L132.75 146.25ZM132.75 147.25L132.75 147.75L133.25 147.75L133.25 147.25L132.75 147.25ZM132.75 148.25L132.75 148.75L133.25 148.75L133.25 148.25L132.75 148.25ZM132.75 149.25L132.75 149.75L133.25 149.75L133.25 149.25L132.75 149.25ZM132.75 150.25L132.75 150.75L133.25 150.75L133.25 150.25L132.75 150.25ZM132.75 151.25L132.75 151.75L133.25 151.75L133.25 151.25L132.75 151.25ZM132.75 152.25L132.75 152.75L133.25 152.75L133.25 152.25L132.75 152.25ZM132.75 153.25L132.75 153.75L133.25 153.75L133.25 153.25L132.75 153.25ZM132.75 154.25L132.75 154.75L133.25 154.75L133.25 154.25L132.75 154.25ZM132.75 155.25L132.75 155.75L133.25 155.75L133.25 155.25L132.75 155.25ZM132.75 156.25L132.75 156.75L133.25 156.75L133.25 156.25L132.75 156.25ZM132.75 157.25L132.75 157.75L133.25 157.75L133.25 157.25L132.75 157.25ZM132.75 158.25L132.75 158.75L133.25 158.75L133.25 158.25L132.75 158.25ZM132.75 159.25L132.75 159.75L133.25 159.75L133.25 159.25L132.75 159.25ZM132.75 160.25L132.75 160.75L133.25 160.75L133.25 160.25L132.75 160.25ZM132.75 161.25L132.75 161.75L133.25 161.75L133.25 161.25L132.75 161.25ZM132.75 162.25L132.75 162.75L133.25 162.75L133.25 162.25L132.75 162.25ZM132.75 163.25L132.75 163.75L133.25 163.75L133.25 163.25L132.75 163.25ZM132.75 164.25L132.75 164.75L133.25 164.75L133.25 164.25L132.75 164.25ZM132.75 165.25L132.75 165.75L133.25 165.75L133.25 165.25L132.75 165.25ZM132.75 166.25L132.75 166.75L133.25 166.75L133.25 166.25L132.75 166.25ZM132.75 167.25L132.75 167.75L133.25 167.75L133.25 167.25L132.75 167.25ZM132.75 168.25L132.75 168.75L133.25 168.75L133.25 168.25L132.75 168.25ZM132.75 169.25L132.75 169.75L133.25 169.75L133.25 169.25L132.75 169.25ZM132.75 170.25L132.75 170.75L133.25 170.75L133.25 170.25L132.75 170.25ZM132.75 171.25L132.75 171.5L133.25 171.5L133.25 171.25L132.75 171.25Z" fill="#333333"/>
<path d="M48.8232 172.677C48.9209 172.774 49.0791 172.774 49.1768 172.677L50.7678 171.086C50.8654 170.988 50.8654 170.83 50.7678 170.732C50.6701 170.635 50.5118 170.635 50.4142 170.732L49 172.146L47.5858 170.732C47.4882 170.635 47.3299 170.635 47.2322 170.732C47.1346 170.83 47.1346 170.988 47.2322 171.086L48.8232 172.677ZM48.75 156.5L48.75 156.985L49.25 156.985L49.25 156.5L48.75 156.5ZM48.75 157.47L48.75 158.439L49.25 158.439L49.25 157.47L48.75 157.47ZM48.75 158.924L48.75 159.894L49.25 159.894L49.25 158.924L48.75 158.924ZM48.75 160.379L48.75 161.348L49.25 161.348L49.25 160.379L48.75 160.379ZM48.75 161.833L48.75 162.803L49.25 162.803L49.25 161.833L48.75 161.833ZM48.75 163.288L48.75 164.258L49.25 164.258L49.25 163.288L48.75 163.288ZM48.75 164.742L48.75 165.712L49.25 165.712L49.25 164.742L48.75 164.742ZM48.75 166.197L48.75 167.167L49.25 167.167L49.25 166.197L48.75 166.197ZM48.75 167.652L48.75 168.621L49.25 168.621L49.25 167.652L48.75 167.652ZM48.75 169.106L48.75 170.076L49.25 170.076L49.25 169.106L48.75 169.106ZM48.75 170.561L48.75 171.53L49.25 171.53L49.25 170.561L48.75 170.561ZM48.75 172.015L48.75 172.5L49.25 172.5L49.25 172.015L48.75 172.015ZM48.8232 172.677C48.9209 172.774 49.0791 172.774 49.1768 172.677L50.7678 171.086C50.8654 170.988 50.8654 170.83 50.7678 170.732C50.6701 170.635 50.5118 170.635 50.4142 170.732L49 172.146L47.5858 170.732C47.4882 170.635 47.3299 170.635 47.2322 170.732C47.1346 170.83 47.1346 170.988 47.2322 171.086L48.8232 172.677ZM48.75 156.5L48.75 156.985L49.25 156.985L49.25 156.5L48.75 156.5ZM48.75 157.47L48.75 158.439L49.25 158.439L49.25 157.47L48.75 157.47ZM48.75 158.924L48.75 159.894L49.25 159.894L49.25 158.924L48.75 158.924ZM48.75 160.379L48.75 161.348L49.25 161.348L49.25 160.379L48.75 160.379ZM48.75 161.833L48.75 162.803L49.25 162.803L49.25 161.833L48.75 161.833ZM48.75 163.288L48.75 164.258L49.25 164.258L49.25 163.288L48.75 163.288ZM48.75 164.742L48.75 165.712L49.25 165.712L49.25 164.742L48.75 164.742ZM48.75 166.197L48.75 167.167L49.25 167.167L49.25 166.197L48.75 166.197ZM48.75 167.652L48.75 168.621L49.25 168.621L49.25 167.652L48.75 167.652ZM48.75 169.106L48.75 170.076L49.25 170.076L49.25 169.106L48.75 169.106ZM48.75 170.561L48.75 171.53L49.25 171.53L49.25 170.561L48.75 170.561ZM48.75 172.015L48.75 172.5L49.25 172.5L49.25 172.015L48.75 172.015Z" fill="#333333"/>
<path d="M49.1768 206.323C49.0791 206.226 48.9209 206.226 48.8232 206.323L47.2322 207.914C47.1346 208.012 47.1346 208.17 47.2322 208.268C47.3299 208.365 47.4882 208.365 47.5858 208.268L49 206.854L50.4142 208.268C50.5118 208.365 50.6701 208.365 50.7678 208.268C50.8654 208.17 50.8654 208.012 50.7678 207.914L49.1768 206.323ZM49.25 222.5L49.25 222.015L48.75 222.015L48.75 222.5L49.25 222.5ZM49.25 221.53L49.25 220.561L48.75 220.561L48.75 221.53L49.25 221.53ZM49.25 220.076L49.25 219.106L48.75 219.106L48.75 220.076L49.25 220.076ZM49.25 218.621L49.25 217.652L48.75 217.652L48.75 218.621L49.25 218.621ZM49.25 217.167L49.25 216.197L48.75 216.197L48.75 217.167L49.25 217.167ZM49.25 215.712L49.25 214.742L48.75 214.742L48.75 215.712L49.25 215.712ZM49.25 214.258L49.25 213.288L48.75 213.288L48.75 214.258L49.25 214.258ZM49.25 212.803L49.25 211.833L48.75 211.833L48.75 212.803L49.25 212.803ZM49.25 211.348L49.25 210.379L48.75 210.379L48.75 211.348L49.25 211.348ZM49.25 209.894L49.25 208.924L48.75 208.924L48.75 209.894L49.25 209.894ZM49.25 208.439L49.25 207.47L48.75 207.47L48.75 208.439L49.25 208.439ZM49.25 206.985L49.25 206.5L48.75 206.5L48.75 206.985L49.25 206.985ZM49.1768 206.323C49.0791 206.226 48.9209 206.226 48.8232 206.323L47.2322 207.914C47.1346 208.012 47.1346 208.17 47.2322 208.268C47.3299 208.365 47.4882 208.365 47.5858 208.268L49 206.854L50.4142 208.268C50.5118 208.365 50.6701 208.365 50.7678 208.268C50.8654 208.17 50.8654 208.012 50.7678 207.914L49.1768 206.323ZM49.25 222.5L49.25 222.015L48.75 222.015L48.75 222.5L49.25 222.5ZM49.25 221.53L49.25 220.561L48.75 220.561L48.75 221.53L49.25 221.53ZM49.25 220.076L49.25 219.106L48.75 219.106L48.75 220.076L49.25 220.076ZM49.25 218.621L49.25 217.652L48.75 217.652L48.75 218.621L49.25 218.621ZM49.25 217.167L49.25 216.197L48.75 216.197L48.75 217.167L49.25 217.167ZM49.25 215.712L49.25 214.742L48.75 214.742L48.75 215.712L49.25 215.712ZM49.25 214.258L49.25 213.288L48.75 213.288L48.75 214.258L49.25 214.258ZM49.25 212.803L49.25 211.833L48.75 211.833L48.75 212.803L49.25 212.803ZM49.25 211.348L49.25 210.379L48.75 210.379L48.75 211.348L49.25 211.348ZM49.25 209.894L49.25 208.924L48.75 208.924L48.75 209.894L49.25 209.894ZM49.25 208.439L49.25 207.47L48.75 207.47L48.75 208.439L49.25 208.439ZM49.25 206.985L49.25 206.5L48.75 206.5L48.75 206.985L49.25 206.985Z" fill="#333333"/>
<path d="M48.8232 172.677C48.9209 172.774 49.0791 172.774 49.1768 172.677L50.7678 171.086C50.8654 170.988 50.8654 170.83 50.7678 170.732C50.6701 170.635 50.5118 170.635 50.4142 170.732L49 172.146L47.5858 170.732C47.4882 170.635 47.3299 170.635 47.2322 170.732C47.1346 170.83 47.1346 170.988 47.2322 171.086L48.8232 172.677ZM48.75 156.5L48.75 156.985L49.25 156.985L49.25 156.5L48.75 156.5ZM48.75 157.47L48.75 158.439L49.25 158.439L49.25 157.47L48.75 157.47ZM48.75 158.924L48.75 159.894L49.25 159.894L49.25 158.924L48.75 158.924ZM48.75 160.379L48.75 161.348L49.25 161.348L49.25 160.379L48.75 160.379ZM48.75 161.833L48.75 162.803L49.25 162.803L49.25 161.833L48.75 161.833ZM48.75 163.288L48.75 164.258L49.25 164.258L49.25 163.288L48.75 163.288ZM48.75 164.742L48.75 165.712L49.25 165.712L49.25 164.742L48.75 164.742ZM48.75 166.197L48.75 167.167L49.25 167.167L49.25 166.197L48.75 166.197ZM48.75 167.652L48.75 168.621L49.25 168.621L49.25 167.652L48.75 167.652ZM48.75 169.106L48.75 170.076L49.25 170.076L49.25 169.106L48.75 169.106ZM48.75 170.561L48.75 171.53L49.25 171.53L49.25 170.561L48.75 170.561ZM48.75 172.015L48.75 172.5L49.25 172.5L49.25 172.015L48.75 172.015ZM48.8232 172.677C48.9209 172.774 49.0791 172.774 49.1768 172.677L50.7678 171.086C50.8654 170.988 50.8654 170.83 50.7678 170.732C50.6701 170.635 50.5118 170.635 50.4142 170.732L49 172.146L47.5858 170.732C47.4882 170.635 47.3299 170.635 47.2322 170.732C47.1346 170.83 47.1346 170.988 47.2322 171.086L48.8232 172.677ZM48.75 156.5L48.75 156.985L49.25 156.985L49.25 156.5L48.75 156.5ZM48.75 157.47L48.75 158.439L49.25 158.439L49.25 157.47L48.75 157.47ZM48.75 158.924L48.75 159.894L49.25 159.894L49.25 158.924L48.75 158.924ZM48.75 160.379L48.75 161.348L49.25 161.348L49.25 160.379L48.75 160.379ZM48.75 161.833L48.75 162.803L49.25 162.803L49.25 161.833L48.75 161.833ZM48.75 163.288L48.75 164.258L49.25 164.258L49.25 163.288L48.75 163.288ZM48.75 164.742L48.75 165.712L49.25 165.712L49.25 164.742L48.75 164.742ZM48.75 166.197L48.75 167.167L49.25 167.167L49.25 166.197L48.75 166.197ZM48.75 167.652L48.75 168.621L49.25 168.621L49.25 167.652L48.75 167.652ZM48.75 169.106L48.75 170.076L49.25 170.076L49.25 169.106L48.75 169.106ZM48.75 170.561L48.75 171.53L49.25 171.53L49.25 170.561L48.75 170.561ZM48.75 172.015L48.75 172.5L49.25 172.5L49.25 172.015L48.75 172.015Z" fill="#333333"/>
<path d="M49.1768 206.323C49.0791 206.226 48.9209 206.226 48.8232 206.323L47.2322 207.914C47.1346 208.012 47.1346 208.17 47.2322 208.268C47.3299 208.365 47.4882 208.365 47.5858 208.268L49 206.854L50.4142 208.268C50.5118 208.365 50.6701 208.365 50.7678 208.268C50.8654 208.17 50.8654 208.012 50.7678 207.914L49.1768 206.323ZM49.25 222.5L49.25 222.015L48.75 222.015L48.75 222.5L49.25 222.5ZM49.25 221.53L49.25 220.561L48.75 220.561L48.75 221.53L49.25 221.53ZM49.25 220.076L49.25 219.106L48.75 219.106L48.75 220.076L49.25 220.076ZM49.25 218.621L49.25 217.652L48.75 217.652L48.75 218.621L49.25 218.621ZM49.25 217.167L49.25 216.197L48.75 216.197L48.75 217.167L49.25 217.167ZM49.25 215.712L49.25 214.742L48.75 214.742L48.75 215.712L49.25 215.712ZM49.25 214.258L49.25 213.288L48.75 213.288L48.75 214.258L49.25 214.258ZM49.25 212.803L49.25 211.833L48.75 211.833L48.75 212.803L49.25 212.803ZM49.25 211.348L49.25 210.379L48.75 210.379L48.75 211.348L49.25 211.348ZM49.25 209.894L49.25 208.924L48.75 208.924L48.75 209.894L49.25 209.894ZM49.25 208.439L49.25 207.47L48.75 207.47L48.75 208.439L49.25 208.439ZM49.25 206.985L49.25 206.5L48.75 206.5L48.75 206.985L49.25 206.985ZM49.1768 206.323C49.0791 206.226 48.9209 206.226 48.8232 206.323L47.2322 207.914C47.1346 208.012 47.1346 208.17 47.2322 208.268C47.3299 208.365 47.4882 208.365 47.5858 208.268L49 206.854L50.4142 208.268C50.5118 208.365 50.6701 208.365 50.7678 208.268C50.8654 208.17 50.8654 208.012 50.7678 207.914L49.1768 206.323ZM49.25 222.5L49.25 222.015L48.75 222.015L48.75 222.5L49.25 222.5ZM49.25 221.53L49.25 220.561L48.75 220.561L48.75 221.53L49.25 221.53ZM49.25 220.076L49.25 219.106L48.75 219.106L48.75 220.076L49.25 220.076ZM49.25 218.621L49.25 217.652L48.75 217.652L48.75 218.621L49.25 218.621ZM49.25 217.167L49.25 216.197L48.75 216.197L48.75 217.167L49.25 217.167ZM49.25 215.712L49.25 214.742L48.75 214.742L48.75 215.712L49.25 215.712ZM49.25 214.258L49.25 213.288L48.75 213.288L48.75 214.258L49.25 214.258ZM49.25 212.803L49.25 211.833L48.75 211.833L48.75 212.803L49.25 212.803ZM49.25 211.348L49.25 210.379L48.75 210.379L48.75 211.348L49.25 211.348ZM49.25 209.894L49.25 208.924L48.75 208.924L48.75 209.894L49.25 209.894ZM49.25 208.439L49.25 207.47L48.75 207.47L48.75 208.439L49.25 208.439ZM49.25 206.985L49.25 206.5L48.75 206.5L48.75 206.985L49.25 206.985Z" fill="#333333"/>
<path d="M170.823 172.677C170.921 172.774 171.079 172.774 171.177 172.677L172.768 171.086C172.865 170.988 172.865 170.83 172.768 170.732C172.67 170.635 172.512 170.635 172.414 170.732L171 172.146L169.586 170.732C169.488 170.635 169.33 170.635 169.232 170.732C169.135 170.83 169.135 170.988 169.232 171.086L170.823 172.677ZM170.75 163L170.75 163.238L171.25 163.237L171.25 163L170.75 163ZM170.75 163.713L170.75 164.188L171.25 164.187L171.25 163.712L170.75 163.713ZM170.75 164.663L170.75 165.138L171.25 165.137L171.25 164.662L170.75 164.663ZM170.75 165.613L170.75 166.088L171.25 166.087L171.25 165.612L170.75 165.613ZM170.75 166.562L170.75 167.038L171.25 167.037L171.25 166.562L170.75 166.562ZM170.75 167.513L170.75 167.988L171.25 167.987L171.25 167.512L170.75 167.513ZM170.75 168.463L170.75 168.937L171.25 168.937L171.25 168.462L170.75 168.463ZM170.75 169.412L170.75 169.887L171.25 169.887L171.25 169.412L170.75 169.412ZM170.75 170.362L170.75 170.837L171.25 170.837L171.25 170.362L170.75 170.362ZM170.75 171.312L170.75 171.787L171.25 171.787L171.25 171.312L170.75 171.312ZM170.75 172.262L170.75 172.5L171.25 172.5L171.25 172.262L170.75 172.262ZM170.823 172.677C170.921 172.774 171.079 172.774 171.177 172.677L172.768 171.086C172.865 170.988 172.865 170.83 172.768 170.732C172.67 170.635 172.512 170.635 172.414 170.732L171 172.146L169.586 170.732C169.488 170.635 169.33 170.635 169.232 170.732C169.135 170.83 169.135 170.988 169.232 171.086L170.823 172.677ZM170.75 163L170.75 163.238L171.25 163.237L171.25 163L170.75 163ZM170.75 163.713L170.75 164.188L171.25 164.187L171.25 163.712L170.75 163.713ZM170.75 164.663L170.75 165.138L171.25 165.137L171.25 164.662L170.75 164.663ZM170.75 165.613L170.75 166.088L171.25 166.087L171.25 165.612L170.75 165.613ZM170.75 166.562L170.75 167.038L171.25 167.037L171.25 166.562L170.75 166.562ZM170.75 167.513L170.75 167.988L171.25 167.987L171.25 167.512L170.75 167.513ZM170.75 168.463L170.75 168.937L171.25 168.937L171.25 168.462L170.75 168.463ZM170.75 169.412L170.75 169.887L171.25 169.887L171.25 169.412L170.75 169.412ZM170.75 170.362L170.75 170.837L171.25 170.837L171.25 170.362L170.75 170.362ZM170.75 171.312L170.75 171.787L171.25 171.787L171.25 171.312L170.75 171.312ZM170.75 172.262L170.75 172.5L171.25 172.5L171.25 172.262L170.75 172.262Z" fill="#333333"/>
<path d="M189.177 204.823C189.079 204.726 188.921 204.726 188.823 204.823L187.232 206.414C187.135 206.512 187.135 206.67 187.232 206.768C187.33 206.865 187.488 206.865 187.586 206.768L189 205.354L190.414 206.768C190.512 206.865 190.67 206.865 190.768 206.768C190.865 206.67 190.865 206.512 190.768 206.414L189.177 204.823ZM189.25 234L189.25 233.75L188.75 233.75L188.75 234L189.25 234ZM189.25 233.25L189.25 232.75L188.75 232.75L188.75 233.25L189.25 233.25ZM189.25 232.25L189.25 231.75L188.75 231.75L188.75 232.25L189.25 232.25ZM189.25 231.25L189.25 230.75L188.75 230.75L188.75 231.25L189.25 231.25ZM189.25 230.25L189.25 229.75L188.75 229.75L188.75 230.25L189.25 230.25ZM189.25 229.25L189.25 228.75L188.75 228.75L188.75 229.25L189.25 229.25ZM189.25 228.25L189.25 227.75L188.75 227.75L188.75 228.25L189.25 228.25ZM189.25 227.25L189.25 226.75L188.75 226.75L188.75 227.25L189.25 227.25ZM189.25 226.25L189.25 225.75L188.75 225.75L188.75 226.25L189.25 226.25ZM189.25 225.25L189.25 224.75L188.75 224.75L188.75 225.25L189.25 225.25ZM189.25 224.25L189.25 223.75L188.75 223.75L188.75 224.25L189.25 224.25ZM189.25 223.25L189.25 222.75L188.75 222.75L188.75 223.25L189.25 223.25ZM189.25 222.25L189.25 221.75L188.75 221.75L188.75 222.25L189.25 222.25ZM189.25 221.25L189.25 220.75L188.75 220.75L188.75 221.25L189.25 221.25ZM189.25 220.25L189.25 219.75L188.75 219.75L188.75 220.25L189.25 220.25ZM189.25 219.25L189.25 218.75L188.75 218.75L188.75 219.25L189.25 219.25ZM189.25 218.25L189.25 217.75L188.75 217.75L188.75 218.25L189.25 218.25ZM189.25 217.25L189.25 216.75L188.75 216.75L188.75 217.25L189.25 217.25ZM189.25 216.25L189.25 215.75L188.75 215.75L188.75 216.25L189.25 216.25ZM189.25 215.25L189.25 214.75L188.75 214.75L188.75 215.25L189.25 215.25ZM189.25 214.25L189.25 213.75L188.75 213.75L188.75 214.25L189.25 214.25ZM189.25 213.25L189.25 212.75L188.75 212.75L188.75 213.25L189.25 213.25ZM189.25 212.25L189.25 211.75L188.75 211.75L188.75 212.25L189.25 212.25ZM189.25 211.25L189.25 210.75L188.75 210.75L188.75 211.25L189.25 211.25ZM189.25 210.25L189.25 209.75L188.75 209.75L188.75 210.25L189.25 210.25ZM189.25 209.25L189.25 208.75L188.75 208.75L188.75 209.25L189.25 209.25ZM189.25 208.25L189.25 207.75L188.75 207.75L188.75 208.25L189.25 208.25ZM189.25 207.25L189.25 206.75L188.75 206.75L188.75 207.25L189.25 207.25ZM189.25 206.25L189.25 205.75L188.75 205.75L188.75 206.25L189.25 206.25ZM189.25 205.25L189.25 205L188.75 205L188.75 205.25L189.25 205.25ZM189.177 204.823C189.079 204.726 188.921 204.726 188.823 204.823L187.232 206.414C187.135 206.512 187.135 206.67 187.232 206.768C187.33 206.865 187.488 206.865 187.586 206.768L189 205.354L190.414 206.768C190.512 206.865 190.67 206.865 190.768 206.768C190.865 206.67 190.865 206.512 190.768 206.414L189.177 204.823ZM189.25 234L189.25 233.75L188.75 233.75L188.75 234L189.25 234ZM189.25 233.25L189.25 232.75L188.75 232.75L188.75 233.25L189.25 233.25ZM189.25 232.25L189.25 231.75L188.75 231.75L188.75 232.25L189.25 232.25ZM189.25 231.25L189.25 230.75L188.75 230.75L188.75 231.25L189.25 231.25ZM189.25 230.25L189.25 229.75L188.75 229.75L188.75 230.25L189.25 230.25ZM189.25 229.25L189.25 228.75L188.75 228.75L188.75 229.25L189.25 229.25ZM189.25 228.25L189.25 227.75L188.75 227.75L188.75 228.25L189.25 228.25ZM189.25 227.25L189.25 226.75L188.75 226.75L188.75 227.25L189.25 227.25ZM189.25 226.25L189.25 225.75L188.75 225.75L188.75 226.25L189.25 226.25ZM189.25 225.25L189.25 224.75L188.75 224.75L188.75 225.25L189.25 225.25ZM189.25 224.25L189.25 223.75L188.75 223.75L188.75 224.25L189.25 224.25ZM189.25 223.25L189.25 222.75L188.75 222.75L188.75 223.25L189.25 223.25ZM189.25 222.25L189.25 221.75L188.75 221.75L188.75 222.25L189.25 222.25ZM189.25 221.25L189.25 220.75L188.75 220.75L188.75 221.25L189.25 221.25ZM189.25 220.25L189.25 219.75L188.75 219.75L188.75 220.25L189.25 220.25ZM189.25 219.25L189.25 218.75L188.75 218.75L188.75 219.25L189.25 219.25ZM189.25 218.25L189.25 217.75L188.75 217.75L188.75 218.25L189.25 218.25ZM189.25 217.25L189.25 216.75L188.75 216.75L188.75 217.25L189.25 217.25ZM189.25 216.25L189.25 215.75L188.75 215.75L188.75 216.25L189.25 216.25ZM189.25 215.25L189.25 214.75L188.75 214.75L188.75 215.25L189.25 215.25ZM189.25 214.25L189.25 213.75L188.75 213.75L188.75 214.25L189.25 214.25ZM189.25 213.25L189.25 212.75L188.75 212.75L188.75 213.25L189.25 213.25ZM189.25 212.25L189.25 211.75L188.75 211.75L188.75 212.25L189.25 212.25ZM189.25 211.25L189.25 210.75L188.75 210.75L188.75 211.25L189.25 211.25ZM189.25 210.25L189.25 209.75L188.75 209.75L188.75 210.25L189.25 210.25ZM189.25 209.25L189.25 208.75L188.75 208.75L188.75 209.25L189.25 209.25ZM189.25 208.25L189.25 207.75L188.75 207.75L188.75 208.25L189.25 208.25ZM189.25 207.25L189.25 206.75L188.75 206.75L188.75 207.25L189.25 207.25ZM189.25 206.25L189.25 205.75L188.75 205.75L188.75 206.25L189.25 206.25ZM189.25 205.25L189.25 205L188.75 205L188.75 205.25L189.25 205.25Z" fill="#333333"/>
<path d="M151.177 205.323C151.079 205.226 150.921 205.226 150.823 205.323L149.232 206.914C149.135 207.012 149.135 207.17 149.232 207.268C149.33 207.365 149.488 207.365 149.586 207.268L151 205.854L152.414 207.268C152.512 207.365 152.67 207.365 152.768 207.268C152.865 207.17 152.865 207.012 152.768 206.914L151.177 205.323ZM151.25 215L151.25 214.762L150.75 214.763L150.75 215L151.25 215ZM151.25 214.287L151.25 213.812L150.75 213.813L150.75 214.288L151.25 214.287ZM151.25 213.337L151.25 212.862L150.75 212.863L150.75 213.338L151.25 213.337ZM151.25 212.387L151.25 211.912L150.75 211.913L150.75 212.388L151.25 212.387ZM151.25 211.438L151.25 210.962L150.75 210.963L150.75 211.438L151.25 211.438ZM151.25 210.487L151.25 210.013L150.75 210.013L150.75 210.488L151.25 210.487ZM151.25 209.537L151.25 209.063L150.75 209.063L150.75 209.538L151.25 209.537ZM151.25 208.588L151.25 208.113L150.75 208.113L150.75 208.588L151.25 208.588ZM151.25 207.638L151.25 207.163L150.75 207.163L150.75 207.638L151.25 207.638ZM151.25 206.688L151.25 206.213L150.75 206.213L150.75 206.688L151.25 206.688ZM151.25 205.738L151.25 205.5L150.75 205.5L150.75 205.738L151.25 205.738ZM151.177 205.323C151.079 205.226 150.921 205.226 150.823 205.323L149.232 206.914C149.135 207.012 149.135 207.17 149.232 207.268C149.33 207.365 149.488 207.365 149.586 207.268L151 205.854L152.414 207.268C152.512 207.365 152.67 207.365 152.768 207.268C152.865 207.17 152.865 207.012 152.768 206.914L151.177 205.323ZM151.25 215L151.25 214.762L150.75 214.763L150.75 215L151.25 215ZM151.25 214.287L151.25 213.812L150.75 213.813L150.75 214.288L151.25 214.287ZM151.25 213.337L151.25 212.862L150.75 212.863L150.75 213.338L151.25 213.337ZM151.25 212.387L151.25 211.912L150.75 211.913L150.75 212.388L151.25 212.387ZM151.25 211.438L151.25 210.962L150.75 210.963L150.75 211.438L151.25 211.438ZM151.25 210.487L151.25 210.013L150.75 210.013L150.75 210.488L151.25 210.487ZM151.25 209.537L151.25 209.063L150.75 209.063L150.75 209.538L151.25 209.537ZM151.25 208.588L151.25 208.113L150.75 208.113L150.75 208.588L151.25 208.588ZM151.25 207.638L151.25 207.163L150.75 207.163L150.75 207.638L151.25 207.638ZM151.25 206.688L151.25 206.213L150.75 206.213L150.75 206.688L151.25 206.688ZM151.25 205.738L151.25 205.5L150.75 205.5L150.75 205.738L151.25 205.738Z" fill="#333333"/>
<g filter="url(#filter6_d_24_218)">
<rect x="17" y="140" width="63" height="14" fill="white" fill-opacity="0.7"/>
<text fill="black" fill-opacity="0.8" xml:space="preserve" style="white-space: pre" font-family="Barlow Condensed" font-size="6" font-weight="500" letter-spacing="0em"><tspan x="36.6377" y="146.1">Microsite zu </tspan><tspan x="24.7725" y="152.1">Forschungsergebnissen</tspan></text>
</g>
<g opacity="0.1">
<mask id="path-39-inside-5_24_218" fill="white">
<path d="M-7 357H217V441H-7V357Z"/>
</mask>
<path d="M-7 357H217V441H-7V357Z" fill="#5AB983"/>
<path d="M-7 357V350H-14V357H-7ZM217 357H224V350H217V357ZM217 441V448H224V441H217ZM-7 441H-14V448H-7V441ZM-7 364H217V350H-7V364ZM210 357V441H224V357H210ZM217 434H-7V448H217V434ZM0 441V357H-14V441H0Z" fill="white" mask="url(#path-39-inside-5_24_218)"/>
</g>
<g filter="url(#filter7_d_24_218)">
<rect x="63" y="389" width="84" height="21" rx="7" fill="white"/>
<text fill="black" xml:space="preserve" style="white-space: pre" font-family="Barlow Condensed" font-size="8" letter-spacing="0em"><tspan x="75.2188" y="402.3">Finanzierung der Lehre</tspan></text>
</g>
<defs>
<filter id="filter0_d_24_218" x="60" y="46" width="92" height="36" filterUnits="userSpaceOnUse" color-interpolation-filters="sRGB">
<feFlood flood-opacity="0" result="BackgroundImageFix"/>
<feColorMatrix in="SourceAlpha" type="matrix" values="0 0 0 0 0 0 0 0 0 0 0 0 0 0 0 0 0 0 127 0" result="hardAlpha"/>
<feOffset/>
<feGaussianBlur stdDeviation="2"/>
<feColorMatrix type="matrix" values="0 0 0 0 0 0 0 0 0 0 0 0 0 0 0 0 0 0 0.25 0"/>
<feBlend mode="normal" in2="BackgroundImageFix" result="effect1_dropShadow_24_218"/>
<feBlend mode="normal" in="SourceGraphic" in2="effect1_dropShadow_24_218" result="shape"/>
</filter>
<filter id="filter1_d_24_218" x="10" y="221" width="77" height="28" filterUnits="userSpaceOnUse" color-interpolation-filters="sRGB">
<feFlood flood-opacity="0" result="BackgroundImageFix"/>
<feColorMatrix in="SourceAlpha" type="matrix" values="0 0 0 0 0 0 0 0 0 0 0 0 0 0 0 0 0 0 127 0" result="hardAlpha"/>
<feOffset/>
<feGaussianBlur stdDeviation="3.5"/>
<feComposite in2="hardAlpha" operator="out"/>
<feColorMatrix type="matrix" values="0 0 0 0 0 0 0 0 0 0 0 0 0 0 0 0 0 0 0.25 0"/>
<feBlend mode="normal" in2="BackgroundImageFix" result="effect1_dropShadow_24_218"/>
<feBlend mode="normal" in="SourceGraphic" in2="effect1_dropShadow_24_218" result="shape"/>
</filter>
<filter id="filter2_d_24_218" x="112" y="119" width="77" height="28" filterUnits="userSpaceOnUse" color-interpolation-filters="sRGB">
<feFlood flood-opacity="0" result="BackgroundImageFix"/>
<feColorMatrix in="SourceAlpha" type="matrix" values="0 0 0 0 0 0 0 0 0 0 0 0 0 0 0 0 0 0 127 0" result="hardAlpha"/>
<feOffset/>
<feGaussianBlur stdDeviation="3.5"/>
<feComposite in2="hardAlpha" operator="out"/>
<feColorMatrix type="matrix" values="0 0 0 0 0 0 0 0 0 0 0 0 0 0 0 0 0 0 0.25 0"/>
<feBlend mode="normal" in2="BackgroundImageFix" result="effect1_dropShadow_24_218"/>
<feBlend mode="normal" in="SourceGraphic" in2="effect1_dropShadow_24_218" result="shape"/>
</filter>
<filter id="filter3_d_24_218" x="133" y="140" width="77" height="28" filterUnits="userSpaceOnUse" color-interpolation-filters="sRGB">
<feFlood flood-opacity="0" result="BackgroundImageFix"/>
<feColorMatrix in="SourceAlpha" type="matrix" values="0 0 0 0 0 0 0 0 0 0 0 0 0 0 0 0 0 0 127 0" result="hardAlpha"/>
<feOffset/>
<feGaussianBlur stdDeviation="3.5"/>
<feComposite in2="hardAlpha" operator="out"/>
<feColorMatrix type="matrix" values="0 0 0 0 0 0 0 0 0 0 0 0 0 0 0 0 0 0 0.25 0"/>
<feBlend mode="normal" in2="BackgroundImageFix" result="effect1_dropShadow_24_218"/>
<feBlend mode="normal" in="SourceGraphic" in2="effect1_dropShadow_24_218" result="shape"/>
</filter>
<filter id="filter4_d_24_218" x="127" y="232" width="77" height="30" filterUnits="userSpaceOnUse" color-interpolation-filters="sRGB">
<feFlood flood-opacity="0" result="BackgroundImageFix"/>
<feColorMatrix in="SourceAlpha" type="matrix" values="0 0 0 0 0 0 0 0 0 0 0 0 0 0 0 0 0 0 127 0" result="hardAlpha"/>
<feOffset/>
<feGaussianBlur stdDeviation="3.5"/>
<feComposite in2="hardAlpha" operator="out"/>
<feColorMatrix type="matrix" values="0 0 0 0 0 0 0 0 0 0 0 0 0 0 0 0 0 0 0.25 0"/>
<feBlend mode="normal" in2="BackgroundImageFix" result="effect1_dropShadow_24_218"/>
<feBlend mode="normal" in="SourceGraphic" in2="effect1_dropShadow_24_218" result="shape"/>
</filter>
<filter id="filter5_d_24_218" x="112" y="211" width="77" height="28" filterUnits="userSpaceOnUse" color-interpolation-filters="sRGB">
<feFlood flood-opacity="0" result="BackgroundImageFix"/>
<feColorMatrix in="SourceAlpha" type="matrix" values="0 0 0 0 0 0 0 0 0 0 0 0 0 0 0 0 0 0 127 0" result="hardAlpha"/>
<feOffset/>
<feGaussianBlur stdDeviation="3.5"/>
<feComposite in2="hardAlpha" operator="out"/>
<feColorMatrix type="matrix" values="0 0 0 0 0 0 0 0 0 0 0 0 0 0 0 0 0 0 0.25 0"/>
<feBlend mode="normal" in2="BackgroundImageFix" result="effect1_dropShadow_24_218"/>
<feBlend mode="normal" in="SourceGraphic" in2="effect1_dropShadow_24_218" result="shape"/>
</filter>
<filter id="filter6_d_24_218" x="10" y="133" width="77" height="28" filterUnits="userSpaceOnUse" color-interpolation-filters="sRGB">
<feFlood flood-opacity="0" result="BackgroundImageFix"/>
<feColorMatrix in="SourceAlpha" type="matrix" values="0 0 0 0 0 0 0 0 0 0 0 0 0 0 0 0 0 0 127 0" result="hardAlpha"/>
<feOffset/>
<feGaussianBlur stdDeviation="3.5"/>
<feComposite in2="hardAlpha" operator="out"/>
<feColorMatrix type="matrix" values="0 0 0 0 0 0 0 0 0 0 0 0 0 0 0 0 0 0 0.25 0"/>
<feBlend mode="normal" in2="BackgroundImageFix" result="effect1_dropShadow_24_218"/>
<feBlend mode="normal" in="SourceGraphic" in2="effect1_dropShadow_24_218" result="shape"/>
</filter>
<filter id="filter7_d_24_218" x="59" y="385" width="92" height="29" filterUnits="userSpaceOnUse" color-interpolation-filters="sRGB">
<feFlood flood-opacity="0" result="BackgroundImageFix"/>
<feColorMatrix in="SourceAlpha" type="matrix" values="0 0 0 0 0 0 0 0 0 0 0 0 0 0 0 0 0 0 127 0" result="hardAlpha"/>
<feOffset/>
<feGaussianBlur stdDeviation="2"/>
<feComposite in2="hardAlpha" operator="out"/>
<feColorMatrix type="matrix" values="0 0 0 0 0 0 0 0 0 0 0 0 0 0 0 0 0 0 0.25 0"/>
<feBlend mode="normal" in2="BackgroundImageFix" result="effect1_dropShadow_24_218"/>
<feBlend mode="normal" in="SourceGraphic" in2="effect1_dropShadow_24_218" result="shape"/>
</filter>
</defs>
</svg>
