<svg width="210" height="490" viewBox="0 0 210 490" fill="none" xmlns="http://www.w3.org/2000/svg">
<mask id="path-1-inside-1_26_74" fill="white">
<path d="M-7 441H217V499H-7V441Z"/>
</mask>
<path d="M-7 441H217V499H-7V441Z" fill="#E98D61"/>
<path d="M-7 441V434H-14V441H-7ZM217 441H224V434H217V441ZM217 499V506H224V499H217ZM-7 499H-14V506H-7V499ZM-7 448H217V434H-7V448ZM210 441V499H224V441H210ZM217 492H-7V506H217V492ZM0 499V441H-14V499H0Z" fill="white" mask="url(#path-1-inside-1_26_74)"/>
<text fill="black" xml:space="preserve" style="white-space: pre" font-family="Barlow Condensed" font-size="14" font-weight="bold" letter-spacing="0.07em"><tspan x="66.2699" y="474.8">KOOPERATION</tspan></text>
<g opacity="0.5">
<mask id="path-4-inside-2_26_74" fill="white">
<path d="M-7 273H218V357H-7V273Z"/>
</mask>
<path d="M-7 273H218V357H-7V273Z" fill="#E98D61"/>
<path d="M-7 273V266H-14V273H-7ZM218 273H225V266H218V273ZM218 357V364H225V357H218ZM-7 357H-14V364H-7V357ZM-7 280H218V266H-7V280ZM211 273V357H225V273H211ZM218 350H-7V364H218V350ZM0 357V273H-14V357H0Z" fill="white" mask="url(#path-4-inside-2_26_74)"/>
</g>
<g filter="url(#filter0_d_26_74)">
<rect x="111.473" y="324.2" width="83.6283" height="21.6" rx="7" fill="white"/>
<text fill="black" fill-opacity="0.8" xml:space="preserve" style="white-space: pre" font-family="Barlow Condensed" font-size="8" letter-spacing="0em"><tspan x="156.252" y="329.8"> und </tspan></text>
<text fill="black" fill-opacity="0.8" xml:space="preserve" style="white-space: pre" font-family="Barlow Semi Condensed" font-size="8" letter-spacing="0em"><tspan x="190.995" y="329.8"> </tspan><tspan x="120.174" y="337.8">der Kooperation in der </tspan><tspan x="132.342" y="345.8">F&#38;E erkennen</tspan></text>
<text fill="black" fill-opacity="0.8" xml:space="preserve" style="white-space: pre" font-family="Barlow Condensed" font-size="8" font-weight="bold" letter-spacing="0em"><tspan x="115.581" y="329.8">Notwendigkeit</tspan><tspan x="169.174" y="329.8">Vorteile</tspan></text>
</g>
<rect x="112" y="294" width="84" height="28" rx="4" fill="white"/>
<text fill="black" fill-opacity="0.8" xml:space="preserve" style="white-space: pre" font-family="Barlow Condensed" font-size="8" letter-spacing="0em"><tspan x="117.152" y="306.8">Bereitschaft zur Kooperation </tspan><tspan x="129.34" y="314.8">in der F&#38;E erh&#xf6;hen</tspan></text>
<path d="M153.293 323.707C153.683 324.098 154.317 324.098 154.707 323.707L161.071 317.343C161.462 316.953 161.462 316.319 161.071 315.929C160.681 315.538 160.047 315.538 159.657 315.929L154 321.586L148.343 315.929C147.953 315.538 147.319 315.538 146.929 315.929C146.538 316.319 146.538 316.953 146.929 317.343L153.293 323.707ZM153 320.2V323H155V320.2H153Z" fill="#333333"/>
<g opacity="0.5">
<mask id="path-11-inside-3_26_74" fill="white">
<path d="M-7 105H217V273H-7V105Z"/>
</mask>
<path d="M-7 105H217V273H-7V105Z" fill="#E98D61"/>
<path d="M-7 105V98H-14V105H-7ZM217 105H224V98H217V105ZM217 273V280H224V273H217ZM-7 273H-14V280H-7V273ZM-7 112H217V98H-7V112ZM210 105V273H224V105H210ZM217 266H-7V280H217V266ZM0 273V105H-14V273H0Z" fill="white" mask="url(#path-11-inside-3_26_74)"/>
</g>
<rect x="62.6889" y="175" width="83.6267" height="28" rx="4" fill="white"/>
<text fill="black" xml:space="preserve" style="white-space: pre" font-family="Barlow Condensed" font-size="8" letter-spacing="0em"><tspan x="92.3421" y="199.6">verfolgen</tspan></text>
<text fill="black" xml:space="preserve" style="white-space: pre" font-family="Barlow Condensed" font-size="8" font-weight="bold" letter-spacing="0em"><tspan x="71.3382" y="183.6">verband&#xb4;&#xfc;bergreifendes </tspan><tspan x="73.3811" y="191.6">Forschungsprogramm </tspan></text>
<text fill="black" fill-opacity="0.8" xml:space="preserve" style="white-space: pre" font-family="Barlow Condensed" font-size="7" font-weight="300" letter-spacing="0em"><tspan x="121.427" y="145.961">-&#x2028;</tspan><tspan x="121.427" y="152.961">-&#10;</tspan><tspan x="121.427" y="166.961">-&#10;</tspan><tspan x="121.427" y="180.961">-</tspan></text>
<g opacity="0.5">
<mask id="path-16-inside-4_26_74" fill="white">
<path d="M-7 -7H217V105H-7V-7Z"/>
</mask>
<path d="M-7 -7H217V105H-7V-7Z" fill="#E98D61"/>
<path d="M-7 -7V-14H-14V-7H-7ZM217 -7H224V-14H217V-7ZM217 105V112H224V105H217ZM-7 105H-14V112H-7V105ZM-7 0H217V-14H-7V0ZM210 -7V105H224V-7H210ZM217 98H-7V112H217V98ZM0 105V-7H-14V105H0Z" fill="white" mask="url(#path-16-inside-4_26_74)"/>
</g>
<rect x="15" y="55.4425" width="84" height="27.7522" rx="4" fill="white"/>
<text fill="black" fill-opacity="0.8" xml:space="preserve" style="white-space: pre" font-family="Barlow Condensed" font-size="8" letter-spacing="0em"><tspan x="95.9219" y="68.1186"> </tspan><tspan x="50.1406" y="76.1186">l&#xf6;sen</tspan></text>
<text fill="black" fill-opacity="0.8" xml:space="preserve" style="white-space: pre" font-family="Barlow Condensed" font-size="8" font-weight="bold" letter-spacing="0em"><tspan x="18.0781" y="68.1186">Anspruchsvollere Probleme</tspan></text>
<rect x="113" y="21.7433" width="84" height="27.7522" rx="4" fill="white"/>
<text fill="black" fill-opacity="0.8" xml:space="preserve" style="white-space: pre" font-family="Barlow Condensed" font-size="8" letter-spacing="0em"><tspan x="141.938" y="30.4195">Exzellente </tspan><tspan x="186.258" y="38.4195"> </tspan><tspan x="128.141" y="46.4195">gewinnen und halten</tspan></text>
<text fill="black" fill-opacity="0.8" xml:space="preserve" style="white-space: pre" font-family="Barlow Condensed" font-size="8" font-weight="600" letter-spacing="0em"><tspan x="123.742" y="38.4195">Nachwuchsforschende</tspan></text>
<path d="M155.707 49.815C155.317 49.4245 154.683 49.4245 154.293 49.815L147.929 56.1789C147.538 56.5695 147.538 57.2026 147.929 57.5932C148.319 57.9837 148.953 57.9837 149.343 57.5932L155 51.9363L160.657 57.5932C161.047 57.9837 161.681 57.9837 162.071 57.5932C162.462 57.2026 162.462 56.5695 162.071 56.1789L155.707 49.815ZM100 70.3186H136.071V68.3186H100V70.3186ZM143 77.2478V79.677H145V77.2478H143ZM156 79.677V50.5221H154V79.677H156ZM149.5 86.177C153.09 86.177 156 83.2669 156 79.677H154C154 82.1623 151.985 84.177 149.5 84.177V86.177ZM143 79.677C143 83.2669 145.91 86.177 149.5 86.177V84.177C147.015 84.177 145 82.1623 145 79.677H143ZM136.071 70.3186C139.898 70.3186 143 73.4209 143 77.2478H145C145 72.3164 141.002 68.3186 136.071 68.3186V70.3186Z" fill="#333333"/>
<path d="M57.7071 86.4876C57.3166 86.0971 56.6834 86.0971 56.2929 86.4876L49.9289 92.8516C49.5384 93.2421 49.5384 93.8752 49.9289 94.2658C50.3195 94.6563 50.9526 94.6563 51.3431 94.2658L57 88.6089L62.6569 94.2658C63.0474 94.6563 63.6805 94.6563 64.0711 94.2658C64.4616 93.8752 64.4616 93.2421 64.0711 92.8516L57.7071 86.4876ZM42 131H43H42ZM42 131H43H42ZM105.502 174V154H103.502V174H105.502ZM80.5022 129H43V131H80.5022V129ZM43 133H49.5V131H43V133ZM58 124.5V87.1947H56V124.5H58ZM49.5 133C54.1944 133 58 129.194 58 124.5H56C56 128.09 53.0899 131 49.5 131V133ZM41 131C41 132.105 41.8954 133 43 133V131L43 131H41ZM43 129C41.8954 129 41 129.895 41 131H43L43 131V129ZM105.502 154C105.502 140.193 94.3094 129 80.5022 129V131C93.2048 131 103.502 141.297 103.502 154H105.502Z" fill="#333333"/>
<path d="M146.622 188.293C146.231 188.683 146.231 189.317 146.622 189.707L152.986 196.071C153.376 196.462 154.009 196.462 154.4 196.071C154.79 195.681 154.79 195.047 154.4 194.657L148.743 189L154.4 183.343C154.79 182.953 154.79 182.319 154.4 181.929C154.009 181.538 153.376 181.538 152.986 181.929L146.622 188.293ZM155 290V253.5H153V290H155ZM170 238.5V210.671H168V238.5H170ZM170 210.671C170 198.15 159.85 188 147.329 188V190C158.745 190 168 199.255 168 210.671H170ZM161.5 247C166.194 247 170 243.194 170 238.5H168C168 242.09 165.09 245 161.5 245V247ZM155 253.5C155 249.91 157.91 247 161.5 247V245C156.806 245 153 248.806 153 253.5H155Z" fill="#333333"/>
<g filter="url(#filter1_d_26_74)">
<rect x="75" y="140" width="63" height="14" fill="white" fill-opacity="0.7"/>
<text fill="black" fill-opacity="0.8" xml:space="preserve" style="white-space: pre" font-family="Barlow Condensed" font-size="6" font-weight="500" letter-spacing="0em"><tspan x="91.708" y="146.1">Workshops zur </tspan><tspan x="88.1367" y="152.1">Verbundforschung</tspan></text>
</g>
<g filter="url(#filter2_d_26_74)">
<rect x="75" y="224" width="63" height="14" fill="white" fill-opacity="0.7"/>
<text fill="black" fill-opacity="0.8" xml:space="preserve" style="white-space: pre" font-family="Barlow Condensed" font-size="6" font-weight="500" letter-spacing="0em"><tspan x="86.9678" y="230.1">Forschungsagenda &#10;</tspan><tspan x="89.458" y="236.1">weiterentwickeln</tspan></text>
</g>
<rect x="14" y="315" width="84" height="28" rx="4" fill="white"/>
<text fill="black" fill-opacity="0.8" xml:space="preserve" style="white-space: pre" font-family="Barlow Condensed" font-size="8" letter-spacing="0em"><tspan x="33.7109" y="327.8">Kritische Defizite &#x2028;</tspan><tspan x="34.4883" y="335.8">besser erkennen</tspan></text>
<path d="M55.2929 311.707C55.6834 312.098 56.3166 312.098 56.7071 311.707L63.0711 305.343C63.4616 304.953 63.4616 304.319 63.0711 303.929C62.6805 303.538 62.0474 303.538 61.6569 303.929L56 309.586L50.3431 303.929C49.9526 303.538 49.3195 303.538 48.9289 303.929C48.5384 304.319 48.5384 304.953 48.9289 305.343L55.2929 311.707ZM26 245.5H27H26ZM26 245.5H27H26ZM71 230H40.5V232H71V230ZM40.5 261H41V259H40.5V261ZM55 275V311H57V275H55ZM41 261C48.732 261 55 267.268 55 275H57C57 266.163 49.8366 259 41 259V261ZM25 245.5C25 254.06 31.9396 261 40.5 261V259C33.0442 259 27 252.956 27 245.5H25ZM40.5 230C31.9396 230 25 236.94 25 245.5H27C27 238.044 33.0442 232 40.5 232V230Z" fill="#333333"/>
<g opacity="0.1">
<mask id="path-32-inside-5_26_74" fill="white">
<path d="M-7 357H217V441H-7V357Z"/>
</mask>
<path d="M-7 357H217V441H-7V357Z" fill="#5AB983"/>
<path d="M-7 357V350H-14V357H-7ZM217 357H224V350H217V357ZM217 441V448H224V441H217ZM-7 441H-14V448H-7V441ZM-7 364H217V350H-7V364ZM210 357V441H224V357H210ZM217 434H-7V448H217V434ZM0 441V357H-14V441H0Z" fill="white" mask="url(#path-32-inside-5_26_74)"/>
</g>
<g filter="url(#filter3_d_26_74)">
<rect x="69" y="389" width="84" height="21" rx="7" fill="white"/>
<text fill="black" xml:space="preserve" style="white-space: pre" font-family="Barlow Condensed" font-size="8" letter-spacing="0em"><tspan x="75.0664" y="402.3">Finanzierung der Forschung</tspan></text>
</g>
<defs>
<filter id="filter0_d_26_74" x="107.473" y="319.903" width="91.6283" height="29.9041" filterUnits="userSpaceOnUse" color-interpolation-filters="sRGB">
<feFlood flood-opacity="0" result="BackgroundImageFix"/>
<feColorMatrix in="SourceAlpha" type="matrix" values="0 0 0 0 0 0 0 0 0 0 0 0 0 0 0 0 0 0 127 0" result="hardAlpha"/>
<feOffset/>
<feGaussianBlur stdDeviation="2"/>
<feComposite in2="hardAlpha" operator="out"/>
<feColorMatrix type="matrix" values="0 0 0 0 0 0 0 0 0 0 0 0 0 0 0 0 0 0 0.25 0"/>
<feBlend mode="normal" in2="BackgroundImageFix" result="effect1_dropShadow_26_74"/>
<feBlend mode="normal" in="SourceGraphic" in2="effect1_dropShadow_26_74" result="shape"/>
</filter>
<filter id="filter1_d_26_74" x="68" y="133" width="77" height="28" filterUnits="userSpaceOnUse" color-interpolation-filters="sRGB">
<feFlood flood-opacity="0" result="BackgroundImageFix"/>
<feColorMatrix in="SourceAlpha" type="matrix" values="0 0 0 0 0 0 0 0 0 0 0 0 0 0 0 0 0 0 127 0" result="hardAlpha"/>
<feOffset/>
<feGaussianBlur stdDeviation="3.5"/>
<feComposite in2="hardAlpha" operator="out"/>
<feColorMatrix type="matrix" values="0 0 0 0 0 0 0 0 0 0 0 0 0 0 0 0 0 0 0.25 0"/>
<feBlend mode="normal" in2="BackgroundImageFix" result="effect1_dropShadow_26_74"/>
<feBlend mode="normal" in="SourceGraphic" in2="effect1_dropShadow_26_74" result="shape"/>
</filter>
<filter id="filter2_d_26_74" x="68" y="217" width="77" height="28" filterUnits="userSpaceOnUse" color-interpolation-filters="sRGB">
<feFlood flood-opacity="0" result="BackgroundImageFix"/>
<feColorMatrix in="SourceAlpha" type="matrix" values="0 0 0 0 0 0 0 0 0 0 0 0 0 0 0 0 0 0 127 0" result="hardAlpha"/>
<feOffset/>
<feGaussianBlur stdDeviation="3.5"/>
<feComposite in2="hardAlpha" operator="out"/>
<feColorMatrix type="matrix" values="0 0 0 0 0 0 0 0 0 0 0 0 0 0 0 0 0 0 0.25 0"/>
<feBlend mode="normal" in2="BackgroundImageFix" result="effect1_dropShadow_26_74"/>
<feBlend mode="normal" in="SourceGraphic" in2="effect1_dropShadow_26_74" result="shape"/>
</filter>
<filter id="filter3_d_26_74" x="65" y="385" width="92" height="29" filterUnits="userSpaceOnUse" color-interpolation-filters="sRGB">
<feFlood flood-opacity="0" result="BackgroundImageFix"/>
<feColorMatrix in="SourceAlpha" type="matrix" values="0 0 0 0 0 0 0 0 0 0 0 0 0 0 0 0 0 0 127 0" result="hardAlpha"/>
<feOffset/>
<feGaussianBlur stdDeviation="2"/>
<feComposite in2="hardAlpha" operator="out"/>
<feColorMatrix type="matrix" values="0 0 0 0 0 0 0 0 0 0 0 0 0 0 0 0 0 0 0.25 0"/>
<feBlend mode="normal" in2="BackgroundImageFix" result="effect1_dropShadow_26_74"/>
<feBlend mode="normal" in="SourceGraphic" in2="effect1_dropShadow_26_74" result="shape"/>
</filter>
</defs>
</svg>
