<svg width="210" height="490" viewBox="0 0 210 490" fill="none" xmlns="http://www.w3.org/2000/svg">
<mask id="path-1-inside-1_18_298" fill="white">
<path d="M-7 441H218V499H-7V441Z"/>
</mask>
<path d="M-7 441H218V499H-7V441Z" fill="#5AB983"/>
<path d="M-7 441V434H-14V441H-7ZM218 441H225V434H218V441ZM218 499V506H225V499H218ZM-7 499H-14V506H-7V499ZM-7 448H218V434H-7V448ZM211 441V499H225V441H211ZM218 492H-7V506H218V492ZM0 499V441H-14V499H0Z" fill="white" mask="url(#path-1-inside-1_18_298)"/>
<text fill="black" xml:space="preserve" style="white-space: pre" font-family="Barlow Condensed" font-size="14" font-weight="bold" letter-spacing="0.07em"><tspan x="88.0361" y="472.8">LEHRE</tspan></text>
<g opacity="0.1">
<mask id="path-4-inside-2_18_298" fill="white">
<path d="M-7 357H217V441H-7V357Z"/>
</mask>
<path d="M-7 357H217V441H-7V357Z" fill="#5AB983"/>
<path d="M-7 357V350H-14V357H-7ZM217 357H224V350H217V357ZM217 441V448H224V441H217ZM-7 441H-14V448H-7V441ZM-7 364H217V350H-7V364ZM210 357V441H224V357H210ZM217 434H-7V448H217V434ZM0 441V357H-14V441H0Z" fill="white" mask="url(#path-4-inside-2_18_298)"/>
</g>
<g filter="url(#filter0_d_18_298)">
<rect x="63" y="388" width="84" height="21" rx="7" fill="white"/>
<text fill="black" xml:space="preserve" style="white-space: pre" font-family="Barlow Condensed" font-size="8" letter-spacing="0em"><tspan x="75.2188" y="401.3">Finanzierung der Lehre</tspan></text>
</g>
<g opacity="0.25">
<mask id="path-8-inside-3_18_298" fill="white">
<path d="M-7 273H217V357H-7V273Z"/>
</mask>
<path d="M-7 273H217V357H-7V273Z" fill="#5AB983"/>
<path d="M-7 273V266H-14V273H-7ZM217 273H224V266H217V273ZM217 357V364H224V357H217ZM-7 357H-14V364H-7V357ZM-7 280H217V266H-7V280ZM210 273V357H224V273H210ZM217 350H-7V364H217V350ZM0 357V273H-14V357H0Z" fill="white" mask="url(#path-8-inside-3_18_298)"/>
</g>
<g filter="url(#filter1_d_18_298)">
<rect x="62" y="292" width="84" height="24" rx="7" fill="white"/>
<text fill="black" xml:space="preserve" style="white-space: pre" font-family="Barlow Condensed" font-size="8" letter-spacing="0em"><tspan x="100.574" y="302.8"> zu Kooperation &#x2028;</tspan><tspan x="76.0859" y="310.8">in der Lehre </tspan><tspan x="131.914" y="310.8"> </tspan></text>
<text fill="black" xml:space="preserve" style="white-space: pre" font-family="Barlow Condensed" font-size="8" font-weight="bold" letter-spacing="0em"><tspan x="65.6914" y="302.8">Bereitschaft</tspan><tspan x="108.625" y="310.8">erh&#xf6;hen</tspan></text>
</g>
<g filter="url(#filter2_d_18_298)">
<rect x="62" y="322" width="84" height="24" rx="7" fill="white"/>
<text fill="black" xml:space="preserve" style="white-space: pre" font-family="Barlow Condensed" font-size="8" letter-spacing="0em"><tspan x="92.3867" y="332.8"> von Kooperation &#x2028;</tspan><tspan x="74.457" y="340.8">in der Lehre </tspan><tspan x="133.543" y="340.8"> </tspan></text>
<text fill="black" xml:space="preserve" style="white-space: pre" font-family="Barlow Condensed" font-size="8" font-weight="bold" letter-spacing="0em"><tspan x="70.5664" y="332.8">Vorteile</tspan><tspan x="106.996" y="340.8">erkennen</tspan></text>
</g>
<path d="M58.7071 304.707C59.0976 304.317 59.0976 303.683 58.7071 303.293L52.3431 296.929C51.9526 296.538 51.3195 296.538 50.9289 296.929C50.5384 297.319 50.5384 297.953 50.9289 298.343L56.5858 304L50.9289 309.657C50.5384 310.047 50.5384 310.681 50.9289 311.071C51.3195 311.462 51.9526 311.462 52.3431 311.071L58.7071 304.707ZM30 319H31H30ZM30 319H31H30ZM58 333H45V335H58V333ZM45 305H58V303H45V305ZM31 319C31 311.268 37.268 305 45 305V303C36.1634 303 29 310.163 29 319H31ZM45 333C37.268 333 31 326.732 31 319H29C29 327.837 36.1634 335 45 335V333Z" fill="#333333"/>
<g opacity="0.5">
<mask id="path-15-inside-4_18_298" fill="white">
<path d="M-7 105H217V273H-7V105Z"/>
</mask>
<path d="M-7 105H217V273H-7V105Z" fill="#5AB983" fill-opacity="0.75"/>
<path d="M-7 105V98H-14V105H-7ZM217 105H224V98H217V105ZM217 273V280H224V273H217ZM-7 273H-14V280H-7V273ZM-7 112H217V98H-7V112ZM210 105V273H224V105H210ZM217 266H-7V280H217V266ZM0 273V105H-14V273H0Z" fill="white" mask="url(#path-15-inside-4_18_298)"/>
</g>
<path d="M63.1768 135.784C63.0791 135.687 62.9209 135.687 62.8232 135.784L61.2322 137.375C61.1346 137.473 61.1346 137.631 61.2322 137.729C61.3299 137.826 61.4882 137.826 61.5858 137.729L63 136.315L64.4142 137.729C64.5118 137.826 64.6701 137.826 64.7678 137.729C64.8654 137.631 64.8654 137.473 64.7678 137.375L63.1768 135.784ZM62.75 136.487C62.75 136.625 62.8619 136.737 63 136.737C63.1381 136.737 63.25 136.625 63.25 136.487H62.75ZM63.25 137.539C63.25 137.401 63.1381 137.289 63 137.289C62.8619 137.289 62.75 137.401 62.75 137.539H63.25ZM62.75 138.591C62.75 138.729 62.8619 138.841 63 138.841C63.1381 138.841 63.25 138.729 63.25 138.591H62.75ZM63.25 139.643C63.25 139.505 63.1381 139.393 63 139.393C62.8619 139.393 62.75 139.505 62.75 139.643H63.25ZM62.75 140.695C62.75 140.833 62.8619 140.945 63 140.945C63.1381 140.945 63.25 140.833 63.25 140.695H62.75ZM63.25 141.747C63.25 141.609 63.1381 141.497 63 141.497C62.8619 141.497 62.75 141.609 62.75 141.747H63.25ZM62.75 142.799C62.75 142.937 62.8619 143.049 63 143.049C63.1381 143.049 63.25 142.937 63.25 142.799H62.75ZM63.25 143.851C63.25 143.713 63.1381 143.601 63 143.601C62.8619 143.601 62.75 143.713 62.75 143.851H63.25ZM62.75 144.903C62.75 145.041 62.8619 145.153 63 145.153C63.1381 145.153 63.25 145.041 63.25 144.903H62.75ZM63.25 145.955C63.25 145.816 63.1381 145.705 63 145.705C62.8619 145.705 62.75 145.816 62.75 145.955H63.25ZM62.75 135.961V136.487H63.25V135.961H62.75ZM62.75 137.539V138.591H63.25V137.539H62.75ZM62.75 139.643V140.695H63.25V139.643H62.75ZM62.75 141.747V142.799H63.25V141.747H62.75ZM62.75 143.851V144.903H63.25V143.851H62.75ZM62.75 145.955V146.481H63.25V145.955H62.75Z" fill="#333333"/>
<path d="M28 181.5H14" stroke="#333333" stroke-width="0.5" stroke-linejoin="round" stroke-dasharray="1 1"/>
<path d="M28 202.5H14" stroke="#333333" stroke-width="0.5" stroke-linejoin="round" stroke-dasharray="1 1"/>
<path d="M28 223.5H14" stroke="#333333" stroke-width="0.5" stroke-linejoin="round" stroke-dasharray="1 1"/>
<path d="M13.8232 153.823C13.9209 153.726 14.0791 153.726 14.1768 153.823L15.7678 155.414C15.8654 155.512 15.8654 155.67 15.7678 155.768C15.6701 155.865 15.5118 155.865 15.4142 155.768L14 154.354L12.5858 155.768C12.4882 155.865 12.3299 155.865 12.2322 155.768C12.1346 155.67 12.1346 155.512 12.2322 155.414L13.8232 153.823ZM13.75 224L13.75 223.5L14.25 223.5L14.25 224L13.75 224ZM13.75 222.5L13.75 221.5L14.25 221.5L14.25 222.5L13.75 222.5ZM13.75 220.5L13.75 219.5L14.25 219.5L14.25 220.5L13.75 220.5ZM13.75 218.5L13.75 217.5L14.25 217.5L14.25 218.5L13.75 218.5ZM13.75 216.5L13.75 215.5L14.25 215.5L14.25 216.5L13.75 216.5ZM13.75 214.5L13.75 213.5L14.25 213.5L14.25 214.5L13.75 214.5ZM13.75 212.5L13.75 211.5L14.25 211.5L14.25 212.5L13.75 212.5ZM13.75 210.5L13.75 209.5L14.25 209.5L14.25 210.5L13.75 210.5ZM13.75 208.5L13.75 207.5L14.25 207.5L14.25 208.5L13.75 208.5ZM13.75 206.5L13.75 205.5L14.25 205.5L14.25 206.5L13.75 206.5ZM13.75 204.5L13.75 203.5L14.25 203.5L14.25 204.5L13.75 204.5ZM13.75 202.5L13.75 201.5L14.25 201.5L14.25 202.5L13.75 202.5ZM13.75 200.5L13.75 199.5L14.25 199.5L14.25 200.5L13.75 200.5ZM13.75 198.5L13.75 197.5L14.25 197.5L14.25 198.5L13.75 198.5ZM13.75 196.5L13.75 195.5L14.25 195.5L14.25 196.5L13.75 196.5ZM13.75 194.5L13.75 193.5L14.25 193.5L14.25 194.5L13.75 194.5ZM13.75 192.5L13.75 191.5L14.25 191.5L14.25 192.5L13.75 192.5ZM13.75 190.5L13.75 189.5L14.25 189.5L14.25 190.5L13.75 190.5ZM13.75 188.5L13.75 187.5L14.25 187.5L14.25 188.5L13.75 188.5ZM13.75 186.5L13.75 185.5L14.25 185.5L14.25 186.5L13.75 186.5ZM13.75 184.5L13.75 183.5L14.25 183.5L14.25 184.5L13.75 184.5ZM13.75 182.5L13.75 181.5L14.25 181.5L14.25 182.5L13.75 182.5ZM13.75 180.5L13.75 179.5L14.25 179.5L14.25 180.5L13.75 180.5ZM13.75 178.5L13.75 177.5L14.25 177.5L14.25 178.5L13.75 178.5ZM13.75 176.5L13.75 175.5L14.25 175.5L14.25 176.5L13.75 176.5ZM13.75 174.5L13.75 173.5L14.25 173.5L14.25 174.5L13.75 174.5ZM13.75 172.5L13.75 171.5L14.25 171.5L14.25 172.5L13.75 172.5ZM13.75 170.5L13.75 169.5L14.25 169.5L14.25 170.5L13.75 170.5ZM13.75 168.5L13.75 167.5L14.25 167.5L14.25 168.5L13.75 168.5ZM13.75 166.5L13.75 165.5L14.25 165.5L14.25 166.5L13.75 166.5ZM13.75 164.5L13.75 163.5L14.25 163.5L14.25 164.5L13.75 164.5ZM13.75 162.5L13.75 161.5L14.25 161.5L14.25 162.5L13.75 162.5ZM13.75 160.5L13.75 159.5L14.25 159.5L14.25 160.5L13.75 160.5ZM13.75 158.5L13.75 157.5L14.25 157.5L14.25 158.5L13.75 158.5ZM13.75 156.5L13.75 155.5L14.25 155.5L14.25 156.5L13.75 156.5ZM13.75 154.5L13.75 154L14.25 154L14.25 154.5L13.75 154.5Z" fill="#333333"/>
<path d="M145.823 177.177C145.921 177.274 146.079 177.274 146.177 177.177L147.768 175.586C147.865 175.488 147.865 175.33 147.768 175.232C147.67 175.135 147.512 175.135 147.414 175.232L146 176.646L144.586 175.232C144.488 175.135 144.33 175.135 144.232 175.232C144.135 175.33 144.135 175.488 144.232 175.586L145.823 177.177ZM146.25 176.5C146.25 176.362 146.138 176.25 146 176.25C145.862 176.25 145.75 176.362 145.75 176.5L146.25 176.5ZM145.75 175.5C145.75 175.638 145.862 175.75 146 175.75C146.138 175.75 146.25 175.638 146.25 175.5L145.75 175.5ZM146.25 174.5C146.25 174.362 146.138 174.25 146 174.25C145.862 174.25 145.75 174.362 145.75 174.5L146.25 174.5ZM145.75 173.5C145.75 173.638 145.862 173.75 146 173.75C146.138 173.75 146.25 173.638 146.25 173.5L145.75 173.5ZM146.25 172.5C146.25 172.362 146.138 172.25 146 172.25C145.862 172.25 145.75 172.362 145.75 172.5L146.25 172.5ZM145.75 171.5C145.75 171.638 145.862 171.75 146 171.75C146.138 171.75 146.25 171.638 146.25 171.5L145.75 171.5ZM146.25 170.5C146.25 170.362 146.138 170.25 146 170.25C145.862 170.25 145.75 170.362 145.75 170.5L146.25 170.5ZM145.75 169.5C145.75 169.638 145.862 169.75 146 169.75C146.138 169.75 146.25 169.638 146.25 169.5L145.75 169.5ZM146.25 168.5C146.25 168.362 146.138 168.25 146 168.25C145.862 168.25 145.75 168.362 145.75 168.5L146.25 168.5ZM145.75 167.5C145.75 167.638 145.862 167.75 146 167.75C146.138 167.75 146.25 167.638 146.25 167.5L145.75 167.5ZM146.25 166.5C146.25 166.362 146.138 166.25 146 166.25C145.862 166.25 145.75 166.362 145.75 166.5L146.25 166.5ZM145.75 165.5C145.75 165.638 145.862 165.75 146 165.75C146.138 165.75 146.25 165.638 146.25 165.5L145.75 165.5ZM146.25 164.5C146.25 164.362 146.138 164.25 146 164.25C145.862 164.25 145.75 164.362 145.75 164.5L146.25 164.5ZM145.75 163.5C145.75 163.638 145.862 163.75 146 163.75C146.138 163.75 146.25 163.638 146.25 163.5L145.75 163.5ZM146.25 162.5C146.25 162.362 146.138 162.25 146 162.25C145.862 162.25 145.75 162.362 145.75 162.5L146.25 162.5ZM145.75 161.5C145.75 161.638 145.862 161.75 146 161.75C146.138 161.75 146.25 161.638 146.25 161.5L145.75 161.5ZM146.25 177L146.25 176.5L145.75 176.5L145.75 177L146.25 177ZM146.25 175.5L146.25 174.5L145.75 174.5L145.75 175.5L146.25 175.5ZM146.25 173.5L146.25 172.5L145.75 172.5L145.75 173.5L146.25 173.5ZM146.25 171.5L146.25 170.5L145.75 170.5L145.75 171.5L146.25 171.5ZM146.25 169.5L146.25 168.5L145.75 168.5L145.75 169.5L146.25 169.5ZM146.25 167.5L146.25 166.5L145.75 166.5L145.75 167.5L146.25 167.5ZM146.25 165.5L146.25 164.5L145.75 164.5L145.75 165.5L146.25 165.5ZM146.25 163.5L146.25 162.5L145.75 162.5L145.75 163.5L146.25 163.5ZM146.25 161.5L146.25 161L145.75 161L145.75 161.5L146.25 161.5Z" fill="#333333"/>
<path d="M131.823 177.177C131.921 177.274 132.079 177.274 132.177 177.177L133.768 175.586C133.865 175.488 133.865 175.33 133.768 175.232C133.67 175.135 133.512 175.135 133.414 175.232L132 176.646L130.586 175.232C130.488 175.135 130.33 175.135 130.232 175.232C130.135 175.33 130.135 175.488 130.232 175.586L131.823 177.177ZM132.25 177V176.513L131.75 176.513V177L132.25 177ZM132.25 175.539V174.566L131.75 174.566V175.539L132.25 175.539ZM132.25 173.592L132.25 172.618L131.75 172.618L131.75 173.592L132.25 173.592ZM132.25 171.645V170.671L131.75 170.671V171.645L132.25 171.645ZM132.25 169.697V168.724L131.75 168.724V169.697L132.25 169.697ZM132.25 167.75V166.776L131.75 166.776V167.75L132.25 167.75ZM132.25 165.803L132.25 164.829L131.75 164.829L131.75 165.803L132.25 165.803ZM132.25 163.855V162.882L131.75 162.882V163.855L132.25 163.855ZM132.25 161.908V160.934L131.75 160.934V161.908L132.25 161.908ZM132.25 159.961V158.987L131.75 158.987V159.961L132.25 159.961ZM132.25 158.013L132.25 157.039L131.75 157.039L131.75 158.013L132.25 158.013ZM132.25 156.066V155.092L131.75 155.092V156.066L132.25 156.066ZM132.25 154.118V153.145L131.75 153.145V154.118L132.25 154.118ZM132.25 152.171V151.197L131.75 151.197V152.171L132.25 152.171ZM132.25 150.224L132.25 149.25L131.75 149.25L131.75 150.224L132.25 150.224ZM132.25 148.276V147.303L131.75 147.303V148.276L132.25 148.276ZM132.25 146.329V145.355L131.75 145.355V146.329L132.25 146.329ZM132.25 144.382V143.408L131.75 143.408V144.382L132.25 144.382ZM132.25 142.434L132.25 141.461L131.75 141.461L131.75 142.434L132.25 142.434ZM132.25 140.487V140L131.75 140V140.487L132.25 140.487Z" fill="#333333"/>
<g filter="url(#filter3_d_18_298)">
<rect x="118" y="126" width="63" height="14" fill="white" fill-opacity="0.8"/>
<text fill="black" fill-opacity="0.8" xml:space="preserve" style="white-space: pre" font-family="Barlow Condensed" font-size="6" font-weight="500" letter-spacing="0em"><tspan x="127.469" y="132.1">Lattice-Repository f&#xfc;r </tspan><tspan x="129.358" y="138.1">interaktive &#xdc;bungen</tspan></text>
</g>
<g filter="url(#filter4_d_18_298)">
<rect x="140" y="147" width="63" height="14" fill="white" fill-opacity="0.8"/>
<text fill="black" fill-opacity="0.8" xml:space="preserve" style="white-space: pre" font-family="Barlow Condensed" font-size="6" font-weight="500" letter-spacing="0em"><tspan x="158.735" y="156.1">Open Access</tspan></text>
</g>
<rect x="119" y="205.039" width="84" height="52.5974" rx="2" fill="white" fill-opacity="0.5"/>
<text fill="black" fill-opacity="0.8" xml:space="preserve" style="white-space: pre" font-family="Barlow Condensed" font-size="6" font-weight="500" letter-spacing="0em"><tspan x="126" y="217.016">als agiles Open-Source-Projekt;&#x2028;</tspan><tspan x="126" y="223.016">Basismodule und Spezialmodule </tspan><tspan x="126" y="229.016">uniweit identifizieren&#x2028;</tspan><tspan x="126" y="235.016">didaktisch exzellente </tspan><tspan x="126" y="241.016">Modulvorlagen definieren&#x2028;</tspan><tspan x="126" y="247.016">Module arbeitsteilig und </tspan><tspan x="126" y="253.016">inkrementell optimieren</tspan></text>
<g filter="url(#filter5_d_18_298)">
<rect x="119" y="177.636" width="84" height="28" rx="7" fill="white"/>
<text fill="black" fill-opacity="0.8" xml:space="preserve" style="white-space: pre" font-family="Barlow Condensed" font-size="8" letter-spacing="0em"><tspan x="178.883" y="186.436"> </tspan><tspan x="129.465" y="194.436">universit&#xe4;ts&#xfc;bergreifend </tspan></text>
<text fill="black" fill-opacity="0.8" xml:space="preserve" style="white-space: pre" font-family="Barlow Condensed" font-size="8" font-weight="bold" letter-spacing="0em"><tspan x="143.117" y="186.436">Lehrangebot</tspan><tspan x="145.711" y="202.436">optimieren</tspan></text>
</g>
<g filter="url(#filter6_d_18_298)">
<rect x="28" y="196" width="63" height="14" fill="white" fill-opacity="0.8"/>
<text fill="black" fill-opacity="0.8" xml:space="preserve" style="white-space: pre" font-family="Barlow Condensed" font-size="6" font-weight="500" letter-spacing="0em"><tspan x="32.0957" y="205.1">Dissertationsdatenbank 2.0</tspan></text>
</g>
<g filter="url(#filter7_d_18_298)">
<rect x="28" y="217" width="63" height="21" fill="white" fill-opacity="0.7"/>
<text fill="black" fill-opacity="0.8" xml:space="preserve" style="white-space: pre" font-family="Barlow Condensed" font-size="6" font-weight="500" letter-spacing="0em"><tspan x="39.0273" y="223.6">Studierende aus den </tspan><tspan x="34.3809" y="229.6">Ingenieurwissenschaften </tspan><tspan x="46.9697" y="235.6">einschlie&#xdf;en</tspan></text>
</g>
<g filter="url(#filter8_d_18_298)">
<rect x="5" y="126" width="84" height="28" rx="7" fill="white"/>
<text fill="black" xml:space="preserve" style="white-space: pre" font-family="Barlow Condensed" font-size="8" letter-spacing="0em"><tspan x="64.8828" y="134.8"> </tspan><tspan x="15.4648" y="142.8">universit&#xe4;ts&#xfc;bergreifend </tspan></text>
<text fill="black" xml:space="preserve" style="white-space: pre" font-family="Barlow Condensed" font-size="8" font-weight="bold" letter-spacing="0em"><tspan x="29.1172" y="134.8">Lehrangebot</tspan><tspan x="33.0391" y="150.8">bewerben</tspan></text>
</g>
<g filter="url(#filter9_d_18_298)">
<rect x="28" y="175" width="63" height="14" fill="white" fill-opacity="0.8"/>
<text fill="black" fill-opacity="0.8" xml:space="preserve" style="white-space: pre" font-family="Barlow Condensed" font-size="6" font-weight="500" letter-spacing="0em"><tspan x="32.1309" y="181.1">Microsite zu Studieng&#xe4;ngen </tspan><tspan x="33.1328" y="187.1">und Beschleunigerschulen</tspan></text>
</g>
<g opacity="0.75">
<mask id="path-40-inside-5_18_298" fill="white">
<path d="M-7 -7H217V105H-7V-7Z"/>
</mask>
<path d="M-7 -7H217V105H-7V-7Z" fill="#5AB983"/>
<path d="M-7 -7V-14H-14V-7H-7ZM217 -7H224V-14H217V-7ZM217 105V112H224V105H217ZM-7 105H-14V112H-7V105ZM-7 0H217V-14H-7V0ZM210 -7V105H224V-7H210ZM217 98H-7V112H217V98ZM0 105V-7H-14V105H0Z" fill="white" mask="url(#path-40-inside-5_18_298)"/>
</g>
<g filter="url(#filter10_d_18_298)">
<rect x="63" y="63" width="84" height="21" rx="7" fill="white"/>
<text fill="black" xml:space="preserve" style="white-space: pre" font-family="Barlow Condensed" font-size="8" font-weight="bold" letter-spacing="0em"><tspan x="72.625" y="76.3">Exzellente Studierende </tspan></text>
</g>
<g filter="url(#filter11_d_18_298)">
<rect x="63" y="22" width="84" height="21" rx="7" fill="white"/>
<text fill="black" fill-opacity="0.8" xml:space="preserve" style="white-space: pre" font-family="Barlow Condensed" font-size="8" letter-spacing="0em"><tspan x="91.9375" y="31.3">Exzellente </tspan><tspan x="137.336" y="39.3"> </tspan></text>
<text fill="black" fill-opacity="0.8" xml:space="preserve" style="white-space: pre" font-family="Barlow Condensed" font-size="8" font-weight="bold" letter-spacing="0em"><tspan x="72.6641" y="39.3">Nachwuchsforschende</tspan></text>
</g>
<path d="M105.707 46.2928C105.317 45.9023 104.683 45.9023 104.293 46.2928L97.9289 52.6568C97.5384 53.0473 97.5384 53.6805 97.9289 54.071C98.3195 54.4615 98.9526 54.4615 99.3431 54.071L105 48.4142L110.657 54.071C111.047 54.4615 111.681 54.4615 112.071 54.071C112.462 53.6805 112.462 53.0473 112.071 52.6568L105.707 46.2928ZM106 58.9999V46.9999H104V58.9999H106Z" fill="#333333"/>
<path d="M105.707 87.2929C105.317 86.9024 104.683 86.9024 104.293 87.2929L97.9289 93.6569C97.5384 94.0474 97.5384 94.6805 97.9289 95.0711C98.3195 95.4616 98.9526 95.4616 99.3431 95.0711L105 89.4142L110.657 95.0711C111.047 95.4616 111.681 95.4616 112.071 95.0711C112.462 94.6805 112.462 94.0474 112.071 93.6569L105.707 87.2929ZM106 181.636V88H104V181.636H106ZM115 190.636C110.029 190.636 106 186.607 106 181.636H104C104 187.711 108.925 192.636 115 192.636V190.636Z" fill="#333333"/>
<path d="M104 288V202.636C104 196.561 108.925 191.636 115 191.636V191.636" stroke="#333333" stroke-width="2" stroke-linejoin="bevel"/>
<path d="M92.2929 139.293C91.9024 139.683 91.9024 140.317 92.2929 140.707L98.6569 147.071C99.0474 147.462 99.6805 147.462 100.071 147.071C100.462 146.681 100.462 146.047 100.071 145.657L94.4142 140L100.071 134.343C100.462 133.953 100.462 133.319 100.071 132.929C99.6805 132.538 99.0474 132.538 98.6569 132.929L92.2929 139.293ZM105 288V151H103V288H105ZM105 151C105 144.373 99.6274 139 93 139V141C98.5228 141 103 145.477 103 151H105Z" fill="#333333"/>
<path d="M105.707 87.2929C105.317 86.9024 104.683 86.9024 104.293 87.2929L97.9289 93.6569C97.5384 94.0474 97.5384 94.6805 97.9289 95.0711C98.3195 95.4616 98.9526 95.4616 99.3431 95.0711L105 89.4142L110.657 95.0711C111.047 95.4616 111.681 95.4616 112.071 95.0711C112.462 94.6805 112.462 94.0474 112.071 93.6569L105.707 87.2929ZM105 88H106H105ZM47 122H48H47ZM64 106H88V104H64V106ZM88 106C97.9411 106 106 97.9411 106 88H104C104 96.8366 96.8366 104 88 104V106ZM48 122C48 113.163 55.1634 106 64 106V104C54.0589 104 46 112.059 46 122H48Z" fill="#333333"/>
<defs>
<filter id="filter0_d_18_298" x="59" y="384" width="92" height="29" filterUnits="userSpaceOnUse" color-interpolation-filters="sRGB">
<feFlood flood-opacity="0" result="BackgroundImageFix"/>
<feColorMatrix in="SourceAlpha" type="matrix" values="0 0 0 0 0 0 0 0 0 0 0 0 0 0 0 0 0 0 127 0" result="hardAlpha"/>
<feOffset/>
<feGaussianBlur stdDeviation="2"/>
<feComposite in2="hardAlpha" operator="out"/>
<feColorMatrix type="matrix" values="0 0 0 0 0 0 0 0 0 0 0 0 0 0 0 0 0 0 0.25 0"/>
<feBlend mode="normal" in2="BackgroundImageFix" result="effect1_dropShadow_18_298"/>
<feBlend mode="normal" in="SourceGraphic" in2="effect1_dropShadow_18_298" result="shape"/>
</filter>
<filter id="filter1_d_18_298" x="58" y="288" width="92" height="32" filterUnits="userSpaceOnUse" color-interpolation-filters="sRGB">
<feFlood flood-opacity="0" result="BackgroundImageFix"/>
<feColorMatrix in="SourceAlpha" type="matrix" values="0 0 0 0 0 0 0 0 0 0 0 0 0 0 0 0 0 0 127 0" result="hardAlpha"/>
<feOffset/>
<feGaussianBlur stdDeviation="2"/>
<feComposite in2="hardAlpha" operator="out"/>
<feColorMatrix type="matrix" values="0 0 0 0 0 0 0 0 0 0 0 0 0 0 0 0 0 0 0.25 0"/>
<feBlend mode="normal" in2="BackgroundImageFix" result="effect1_dropShadow_18_298"/>
<feBlend mode="normal" in="SourceGraphic" in2="effect1_dropShadow_18_298" result="shape"/>
</filter>
<filter id="filter2_d_18_298" x="58" y="318" width="92" height="32" filterUnits="userSpaceOnUse" color-interpolation-filters="sRGB">
<feFlood flood-opacity="0" result="BackgroundImageFix"/>
<feColorMatrix in="SourceAlpha" type="matrix" values="0 0 0 0 0 0 0 0 0 0 0 0 0 0 0 0 0 0 127 0" result="hardAlpha"/>
<feOffset/>
<feGaussianBlur stdDeviation="2"/>
<feComposite in2="hardAlpha" operator="out"/>
<feColorMatrix type="matrix" values="0 0 0 0 0 0 0 0 0 0 0 0 0 0 0 0 0 0 0.25 0"/>
<feBlend mode="normal" in2="BackgroundImageFix" result="effect1_dropShadow_18_298"/>
<feBlend mode="normal" in="SourceGraphic" in2="effect1_dropShadow_18_298" result="shape"/>
</filter>
<filter id="filter3_d_18_298" x="111" y="119" width="77" height="28" filterUnits="userSpaceOnUse" color-interpolation-filters="sRGB">
<feFlood flood-opacity="0" result="BackgroundImageFix"/>
<feColorMatrix in="SourceAlpha" type="matrix" values="0 0 0 0 0 0 0 0 0 0 0 0 0 0 0 0 0 0 127 0" result="hardAlpha"/>
<feOffset/>
<feGaussianBlur stdDeviation="3.5"/>
<feComposite in2="hardAlpha" operator="out"/>
<feColorMatrix type="matrix" values="0 0 0 0 0 0 0 0 0 0 0 0 0 0 0 0 0 0 0.25 0"/>
<feBlend mode="normal" in2="BackgroundImageFix" result="effect1_dropShadow_18_298"/>
<feBlend mode="normal" in="SourceGraphic" in2="effect1_dropShadow_18_298" result="shape"/>
</filter>
<filter id="filter4_d_18_298" x="133" y="140" width="77" height="28" filterUnits="userSpaceOnUse" color-interpolation-filters="sRGB">
<feFlood flood-opacity="0" result="BackgroundImageFix"/>
<feColorMatrix in="SourceAlpha" type="matrix" values="0 0 0 0 0 0 0 0 0 0 0 0 0 0 0 0 0 0 127 0" result="hardAlpha"/>
<feOffset/>
<feGaussianBlur stdDeviation="3.5"/>
<feComposite in2="hardAlpha" operator="out"/>
<feColorMatrix type="matrix" values="0 0 0 0 0 0 0 0 0 0 0 0 0 0 0 0 0 0 0.25 0"/>
<feBlend mode="normal" in2="BackgroundImageFix" result="effect1_dropShadow_18_298"/>
<feBlend mode="normal" in="SourceGraphic" in2="effect1_dropShadow_18_298" result="shape"/>
</filter>
<filter id="filter5_d_18_298" x="115" y="173.636" width="92" height="36" filterUnits="userSpaceOnUse" color-interpolation-filters="sRGB">
<feFlood flood-opacity="0" result="BackgroundImageFix"/>
<feColorMatrix in="SourceAlpha" type="matrix" values="0 0 0 0 0 0 0 0 0 0 0 0 0 0 0 0 0 0 127 0" result="hardAlpha"/>
<feOffset/>
<feGaussianBlur stdDeviation="2"/>
<feComposite in2="hardAlpha" operator="out"/>
<feColorMatrix type="matrix" values="0 0 0 0 0 0 0 0 0 0 0 0 0 0 0 0 0 0 0.25 0"/>
<feBlend mode="normal" in2="BackgroundImageFix" result="effect1_dropShadow_18_298"/>
<feBlend mode="normal" in="SourceGraphic" in2="effect1_dropShadow_18_298" result="shape"/>
</filter>
<filter id="filter6_d_18_298" x="21" y="189" width="77" height="28" filterUnits="userSpaceOnUse" color-interpolation-filters="sRGB">
<feFlood flood-opacity="0" result="BackgroundImageFix"/>
<feColorMatrix in="SourceAlpha" type="matrix" values="0 0 0 0 0 0 0 0 0 0 0 0 0 0 0 0 0 0 127 0" result="hardAlpha"/>
<feOffset/>
<feGaussianBlur stdDeviation="3.5"/>
<feComposite in2="hardAlpha" operator="out"/>
<feColorMatrix type="matrix" values="0 0 0 0 0 0 0 0 0 0 0 0 0 0 0 0 0 0 0.25 0"/>
<feBlend mode="normal" in2="BackgroundImageFix" result="effect1_dropShadow_18_298"/>
<feBlend mode="normal" in="SourceGraphic" in2="effect1_dropShadow_18_298" result="shape"/>
</filter>
<filter id="filter7_d_18_298" x="21" y="210" width="77" height="35" filterUnits="userSpaceOnUse" color-interpolation-filters="sRGB">
<feFlood flood-opacity="0" result="BackgroundImageFix"/>
<feColorMatrix in="SourceAlpha" type="matrix" values="0 0 0 0 0 0 0 0 0 0 0 0 0 0 0 0 0 0 127 0" result="hardAlpha"/>
<feOffset/>
<feGaussianBlur stdDeviation="3.5"/>
<feComposite in2="hardAlpha" operator="out"/>
<feColorMatrix type="matrix" values="0 0 0 0 0 0 0 0 0 0 0 0 0 0 0 0 0 0 0.25 0"/>
<feBlend mode="normal" in2="BackgroundImageFix" result="effect1_dropShadow_18_298"/>
<feBlend mode="normal" in="SourceGraphic" in2="effect1_dropShadow_18_298" result="shape"/>
</filter>
<filter id="filter8_d_18_298" x="1" y="122" width="92" height="36" filterUnits="userSpaceOnUse" color-interpolation-filters="sRGB">
<feFlood flood-opacity="0" result="BackgroundImageFix"/>
<feColorMatrix in="SourceAlpha" type="matrix" values="0 0 0 0 0 0 0 0 0 0 0 0 0 0 0 0 0 0 127 0" result="hardAlpha"/>
<feOffset/>
<feGaussianBlur stdDeviation="2"/>
<feComposite in2="hardAlpha" operator="out"/>
<feColorMatrix type="matrix" values="0 0 0 0 0 0 0 0 0 0 0 0 0 0 0 0 0 0 0.25 0"/>
<feBlend mode="normal" in2="BackgroundImageFix" result="effect1_dropShadow_18_298"/>
<feBlend mode="normal" in="SourceGraphic" in2="effect1_dropShadow_18_298" result="shape"/>
</filter>
<filter id="filter9_d_18_298" x="21" y="168" width="77" height="28" filterUnits="userSpaceOnUse" color-interpolation-filters="sRGB">
<feFlood flood-opacity="0" result="BackgroundImageFix"/>
<feColorMatrix in="SourceAlpha" type="matrix" values="0 0 0 0 0 0 0 0 0 0 0 0 0 0 0 0 0 0 127 0" result="hardAlpha"/>
<feOffset/>
<feGaussianBlur stdDeviation="3.5"/>
<feComposite in2="hardAlpha" operator="out"/>
<feColorMatrix type="matrix" values="0 0 0 0 0 0 0 0 0 0 0 0 0 0 0 0 0 0 0.25 0"/>
<feBlend mode="normal" in2="BackgroundImageFix" result="effect1_dropShadow_18_298"/>
<feBlend mode="normal" in="SourceGraphic" in2="effect1_dropShadow_18_298" result="shape"/>
</filter>
<filter id="filter10_d_18_298" x="59" y="59" width="92" height="29" filterUnits="userSpaceOnUse" color-interpolation-filters="sRGB">
<feFlood flood-opacity="0" result="BackgroundImageFix"/>
<feColorMatrix in="SourceAlpha" type="matrix" values="0 0 0 0 0 0 0 0 0 0 0 0 0 0 0 0 0 0 127 0" result="hardAlpha"/>
<feOffset/>
<feGaussianBlur stdDeviation="2"/>
<feComposite in2="hardAlpha" operator="out"/>
<feColorMatrix type="matrix" values="0 0 0 0 0 0 0 0 0 0 0 0 0 0 0 0 0 0 0.25 0"/>
<feBlend mode="normal" in2="BackgroundImageFix" result="effect1_dropShadow_18_298"/>
<feBlend mode="normal" in="SourceGraphic" in2="effect1_dropShadow_18_298" result="shape"/>
</filter>
<filter id="filter11_d_18_298" x="59" y="18" width="92" height="29" filterUnits="userSpaceOnUse" color-interpolation-filters="sRGB">
<feFlood flood-opacity="0" result="BackgroundImageFix"/>
<feColorMatrix in="SourceAlpha" type="matrix" values="0 0 0 0 0 0 0 0 0 0 0 0 0 0 0 0 0 0 127 0" result="hardAlpha"/>
<feOffset/>
<feGaussianBlur stdDeviation="2"/>
<feComposite in2="hardAlpha" operator="out"/>
<feColorMatrix type="matrix" values="0 0 0 0 0 0 0 0 0 0 0 0 0 0 0 0 0 0 0.25 0"/>
<feBlend mode="normal" in2="BackgroundImageFix" result="effect1_dropShadow_18_298"/>
<feBlend mode="normal" in="SourceGraphic" in2="effect1_dropShadow_18_298" result="shape"/>
</filter>
</defs>
</svg>
