<svg width="210" height="489" viewBox="0 0 210 489" fill="none" xmlns="http://www.w3.org/2000/svg">
<path d="M0 447H210V489H0V447Z" fill="#B394F4"/>
<path d="M76.6325 473C76.5345 473 76.4645 472.93 76.4645 472.832V463.368C76.4645 463.27 76.5345 463.2 76.6325 463.2H78.2705C78.3685 463.2 78.4385 463.27 78.4385 463.368V472.832C78.4385 472.93 78.3685 473 78.2705 473H76.6325ZM80.7297 473C80.6317 473 80.5617 472.93 80.5617 472.832V463.368C80.5617 463.27 80.6317 463.2 80.7297 463.2H82.4517C82.5497 463.2 82.6057 463.256 82.6337 463.34L84.5097 468.814C84.5237 468.87 84.5937 468.856 84.5937 468.8V463.368C84.5937 463.27 84.6637 463.2 84.7617 463.2H86.3997C86.4977 463.2 86.5677 463.27 86.5677 463.368V472.832C86.5677 472.93 86.4977 473 86.3997 473H84.6637C84.5657 473 84.5097 472.944 84.4817 472.86L82.6197 467.428C82.6057 467.372 82.5357 467.386 82.5357 467.442V472.832C82.5357 472.93 82.4657 473 82.3677 473H80.7297ZM88.8465 473C88.7485 473 88.6785 472.93 88.6785 472.832V463.368C88.6785 463.27 88.7485 463.2 88.8465 463.2H91.3805C93.0745 463.2 94.1945 464.278 94.1945 465.916V470.284C94.1945 471.922 93.0745 473 91.3805 473H88.8465ZM90.6525 471.25C90.6525 471.292 90.6805 471.32 90.7225 471.32L91.3385 471.292C91.8425 471.278 92.1925 470.844 92.2205 470.158V466.042C92.2205 465.342 91.8705 464.894 91.3245 464.894H90.7225C90.6805 464.894 90.6525 464.922 90.6525 464.964V471.25ZM98.9783 473.112C97.3123 473.112 96.2063 471.964 96.2063 470.214V463.368C96.2063 463.27 96.2763 463.2 96.3743 463.2H98.0123C98.1103 463.2 98.1803 463.27 98.1803 463.368V470.41C98.1803 471.012 98.4883 471.418 98.9783 471.418C99.4683 471.418 99.7903 471.012 99.7903 470.41V463.368C99.7903 463.27 99.8603 463.2 99.9583 463.2H101.596C101.694 463.2 101.764 463.27 101.764 463.368V470.214C101.764 471.964 100.658 473.112 98.9783 473.112ZM106.323 473.112C104.685 473.112 103.607 472.09 103.607 470.55V470.144C103.607 470.046 103.677 469.976 103.775 469.976H105.385C105.483 469.976 105.553 470.046 105.553 470.144V470.452C105.553 471.068 105.889 471.418 106.323 471.418C106.771 471.418 107.107 471.082 107.107 470.522C107.107 469.878 106.701 469.542 105.749 468.856C104.727 468.128 103.565 467.288 103.565 465.706C103.565 464.11 104.657 463.088 106.253 463.088C107.905 463.088 108.997 464.166 108.997 465.776V466.07C108.997 466.168 108.927 466.238 108.829 466.238H107.219C107.121 466.238 107.051 466.168 107.051 466.07V465.734C107.051 465.174 106.729 464.782 106.253 464.782C105.819 464.782 105.511 465.118 105.511 465.692C105.511 466.21 105.805 466.56 106.813 467.302C108.269 468.394 109.053 468.996 109.053 470.438C109.053 472.118 107.933 473.112 106.323 473.112ZM112.561 473C112.463 473 112.393 472.93 112.393 472.832V464.964C112.393 464.922 112.365 464.894 112.323 464.894H110.643C110.545 464.894 110.475 464.824 110.475 464.726V463.368C110.475 463.27 110.545 463.2 110.643 463.2H116.187C116.285 463.2 116.355 463.27 116.355 463.368V464.726C116.355 464.824 116.285 464.894 116.187 464.894H114.437C114.395 464.894 114.367 464.922 114.367 464.964V472.832C114.367 472.93 114.297 473 114.199 473H112.561ZM118.223 473C118.125 473 118.055 472.93 118.055 472.832V463.368C118.055 463.27 118.125 463.2 118.223 463.2H121.051C122.619 463.2 123.683 464.404 123.683 466.154C123.683 467.26 123.235 468.128 122.493 468.59C122.451 468.604 122.437 468.646 122.451 468.674L123.739 472.804C123.739 472.818 123.753 472.846 123.753 472.86C123.753 472.944 123.697 473 123.599 473H121.919C121.821 473 121.751 472.944 121.723 472.86L120.645 468.996C120.631 468.968 120.617 468.94 120.575 468.94H120.099C120.057 468.94 120.029 468.968 120.029 469.01V472.832C120.029 472.93 119.959 473 119.861 473H118.223ZM120.029 467.358C120.029 467.4 120.057 467.428 120.099 467.428H120.715C121.303 467.428 121.709 466.952 121.709 466.168C121.709 465.37 121.303 464.894 120.715 464.894H120.099C120.057 464.894 120.029 464.922 120.029 464.964V467.358ZM125.793 473C125.695 473 125.625 472.93 125.625 472.832V463.368C125.625 463.27 125.695 463.2 125.793 463.2H127.431C127.529 463.2 127.599 463.27 127.599 463.368V472.832C127.599 472.93 127.529 473 127.431 473H125.793ZM129.891 473C129.793 473 129.723 472.93 129.723 472.832V463.368C129.723 463.27 129.793 463.2 129.891 463.2H134.693C134.791 463.2 134.861 463.27 134.861 463.368V464.726C134.861 464.824 134.791 464.894 134.693 464.894H131.767C131.725 464.894 131.697 464.922 131.697 464.964V467.176C131.697 467.218 131.725 467.246 131.767 467.246H133.433C133.531 467.246 133.601 467.316 133.601 467.414V468.772C133.601 468.87 133.531 468.94 133.433 468.94H131.767C131.725 468.94 131.697 468.968 131.697 469.01V471.236C131.697 471.278 131.725 471.306 131.767 471.306H134.693C134.791 471.306 134.861 471.376 134.861 471.474V472.832C134.861 472.93 134.791 473 134.693 473H129.891Z" fill="black"/>
<rect opacity="0.5" y="279" width="210" height="98" fill="#B394F4"/>
<rect opacity="0.5" y="111" width="210" height="154" fill="#B394F4"/>
<rect x="7" y="180" width="84" height="28" rx="4" fill="white"/>
<path d="M20.8727 197C20.8247 197 20.7927 196.968 20.7927 196.92V191.928C20.7927 191.912 20.7767 191.896 20.7607 191.896H19.5127C19.4647 191.896 19.4327 191.864 19.4327 191.816V191.48C19.4327 191.432 19.4647 191.4 19.5127 191.4H22.7047C22.7527 191.4 22.7847 191.432 22.7847 191.48V191.816C22.7847 191.864 22.7527 191.896 22.7047 191.896H21.3927C21.3767 191.896 21.3607 191.912 21.3607 191.928V196.92C21.3607 196.968 21.3287 197 21.2807 197H20.8727ZM24.1228 197.064C23.3388 197.064 22.8348 196.608 22.7228 195.92C22.6668 195.64 22.6668 195.328 22.6668 194.976C22.6668 194.64 22.6668 194.336 22.6988 194.08C22.7868 193.376 23.3308 192.888 24.0988 192.888C24.9388 192.888 25.4668 193.416 25.5308 194.168C25.5548 194.432 25.5548 194.776 25.5548 195.136C25.5548 195.184 25.5228 195.216 25.4748 195.216H23.2668C23.2508 195.216 23.2348 195.224 23.2348 195.248C23.2348 195.456 23.2428 195.648 23.2508 195.8C23.3068 196.256 23.6428 196.568 24.1308 196.568C24.5468 196.568 24.8508 196.336 24.9708 195.992C24.9868 195.944 25.0188 195.928 25.0668 195.936L25.4348 196.008C25.4828 196.016 25.5068 196.048 25.4908 196.096C25.3148 196.696 24.8188 197.064 24.1228 197.064ZM23.2348 194.712C23.2348 194.736 23.2508 194.744 23.2668 194.744H24.9548C24.9708 194.744 24.9868 194.736 24.9868 194.712C24.9868 194.512 24.9788 194.32 24.9628 194.16C24.9068 193.704 24.5788 193.384 24.1068 193.384C23.6268 193.384 23.3068 193.704 23.2508 194.152C23.2428 194.32 23.2348 194.512 23.2348 194.712ZM27.7613 197.064C26.9853 197.064 26.4573 196.6 26.3533 195.896C26.3133 195.624 26.2973 195.304 26.2973 194.968C26.2973 194.616 26.3213 194.304 26.3533 194.048C26.4493 193.36 26.9853 192.888 27.7613 192.888C28.5293 192.888 29.0733 193.352 29.1693 193.952L29.1933 194.12C29.1933 194.128 29.1933 194.128 29.1933 194.136C29.1933 194.176 29.1613 194.208 29.1213 194.208L28.7133 194.232C28.6653 194.232 28.6333 194.208 28.6253 194.16C28.6253 194.128 28.6253 194.088 28.6173 194.064C28.5693 193.704 28.2333 193.384 27.7613 193.384C27.2813 193.384 26.9613 193.704 26.9053 194.16C26.8813 194.368 26.8733 194.656 26.8733 194.976C26.8733 195.312 26.8813 195.592 26.9133 195.8C26.9613 196.256 27.2813 196.568 27.7613 196.568C28.2493 196.568 28.5773 196.248 28.6173 195.88C28.6173 195.856 28.6253 195.84 28.6253 195.816C28.6333 195.76 28.6653 195.736 28.7133 195.744L29.1133 195.776C29.1533 195.784 29.1853 195.808 29.1853 195.848C29.1853 195.88 29.1773 195.928 29.1693 195.976C29.0973 196.6 28.5373 197.064 27.7613 197.064ZM30.0135 197C29.9655 197 29.9335 196.968 29.9335 196.92V191.48C29.9335 191.432 29.9655 191.4 30.0135 191.4H30.4215C30.4695 191.4 30.5015 191.432 30.5015 191.48V193.376C30.5015 193.408 30.5255 193.416 30.5415 193.384C30.7495 193.056 31.0935 192.896 31.5255 192.896C32.4935 192.896 32.7175 193.56 32.7175 194.288V196.92C32.7175 196.968 32.6855 197 32.6375 197H32.2295C32.1815 197 32.1495 196.968 32.1495 196.92V194.36C32.1495 193.832 32.0135 193.392 31.3495 193.392C30.8375 193.392 30.5015 193.752 30.5015 194.32V196.92C30.5015 196.968 30.4695 197 30.4215 197H30.0135ZM33.7635 197C33.7155 197 33.6835 196.968 33.6835 196.92V193.032C33.6835 192.984 33.7155 192.952 33.7635 192.952H34.1715C34.2195 192.952 34.2515 192.984 34.2515 193.032V193.376C34.2515 193.408 34.2755 193.416 34.2915 193.384C34.4995 193.056 34.8435 192.896 35.2755 192.896C36.2435 192.896 36.4675 193.56 36.4675 194.288V196.92C36.4675 196.968 36.4355 197 36.3875 197H35.9795C35.9315 197 35.8995 196.968 35.8995 196.92V194.36C35.8995 193.832 35.7635 193.392 35.0995 193.392C34.5875 193.392 34.2515 193.752 34.2515 194.32V196.92C34.2515 196.968 34.2195 197 34.1715 197H33.7635ZM38.7615 197.064C37.9775 197.064 37.4495 196.6 37.3455 195.896C37.3135 195.632 37.2975 195.296 37.2975 194.968C37.2975 194.64 37.3135 194.312 37.3455 194.056C37.4415 193.36 37.9775 192.888 38.7615 192.888C39.5455 192.888 40.0815 193.36 40.1775 194.056C40.2175 194.32 40.2255 194.648 40.2255 194.968C40.2255 195.304 40.2175 195.632 40.1775 195.896C40.0815 196.6 39.5455 197.064 38.7615 197.064ZM37.8655 194.976C37.8655 195.296 37.8735 195.576 37.8975 195.792C37.9535 196.256 38.2895 196.568 38.7615 196.568C39.2255 196.568 39.5615 196.256 39.6255 195.792C39.6495 195.568 39.6575 195.28 39.6575 194.976C39.6575 194.656 39.6495 194.376 39.6255 194.16C39.5695 193.696 39.2335 193.384 38.7615 193.384C38.2895 193.384 37.9615 193.696 37.8975 194.16C37.8735 194.376 37.8655 194.664 37.8655 194.976ZM41.1619 197C41.1139 197 41.0819 196.968 41.0819 196.92V191.48C41.0819 191.432 41.1139 191.4 41.1619 191.4H41.5699C41.6179 191.4 41.6499 191.432 41.6499 191.48V196.92C41.6499 196.968 41.6179 197 41.5699 197H41.1619ZM43.9959 197.064C43.2119 197.064 42.6839 196.6 42.5799 195.896C42.5479 195.632 42.5319 195.296 42.5319 194.968C42.5319 194.64 42.5479 194.312 42.5799 194.056C42.6759 193.36 43.2119 192.888 43.9959 192.888C44.7799 192.888 45.3159 193.36 45.4119 194.056C45.4519 194.32 45.4599 194.648 45.4599 194.968C45.4599 195.304 45.4519 195.632 45.4119 195.896C45.3159 196.6 44.7799 197.064 43.9959 197.064ZM43.0999 194.976C43.0999 195.296 43.1079 195.576 43.1319 195.792C43.1879 196.256 43.5239 196.568 43.9959 196.568C44.4599 196.568 44.7959 196.256 44.8599 195.792C44.8839 195.568 44.8919 195.28 44.8919 194.976C44.8919 194.656 44.8839 194.376 44.8599 194.16C44.8039 193.696 44.4679 193.384 43.9959 193.384C43.5239 193.384 43.1959 193.696 43.1319 194.16C43.1079 194.376 43.0999 194.664 43.0999 194.976ZM47.0041 198.16C47.0041 198.112 47.0361 198.08 47.0841 198.088C48.1081 198.12 48.4761 197.712 48.4761 196.856V196.576C48.4761 196.544 48.4521 196.536 48.4361 196.568C48.2441 196.864 47.9161 197.024 47.5081 197.024C46.8361 197.024 46.3321 196.592 46.2361 195.88C46.1961 195.616 46.1881 195.312 46.1881 194.976C46.1881 194.624 46.1961 194.312 46.2361 194.032C46.3321 193.352 46.7961 192.888 47.4921 192.888C47.9081 192.888 48.2361 193.048 48.4361 193.352C48.4521 193.376 48.4761 193.368 48.4761 193.336V193.032C48.4761 192.984 48.5081 192.952 48.5561 192.952H48.9641C49.0121 192.952 49.0441 192.984 49.0441 193.032V196.888C49.0441 198.104 48.3641 198.664 47.0681 198.608C47.0121 198.6 46.9881 198.576 46.9881 198.52L47.0041 198.16ZM46.7561 194.968C46.7561 195.32 46.7721 195.576 46.7961 195.768C46.8441 196.208 47.1721 196.536 47.6441 196.536C48.1161 196.536 48.4121 196.2 48.4521 195.768C48.4681 195.56 48.4761 195.376 48.4761 194.968C48.4761 194.552 48.4601 194.376 48.4441 194.152C48.4041 193.712 48.1001 193.384 47.6361 193.384C47.1721 193.384 46.8601 193.712 46.7961 194.152C46.7721 194.368 46.7561 194.616 46.7561 194.968ZM50.124 197C50.076 197 50.044 196.968 50.044 196.92V193.032C50.044 192.984 50.076 192.952 50.124 192.952H50.532C50.58 192.952 50.612 192.984 50.612 193.032V196.92C50.612 196.968 50.58 197 50.532 197H50.124ZM49.884 191.768C49.884 191.504 50.068 191.32 50.332 191.32C50.588 191.32 50.78 191.504 50.78 191.768C50.78 192.024 50.588 192.216 50.332 192.216C50.068 192.216 49.884 192.024 49.884 191.768ZM53.0212 197.064C52.2372 197.064 51.7332 196.608 51.6212 195.92C51.5652 195.64 51.5652 195.328 51.5652 194.976C51.5652 194.64 51.5652 194.336 51.5972 194.08C51.6852 193.376 52.2292 192.888 52.9972 192.888C53.8372 192.888 54.3652 193.416 54.4292 194.168C54.4532 194.432 54.4532 194.776 54.4532 195.136C54.4532 195.184 54.4212 195.216 54.3732 195.216H52.1652C52.1492 195.216 52.1332 195.224 52.1332 195.248C52.1332 195.456 52.1412 195.648 52.1492 195.8C52.2052 196.256 52.5412 196.568 53.0292 196.568C53.4452 196.568 53.7492 196.336 53.8692 195.992C53.8852 195.944 53.9172 195.928 53.9652 195.936L54.3332 196.008C54.3812 196.016 54.4052 196.048 54.3892 196.096C54.2132 196.696 53.7172 197.064 53.0212 197.064ZM52.1332 194.712C52.1332 194.736 52.1492 194.744 52.1652 194.744H53.8532C53.8692 194.744 53.8852 194.736 53.8852 194.712C53.8852 194.512 53.8772 194.32 53.8612 194.16C53.8052 193.704 53.4772 193.384 53.0052 193.384C52.5252 193.384 52.2052 193.704 52.1492 194.152C52.1412 194.32 52.1332 194.512 52.1332 194.712ZM56.5798 197.008C55.9478 197.008 55.5158 196.824 55.5158 196.008V193.432C55.5158 193.416 55.4998 193.4 55.4838 193.4H55.0838C55.0358 193.4 55.0038 193.368 55.0038 193.32V193.032C55.0038 192.984 55.0358 192.952 55.0838 192.952H55.4838C55.4998 192.952 55.5158 192.936 55.5158 192.92V192.008C55.5158 191.96 55.5478 191.928 55.5958 191.928H55.9878C56.0358 191.928 56.0678 191.96 56.0678 192.008V192.92C56.0678 192.936 56.0838 192.952 56.0998 192.952H56.8598C56.9078 192.952 56.9398 192.984 56.9398 193.032V193.32C56.9398 193.368 56.9078 193.4 56.8598 193.4H56.0998C56.0838 193.4 56.0678 193.416 56.0678 193.432V195.832C56.0678 196.352 56.2758 196.504 56.6838 196.504H56.8278C56.8758 196.504 56.9078 196.536 56.9078 196.584V196.92C56.9078 196.968 56.8838 197 56.8278 197C56.7478 197 56.6678 197.008 56.5798 197.008ZM57.6776 197C57.6296 197 57.5976 196.968 57.5976 196.92V193.032C57.5976 192.984 57.6296 192.952 57.6776 192.952H58.0856C58.1336 192.952 58.1656 192.984 58.1656 193.032V193.552C58.1656 193.584 58.1896 193.584 58.1976 193.56C58.3736 193.176 58.6696 192.912 59.1016 192.912C59.2856 192.912 59.4056 192.952 59.5096 193.008C59.5496 193.024 59.5576 193.064 59.5496 193.104L59.4616 193.52C59.4536 193.576 59.4136 193.584 59.3576 193.56C59.2776 193.528 59.1656 193.504 59.0216 193.512C58.5176 193.52 58.1656 193.968 58.1656 194.544V196.92C58.1656 196.968 58.1336 197 58.0856 197H57.6776ZM61.1052 197.064C60.5372 197.064 59.8892 196.8 59.8892 195.904C59.8892 195.024 60.5132 194.6 61.4252 194.6H62.1692C62.1852 194.6 62.2012 194.584 62.2012 194.568V194.264C62.2012 193.736 61.9372 193.384 61.4012 193.384C60.9852 193.384 60.6812 193.608 60.6252 193.952C60.6172 194.008 60.5852 194.024 60.5372 194.024L60.0972 194C60.0492 194 60.0172 193.96 60.0252 193.912C60.1052 193.296 60.6652 192.888 61.4012 192.888C62.2652 192.888 62.7692 193.432 62.7692 194.232V196.92C62.7692 196.968 62.7372 197 62.6892 197H62.2812C62.2332 197 62.2012 196.968 62.2012 196.92V196.632C62.2012 196.608 62.1852 196.592 62.1692 196.616C61.9372 196.92 61.5452 197.064 61.1052 197.064ZM60.4652 195.872C60.4652 196.36 60.8012 196.568 61.2172 196.568C61.7132 196.568 62.2012 196.288 62.2012 195.736V195.088C62.2012 195.072 62.1852 195.056 62.1692 195.056H61.4652C60.8812 195.056 60.4652 195.336 60.4652 195.872ZM63.8182 197C63.7702 197 63.7382 196.968 63.7382 196.92V193.032C63.7382 192.984 63.7702 192.952 63.8182 192.952H64.2262C64.2742 192.952 64.3062 192.984 64.3062 193.032V193.376C64.3062 193.408 64.3302 193.416 64.3462 193.384C64.5542 193.056 64.8982 192.896 65.3302 192.896C66.2982 192.896 66.5222 193.56 66.5222 194.288V196.92C66.5222 196.968 66.4902 197 66.4422 197H66.0342C65.9862 197 65.9542 196.968 65.9542 196.92V194.36C65.9542 193.832 65.8182 193.392 65.1542 193.392C64.6422 193.392 64.3062 193.752 64.3062 194.32V196.92C64.3062 196.968 64.2742 197 64.2262 197H63.8182ZM68.6168 197.04C67.7128 197.04 67.2408 196.504 67.2408 195.896C67.2408 195.864 67.2728 195.84 67.3208 195.84H67.7128C67.7608 195.84 67.7928 195.864 67.7928 195.904C67.7928 196.232 68.0488 196.6 68.6088 196.6C69.1048 196.6 69.4008 196.344 69.4008 195.928C69.4008 195.432 68.9368 195.296 68.4568 195.144C67.8888 194.984 67.2808 194.76 67.2808 194C67.2808 193.328 67.8088 192.912 68.5768 192.912C69.4248 192.912 69.8888 193.424 69.8888 194.04C69.8888 194.072 69.8568 194.088 69.8088 194.088H69.4328C69.3848 194.088 69.3528 194.064 69.3528 194.024C69.3528 193.672 69.0968 193.36 68.5848 193.36C68.1208 193.36 67.8328 193.608 67.8328 193.984C67.8328 194.408 68.2488 194.56 68.6968 194.696C69.2888 194.864 69.9768 195.088 69.9768 195.92C69.9768 196.624 69.4408 197.04 68.6168 197.04ZM70.962 192.696C70.962 191.768 71.258 191.376 72.162 191.376H72.33C72.378 191.376 72.41 191.408 72.41 191.456V191.784C72.41 191.832 72.378 191.864 72.33 191.864H72.186C71.674 191.864 71.53 192.136 71.53 192.72V192.92C71.53 192.936 71.546 192.952 71.562 192.952H72.314C72.362 192.952 72.394 192.984 72.394 193.032V193.344C72.394 193.392 72.362 193.424 72.314 193.424H71.562C71.546 193.424 71.53 193.44 71.53 193.456V196.92C71.53 196.968 71.498 197 71.45 197H71.042C70.994 197 70.962 196.968 70.962 196.92V193.456C70.962 193.44 70.946 193.424 70.93 193.424H70.506C70.458 193.424 70.426 193.392 70.426 193.344V193.032C70.426 192.984 70.458 192.952 70.506 192.952H70.93C70.946 192.952 70.962 192.936 70.962 192.92V192.696ZM74.3337 197.064C73.5497 197.064 73.0457 196.608 72.9337 195.92C72.8777 195.64 72.8777 195.328 72.8777 194.976C72.8777 194.64 72.8777 194.336 72.9097 194.08C72.9977 193.376 73.5417 192.888 74.3097 192.888C75.1497 192.888 75.6777 193.416 75.7417 194.168C75.7657 194.432 75.7657 194.776 75.7657 195.136C75.7657 195.184 75.7337 195.216 75.6857 195.216H73.4777C73.4617 195.216 73.4457 195.224 73.4457 195.248C73.4457 195.456 73.4537 195.648 73.4617 195.8C73.5177 196.256 73.8537 196.568 74.3417 196.568C74.7577 196.568 75.0617 196.336 75.1817 195.992C75.1977 195.944 75.2297 195.928 75.2777 195.936L75.6457 196.008C75.6937 196.016 75.7177 196.048 75.7017 196.096C75.5257 196.696 75.0297 197.064 74.3337 197.064ZM73.4457 194.712C73.4457 194.736 73.4617 194.744 73.4777 194.744H75.1657C75.1817 194.744 75.1977 194.736 75.1977 194.712C75.1977 194.512 75.1897 194.32 75.1737 194.16C75.1177 193.704 74.7897 193.384 74.3177 193.384C73.8377 193.384 73.5177 193.704 73.4617 194.152C73.4537 194.32 73.4457 194.512 73.4457 194.712ZM76.701 197C76.653 197 76.621 196.968 76.621 196.92V193.032C76.621 192.984 76.653 192.952 76.701 192.952H77.109C77.157 192.952 77.189 192.984 77.189 193.032V193.552C77.189 193.584 77.213 193.584 77.221 193.56C77.397 193.176 77.693 192.912 78.125 192.912C78.309 192.912 78.429 192.952 78.533 193.008C78.573 193.024 78.581 193.064 78.573 193.104L78.485 193.52C78.477 193.576 78.437 193.584 78.381 193.56C78.301 193.528 78.189 193.504 78.045 193.512C77.541 193.52 77.189 193.968 77.189 194.544V196.92C77.189 196.968 77.157 197 77.109 197H76.701Z" fill="black"/>
<rect x="119" y="155" width="84" height="28" rx="4" fill="white"/>
<path d="M133.857 168C133.801 168 133.769 167.968 133.785 167.912L135.273 162.472C135.281 162.432 135.313 162.4 135.361 162.4H135.873C135.921 162.4 135.953 162.424 135.961 162.464L137.465 167.912C137.465 167.92 137.473 167.928 137.473 167.936C137.473 167.976 137.441 168 137.393 168H136.969C136.921 168 136.889 167.968 136.881 167.928L136.617 166.928C136.609 166.904 136.593 166.904 136.577 166.904H134.665C134.649 166.904 134.633 166.904 134.625 166.928L134.361 167.928C134.353 167.968 134.321 168 134.273 168H133.857ZM134.761 166.408C134.753 166.424 134.777 166.44 134.793 166.44H136.449C136.465 166.44 136.489 166.424 136.481 166.408L135.633 163.192C135.625 163.168 135.609 163.168 135.601 163.192L134.761 166.408ZM138.209 168C138.161 168 138.129 167.968 138.129 167.92V164.032C138.129 163.984 138.161 163.952 138.209 163.952H138.617C138.665 163.952 138.697 163.984 138.697 164.032V164.376C138.697 164.408 138.721 164.416 138.737 164.384C138.945 164.056 139.289 163.896 139.721 163.896C140.689 163.896 140.913 164.56 140.913 165.288V167.92C140.913 167.968 140.881 168 140.833 168H140.425C140.377 168 140.345 167.968 140.345 167.92V165.36C140.345 164.832 140.209 164.392 139.545 164.392C139.033 164.392 138.697 164.752 138.697 165.32V167.92C138.697 167.968 138.665 168 138.617 168H138.209ZM143.399 168.064C142.967 168.064 142.671 167.912 142.487 167.632C142.471 167.6 142.447 167.608 142.447 167.64V167.92C142.447 167.968 142.415 168 142.367 168H141.959C141.911 168 141.879 167.968 141.879 167.92V162.48C141.879 162.432 141.911 162.4 141.959 162.4H142.367C142.415 162.4 142.447 162.432 142.447 162.48V164.304C142.447 164.336 142.471 164.344 142.487 164.32C142.647 164.04 142.911 163.896 143.359 163.896C144.071 163.896 144.503 164.256 144.663 165.064C144.727 165.352 144.751 165.736 144.751 166.016C144.751 166.296 144.727 166.608 144.647 166.944C144.455 167.728 144.063 168.064 143.399 168.064ZM142.447 165.976C142.447 166.368 142.479 166.72 142.567 166.984C142.687 167.352 142.887 167.576 143.279 167.576C143.703 167.576 143.919 167.352 144.047 166.976C144.143 166.712 144.175 166.36 144.175 165.976C144.175 165.56 144.127 165.2 144.015 164.928C143.879 164.592 143.655 164.384 143.271 164.384C142.887 164.384 142.695 164.6 142.575 164.944C142.479 165.224 142.447 165.584 142.447 165.976ZM145.694 168C145.646 168 145.614 167.968 145.614 167.92V164.032C145.614 163.984 145.646 163.952 145.694 163.952H146.102C146.15 163.952 146.182 163.984 146.182 164.032V167.92C146.182 167.968 146.15 168 146.102 168H145.694ZM145.454 162.768C145.454 162.504 145.638 162.32 145.902 162.32C146.158 162.32 146.35 162.504 146.35 162.768C146.35 163.024 146.158 163.216 145.902 163.216C145.638 163.216 145.454 163.024 145.454 162.768ZM148.592 168.064C147.808 168.064 147.304 167.608 147.192 166.92C147.136 166.64 147.136 166.328 147.136 165.976C147.136 165.64 147.136 165.336 147.168 165.08C147.256 164.376 147.8 163.888 148.568 163.888C149.408 163.888 149.936 164.416 150 165.168C150.024 165.432 150.024 165.776 150.024 166.136C150.024 166.184 149.992 166.216 149.944 166.216H147.736C147.72 166.216 147.704 166.224 147.704 166.248C147.704 166.456 147.712 166.648 147.72 166.8C147.776 167.256 148.112 167.568 148.6 167.568C149.016 167.568 149.32 167.336 149.44 166.992C149.456 166.944 149.488 166.928 149.536 166.936L149.904 167.008C149.952 167.016 149.976 167.048 149.96 167.096C149.784 167.696 149.288 168.064 148.592 168.064ZM147.704 165.712C147.704 165.736 147.72 165.744 147.736 165.744H149.424C149.44 165.744 149.456 165.736 149.456 165.712C149.456 165.512 149.448 165.32 149.432 165.16C149.376 164.704 149.048 164.384 148.576 164.384C148.096 164.384 147.776 164.704 147.72 165.152C147.712 165.32 147.704 165.512 147.704 165.712ZM152.15 168.008C151.518 168.008 151.086 167.824 151.086 167.008V164.432C151.086 164.416 151.07 164.4 151.054 164.4H150.654C150.606 164.4 150.574 164.368 150.574 164.32V164.032C150.574 163.984 150.606 163.952 150.654 163.952H151.054C151.07 163.952 151.086 163.936 151.086 163.92V163.008C151.086 162.96 151.118 162.928 151.166 162.928H151.558C151.606 162.928 151.638 162.96 151.638 163.008V163.92C151.638 163.936 151.654 163.952 151.67 163.952H152.43C152.478 163.952 152.51 163.984 152.51 164.032V164.32C152.51 164.368 152.478 164.4 152.43 164.4H151.67C151.654 164.4 151.638 164.416 151.638 164.432V166.832C151.638 167.352 151.846 167.504 152.254 167.504H152.398C152.446 167.504 152.478 167.536 152.478 167.584V167.92C152.478 167.968 152.454 168 152.398 168C152.318 168 152.238 168.008 152.15 168.008ZM154.568 168.064C153.784 168.064 153.28 167.608 153.168 166.92C153.112 166.64 153.112 166.328 153.112 165.976C153.112 165.64 153.112 165.336 153.144 165.08C153.232 164.376 153.776 163.888 154.544 163.888C155.384 163.888 155.912 164.416 155.976 165.168C156 165.432 156 165.776 156 166.136C156 166.184 155.968 166.216 155.92 166.216H153.712C153.696 166.216 153.68 166.224 153.68 166.248C153.68 166.456 153.688 166.648 153.696 166.8C153.752 167.256 154.088 167.568 154.576 167.568C154.992 167.568 155.296 167.336 155.416 166.992C155.432 166.944 155.464 166.928 155.512 166.936L155.88 167.008C155.928 167.016 155.952 167.048 155.936 167.096C155.76 167.696 155.264 168.064 154.568 168.064ZM153.68 165.712C153.68 165.736 153.696 165.744 153.712 165.744H155.4C155.416 165.744 155.432 165.736 155.432 165.712C155.432 165.512 155.424 165.32 155.408 165.16C155.352 164.704 155.024 164.384 154.552 164.384C154.072 164.384 153.752 164.704 153.696 165.152C153.688 165.32 153.68 165.512 153.68 165.712ZM156.935 168C156.887 168 156.855 167.968 156.855 167.92V164.032C156.855 163.984 156.887 163.952 156.935 163.952H157.343C157.391 163.952 157.423 163.984 157.423 164.032V164.552C157.423 164.584 157.447 164.584 157.455 164.56C157.631 164.176 157.927 163.912 158.359 163.912C158.543 163.912 158.663 163.952 158.767 164.008C158.807 164.024 158.815 164.064 158.807 164.104L158.719 164.52C158.711 164.576 158.671 164.584 158.615 164.56C158.535 164.528 158.423 164.504 158.279 164.512C157.775 164.52 157.423 164.968 157.423 165.544V167.92C157.423 167.968 157.391 168 157.343 168H156.935ZM159.435 168C159.387 168 159.355 167.968 159.355 167.92V164.032C159.355 163.984 159.387 163.952 159.435 163.952H159.835C159.883 163.952 159.915 163.984 159.915 164.032V164.336C159.915 164.36 159.931 164.368 159.955 164.344C160.171 164.04 160.531 163.896 160.899 163.896C161.379 163.896 161.731 164.128 161.915 164.512C161.923 164.536 161.939 164.536 161.955 164.512C162.171 164.088 162.587 163.896 163.027 163.896C163.771 163.896 164.179 164.416 164.179 165.232V167.92C164.179 167.968 164.147 168 164.099 168H163.699C163.651 168 163.619 167.968 163.619 167.92V165.312C163.619 164.752 163.331 164.392 162.843 164.392C162.363 164.392 162.043 164.736 162.043 165.296V167.92C162.043 167.968 162.011 168 161.963 168H161.563C161.515 168 161.483 167.968 161.483 167.92V165.312C161.483 164.736 161.171 164.392 160.715 164.392C160.235 164.392 159.915 164.736 159.915 165.296V167.92C159.915 167.968 159.883 168 159.835 168H159.435ZM166.472 168.064C165.688 168.064 165.16 167.6 165.056 166.896C165.024 166.632 165.008 166.296 165.008 165.968C165.008 165.64 165.024 165.312 165.056 165.056C165.152 164.36 165.688 163.888 166.472 163.888C167.256 163.888 167.792 164.36 167.888 165.056C167.928 165.32 167.936 165.648 167.936 165.968C167.936 166.304 167.928 166.632 167.888 166.896C167.792 167.6 167.256 168.064 166.472 168.064ZM165.576 165.976C165.576 166.296 165.584 166.576 165.608 166.792C165.664 167.256 166 167.568 166.472 167.568C166.936 167.568 167.272 167.256 167.336 166.792C167.36 166.568 167.368 166.28 167.368 165.976C167.368 165.656 167.36 165.376 167.336 165.16C167.28 164.696 166.944 164.384 166.472 164.384C166 164.384 165.672 164.696 165.608 165.16C165.584 165.376 165.576 165.664 165.576 165.976ZM168.873 168C168.825 168 168.793 167.968 168.793 167.92V164.032C168.793 163.984 168.825 163.952 168.873 163.952H169.281C169.329 163.952 169.361 163.984 169.361 164.032V164.376C169.361 164.408 169.385 164.416 169.401 164.384C169.609 164.056 169.953 163.896 170.385 163.896C171.353 163.896 171.577 164.56 171.577 165.288V167.92C171.577 167.968 171.545 168 171.497 168H171.089C171.041 168 171.009 167.968 171.009 167.92V165.36C171.009 164.832 170.873 164.392 170.209 164.392C169.697 164.392 169.361 164.752 169.361 165.32V167.92C169.361 167.968 169.329 168 169.281 168H168.873ZM173.871 168.064C173.087 168.064 172.559 167.6 172.455 166.896C172.423 166.632 172.407 166.296 172.407 165.968C172.407 165.64 172.423 165.312 172.455 165.056C172.551 164.36 173.087 163.888 173.871 163.888C174.655 163.888 175.191 164.36 175.287 165.056C175.327 165.32 175.335 165.648 175.335 165.968C175.335 166.304 175.327 166.632 175.287 166.896C175.191 167.6 174.655 168.064 173.871 168.064ZM172.975 165.976C172.975 166.296 172.983 166.576 173.007 166.792C173.063 167.256 173.399 167.568 173.871 167.568C174.335 167.568 174.671 167.256 174.735 166.792C174.759 166.568 174.767 166.28 174.767 165.976C174.767 165.656 174.759 165.376 174.735 165.16C174.679 164.696 174.343 164.384 173.871 164.384C173.399 164.384 173.071 164.696 173.007 165.16C172.983 165.376 172.975 165.664 172.975 165.976ZM177.711 163.888C178.375 163.888 178.767 164.224 178.959 165.008C179.039 165.344 179.063 165.656 179.063 165.936C179.063 166.216 179.039 166.6 178.975 166.888C178.815 167.696 178.383 168.056 177.671 168.056C177.223 168.056 176.959 167.912 176.799 167.632C176.783 167.608 176.759 167.616 176.759 167.648V169.472C176.759 169.52 176.727 169.552 176.679 169.552H176.271C176.223 169.552 176.191 169.52 176.191 169.472V164.032C176.191 163.984 176.223 163.952 176.271 163.952H176.679C176.727 163.952 176.759 163.984 176.759 164.032V164.312C176.759 164.344 176.775 164.352 176.791 164.336C176.975 164.048 177.271 163.888 177.711 163.888ZM176.759 165.976C176.759 166.368 176.791 166.728 176.887 167.008C177.007 167.352 177.199 167.568 177.583 167.568C177.967 167.568 178.191 167.36 178.327 167.024C178.439 166.752 178.487 166.392 178.487 165.976C178.487 165.592 178.455 165.24 178.359 164.976C178.231 164.6 178.015 164.376 177.591 164.376C177.199 164.376 176.999 164.6 176.879 164.968C176.791 165.232 176.759 165.584 176.759 165.976ZM181.246 168.064C180.462 168.064 179.934 167.6 179.83 166.896C179.798 166.632 179.782 166.296 179.782 165.968C179.782 165.64 179.798 165.312 179.83 165.056C179.926 164.36 180.462 163.888 181.246 163.888C182.03 163.888 182.566 164.36 182.662 165.056C182.702 165.32 182.71 165.648 182.71 165.968C182.71 166.304 182.702 166.632 182.662 166.896C182.566 167.6 182.03 168.064 181.246 168.064ZM180.35 165.976C180.35 166.296 180.358 166.576 180.382 166.792C180.438 167.256 180.774 167.568 181.246 167.568C181.71 167.568 182.046 167.256 182.11 166.792C182.134 166.568 182.142 166.28 182.142 165.976C182.142 165.656 182.134 165.376 182.11 165.16C182.054 164.696 181.718 164.384 181.246 164.384C180.774 164.384 180.446 164.696 180.382 165.16C180.358 165.376 180.35 165.664 180.35 165.976ZM183.646 168C183.598 168 183.566 167.968 183.566 167.92V162.48C183.566 162.432 183.598 162.4 183.646 162.4H184.054C184.102 162.4 184.134 162.432 184.134 162.48V167.92C184.134 167.968 184.102 168 184.054 168H183.646ZM186.56 168.064C185.776 168.064 185.272 167.608 185.16 166.92C185.104 166.64 185.104 166.328 185.104 165.976C185.104 165.64 185.104 165.336 185.136 165.08C185.224 164.376 185.768 163.888 186.536 163.888C187.376 163.888 187.904 164.416 187.968 165.168C187.992 165.432 187.992 165.776 187.992 166.136C187.992 166.184 187.96 166.216 187.912 166.216H185.704C185.688 166.216 185.672 166.224 185.672 166.248C185.672 166.456 185.68 166.648 185.688 166.8C185.744 167.256 186.08 167.568 186.568 167.568C186.984 167.568 187.288 167.336 187.408 166.992C187.424 166.944 187.456 166.928 187.504 166.936L187.872 167.008C187.92 167.016 187.944 167.048 187.928 167.096C187.752 167.696 187.256 168.064 186.56 168.064ZM185.672 165.712C185.672 165.736 185.688 165.744 185.704 165.744H187.392C187.408 165.744 187.424 165.736 187.424 165.712C187.424 165.512 187.416 165.32 187.4 165.16C187.344 164.704 187.016 164.384 186.544 164.384C186.064 164.384 185.744 164.704 185.688 165.152C185.68 165.32 185.672 165.512 185.672 165.712ZM146.561 176C146.513 176 146.489 175.976 146.473 175.936L145.313 172.04C145.313 172.032 145.305 172.024 145.305 172.016C145.305 171.976 145.337 171.952 145.385 171.952H145.833C145.881 171.952 145.913 171.984 145.921 172.024L146.769 175.144C146.777 175.168 146.801 175.168 146.809 175.144L147.657 172.024C147.665 171.984 147.697 171.952 147.745 171.952L148.201 171.96C148.257 171.96 148.289 171.992 148.273 172.048L147.121 175.936C147.105 175.976 147.081 176 147.033 176H146.561ZM150.33 176.064C149.546 176.064 149.042 175.608 148.93 174.92C148.874 174.64 148.874 174.328 148.874 173.976C148.874 173.64 148.874 173.336 148.906 173.08C148.994 172.376 149.538 171.888 150.306 171.888C151.146 171.888 151.674 172.416 151.738 173.168C151.762 173.432 151.762 173.776 151.762 174.136C151.762 174.184 151.73 174.216 151.682 174.216H149.474C149.458 174.216 149.442 174.224 149.442 174.248C149.442 174.456 149.45 174.648 149.458 174.8C149.514 175.256 149.85 175.568 150.338 175.568C150.754 175.568 151.058 175.336 151.178 174.992C151.194 174.944 151.226 174.928 151.274 174.936L151.642 175.008C151.69 175.016 151.714 175.048 151.698 175.096C151.522 175.696 151.026 176.064 150.33 176.064ZM149.442 173.712C149.442 173.736 149.458 173.744 149.474 173.744H151.162C151.178 173.744 151.194 173.736 151.194 173.712C151.194 173.512 151.186 173.32 151.17 173.16C151.114 172.704 150.786 172.384 150.314 172.384C149.834 172.384 149.514 172.704 149.458 173.152C149.45 173.32 149.442 173.512 149.442 173.712ZM152.697 176C152.649 176 152.617 175.968 152.617 175.92V172.032C152.617 171.984 152.649 171.952 152.697 171.952H153.105C153.153 171.952 153.185 171.984 153.185 172.032V172.552C153.185 172.584 153.209 172.584 153.217 172.56C153.393 172.176 153.689 171.912 154.121 171.912C154.305 171.912 154.425 171.952 154.529 172.008C154.569 172.024 154.577 172.064 154.569 172.104L154.481 172.52C154.473 172.576 154.433 172.584 154.377 172.56C154.297 172.528 154.185 172.504 154.041 172.512C153.537 172.52 153.185 172.968 153.185 173.544V175.92C153.185 175.968 153.153 176 153.105 176H152.697ZM155.197 176C155.149 176 155.117 175.968 155.117 175.92V172.032C155.117 171.984 155.149 171.952 155.197 171.952H155.597C155.645 171.952 155.677 171.984 155.677 172.032V172.336C155.677 172.36 155.693 172.368 155.717 172.344C155.933 172.04 156.293 171.896 156.661 171.896C157.141 171.896 157.493 172.128 157.677 172.512C157.685 172.536 157.701 172.536 157.717 172.512C157.933 172.088 158.349 171.896 158.789 171.896C159.533 171.896 159.941 172.416 159.941 173.232V175.92C159.941 175.968 159.909 176 159.861 176H159.461C159.413 176 159.381 175.968 159.381 175.92V173.312C159.381 172.752 159.093 172.392 158.605 172.392C158.125 172.392 157.805 172.736 157.805 173.296V175.92C157.805 175.968 157.773 176 157.725 176H157.325C157.277 176 157.245 175.968 157.245 175.92V173.312C157.245 172.736 156.933 172.392 156.477 172.392C155.997 172.392 155.677 172.736 155.677 173.296V175.92C155.677 175.968 155.645 176 155.597 176H155.197ZM162.314 176.064C161.53 176.064 161.026 175.608 160.914 174.92C160.858 174.64 160.858 174.328 160.858 173.976C160.858 173.64 160.858 173.336 160.89 173.08C160.978 172.376 161.522 171.888 162.29 171.888C163.13 171.888 163.658 172.416 163.722 173.168C163.746 173.432 163.746 173.776 163.746 174.136C163.746 174.184 163.714 174.216 163.666 174.216H161.458C161.442 174.216 161.426 174.224 161.426 174.248C161.426 174.456 161.434 174.648 161.442 174.8C161.498 175.256 161.834 175.568 162.322 175.568C162.738 175.568 163.042 175.336 163.162 174.992C163.178 174.944 163.21 174.928 163.258 174.936L163.626 175.008C163.674 175.016 163.698 175.048 163.682 175.096C163.506 175.696 163.01 176.064 162.314 176.064ZM161.426 173.712C161.426 173.736 161.442 173.744 161.458 173.744H163.146C163.162 173.744 163.178 173.736 163.178 173.712C163.178 173.512 163.17 173.32 163.154 173.16C163.098 172.704 162.77 172.384 162.298 172.384C161.818 172.384 161.498 172.704 161.442 173.152C161.434 173.32 161.426 173.512 161.426 173.712ZM164.714 176C164.666 176 164.634 175.968 164.634 175.92V172.032C164.634 171.984 164.666 171.952 164.714 171.952H165.122C165.17 171.952 165.202 171.984 165.202 172.032V175.92C165.202 175.968 165.17 176 165.122 176H164.714ZM164.474 170.768C164.474 170.504 164.658 170.32 164.922 170.32C165.178 170.32 165.37 170.504 165.37 170.768C165.37 171.024 165.178 171.216 164.922 171.216C164.658 171.216 164.474 171.024 164.474 170.768ZM167.411 176.064C166.747 176.064 166.355 175.728 166.163 174.944C166.083 174.608 166.059 174.296 166.059 174.016C166.059 173.736 166.083 173.352 166.147 173.064C166.307 172.256 166.739 171.896 167.451 171.896C167.899 171.896 168.163 172.04 168.323 172.32C168.339 172.344 168.363 172.336 168.363 172.304V170.48C168.363 170.432 168.395 170.4 168.443 170.4H168.851C168.899 170.4 168.931 170.432 168.931 170.48V175.92C168.931 175.968 168.899 176 168.851 176H168.443C168.395 176 168.363 175.968 168.363 175.92V175.64C168.363 175.608 168.347 175.6 168.331 175.616C168.147 175.904 167.851 176.064 167.411 176.064ZM166.635 173.976C166.635 174.36 166.667 174.712 166.763 174.976C166.891 175.352 167.107 175.576 167.531 175.576C167.923 175.576 168.123 175.352 168.243 174.984C168.331 174.72 168.363 174.368 168.363 173.976C168.363 173.584 168.331 173.224 168.235 172.944C168.115 172.6 167.923 172.384 167.539 172.384C167.155 172.384 166.931 172.592 166.795 172.928C166.683 173.2 166.635 173.56 166.635 173.976ZM171.33 176.064C170.546 176.064 170.042 175.608 169.93 174.92C169.874 174.64 169.874 174.328 169.874 173.976C169.874 173.64 169.874 173.336 169.906 173.08C169.994 172.376 170.538 171.888 171.306 171.888C172.146 171.888 172.674 172.416 172.738 173.168C172.762 173.432 172.762 173.776 172.762 174.136C172.762 174.184 172.73 174.216 172.682 174.216H170.474C170.458 174.216 170.442 174.224 170.442 174.248C170.442 174.456 170.45 174.648 170.458 174.8C170.514 175.256 170.85 175.568 171.338 175.568C171.754 175.568 172.058 175.336 172.178 174.992C172.194 174.944 172.226 174.928 172.274 174.936L172.642 175.008C172.69 175.016 172.714 175.048 172.698 175.096C172.522 175.696 172.026 176.064 171.33 176.064ZM170.442 173.712C170.442 173.736 170.458 173.744 170.474 173.744H172.162C172.178 173.744 172.194 173.736 172.194 173.712C172.194 173.512 172.186 173.32 172.17 173.16C172.114 172.704 171.786 172.384 171.314 172.384C170.834 172.384 170.514 172.704 170.458 173.152C170.45 173.32 170.442 173.512 170.442 173.712ZM173.697 176C173.649 176 173.617 175.968 173.617 175.92V172.032C173.617 171.984 173.649 171.952 173.697 171.952H174.105C174.153 171.952 174.185 171.984 174.185 172.032V172.376C174.185 172.408 174.209 172.416 174.225 172.384C174.433 172.056 174.777 171.896 175.209 171.896C176.177 171.896 176.401 172.56 176.401 173.288V175.92C176.401 175.968 176.369 176 176.321 176H175.913C175.865 176 175.833 175.968 175.833 175.92V173.36C175.833 172.832 175.697 172.392 175.033 172.392C174.521 172.392 174.185 172.752 174.185 173.32V175.92C174.185 175.968 174.153 176 174.105 176H173.697Z" fill="black" fill-opacity="0.8"/>
<path d="M23.2768 415.064C22.2848 415.064 21.6288 414.512 21.6288 413.56V413.456C21.6288 413.408 21.6608 413.376 21.7088 413.376H22.1088C22.1568 413.376 22.1888 413.408 22.1888 413.456V413.528C22.1888 414.2 22.6368 414.576 23.2768 414.576C23.9248 414.576 24.3168 414.224 24.3168 413.64C24.3168 412.928 23.7888 412.68 23.1328 412.352C22.4128 412.008 21.6768 411.672 21.6768 410.72C21.6768 409.88 22.2848 409.336 23.2128 409.336C24.2288 409.336 24.8208 409.952 24.8208 410.776V410.856C24.8208 410.904 24.7888 410.936 24.7408 410.936H24.3328C24.2848 410.936 24.2528 410.904 24.2528 410.856V410.776C24.2528 410.216 23.8528 409.824 23.2128 409.824C22.6128 409.824 22.2448 410.184 22.2448 410.72C22.2448 411.296 22.7008 411.536 23.3888 411.904C24.2208 412.336 24.8768 412.624 24.8768 413.608C24.8768 414.528 24.2608 415.064 23.2768 415.064ZM26.9508 415.008C26.3188 415.008 25.8868 414.824 25.8868 414.008V411.432C25.8868 411.416 25.8708 411.4 25.8548 411.4H25.4548C25.4068 411.4 25.3748 411.368 25.3748 411.32V411.032C25.3748 410.984 25.4068 410.952 25.4548 410.952H25.8548C25.8708 410.952 25.8868 410.936 25.8868 410.92V410.008C25.8868 409.96 25.9188 409.928 25.9668 409.928H26.3588C26.4068 409.928 26.4388 409.96 26.4388 410.008V410.92C26.4388 410.936 26.4548 410.952 26.4708 410.952H27.2308C27.2788 410.952 27.3108 410.984 27.3108 411.032V411.32C27.3108 411.368 27.2788 411.4 27.2308 411.4H26.4708C26.4548 411.4 26.4388 411.416 26.4388 411.432V413.832C26.4388 414.352 26.6468 414.504 27.0548 414.504H27.1988C27.2468 414.504 27.2788 414.536 27.2788 414.584V414.92C27.2788 414.968 27.2548 415 27.1988 415C27.1188 415 27.0388 415.008 26.9508 415.008ZM29.3688 415.064C28.5848 415.064 28.0808 414.608 27.9688 413.92C27.9128 413.64 27.9128 413.328 27.9128 412.976C27.9128 412.64 27.9128 412.336 27.9448 412.08C28.0328 411.376 28.5768 410.888 29.3448 410.888C30.1848 410.888 30.7128 411.416 30.7768 412.168C30.8008 412.432 30.8008 412.776 30.8008 413.136C30.8008 413.184 30.7688 413.216 30.7208 413.216H28.5128C28.4968 413.216 28.4808 413.224 28.4808 413.248C28.4808 413.456 28.4888 413.648 28.4968 413.8C28.5528 414.256 28.8888 414.568 29.3768 414.568C29.7928 414.568 30.0968 414.336 30.2168 413.992C30.2328 413.944 30.2648 413.928 30.3128 413.936L30.6808 414.008C30.7288 414.016 30.7528 414.048 30.7368 414.096C30.5608 414.696 30.0648 415.064 29.3688 415.064ZM28.4808 412.712C28.4808 412.736 28.4968 412.744 28.5128 412.744H30.2008C30.2168 412.744 30.2328 412.736 30.2328 412.712C30.2328 412.512 30.2248 412.32 30.2088 412.16C30.1528 411.704 29.8248 411.384 29.3528 411.384C28.8728 411.384 28.5528 411.704 28.4968 412.152C28.4888 412.32 28.4808 412.512 28.4808 412.712ZM32.8642 415.056C32.1762 415.056 31.6322 414.648 31.6322 413.808V411.032C31.6322 410.984 31.6642 410.952 31.7122 410.952H32.1202C32.1682 410.952 32.2002 410.984 32.2002 411.032V413.664C32.2002 414.232 32.4882 414.56 32.9922 414.56C33.5122 414.56 33.8322 414.2 33.8322 413.632V411.032C33.8322 410.984 33.8642 410.952 33.9122 410.952H34.3202C34.3682 410.952 34.4002 410.984 34.4002 411.032V414.92C34.4002 414.968 34.3682 415 34.3202 415H33.9122C33.8642 415 33.8322 414.968 33.8322 414.92V414.608C33.8322 414.576 33.8162 414.568 33.8002 414.592C33.6002 414.904 33.2802 415.056 32.8642 415.056ZM36.7985 415.064C36.0145 415.064 35.5105 414.608 35.3985 413.92C35.3425 413.64 35.3425 413.328 35.3425 412.976C35.3425 412.64 35.3425 412.336 35.3745 412.08C35.4625 411.376 36.0065 410.888 36.7745 410.888C37.6145 410.888 38.1425 411.416 38.2065 412.168C38.2305 412.432 38.2305 412.776 38.2305 413.136C38.2305 413.184 38.1985 413.216 38.1505 413.216H35.9425C35.9265 413.216 35.9105 413.224 35.9105 413.248C35.9105 413.456 35.9185 413.648 35.9265 413.8C35.9825 414.256 36.3185 414.568 36.8065 414.568C37.2225 414.568 37.5265 414.336 37.6465 413.992C37.6625 413.944 37.6945 413.928 37.7425 413.936L38.1105 414.008C38.1585 414.016 38.1825 414.048 38.1665 414.096C37.9905 414.696 37.4945 415.064 36.7985 415.064ZM35.9105 412.712C35.9105 412.736 35.9265 412.744 35.9425 412.744H37.6305C37.6465 412.744 37.6625 412.736 37.6625 412.712C37.6625 412.512 37.6545 412.32 37.6385 412.16C37.5825 411.704 37.2545 411.384 36.7825 411.384C36.3025 411.384 35.9825 411.704 35.9265 412.152C35.9185 412.32 35.9105 412.512 35.9105 412.712ZM39.1658 415C39.1178 415 39.0858 414.968 39.0858 414.92V411.032C39.0858 410.984 39.1178 410.952 39.1658 410.952H39.5738C39.6218 410.952 39.6538 410.984 39.6538 411.032V411.552C39.6538 411.584 39.6778 411.584 39.6858 411.56C39.8618 411.176 40.1578 410.912 40.5898 410.912C40.7738 410.912 40.8938 410.952 40.9978 411.008C41.0378 411.024 41.0458 411.064 41.0378 411.104L40.9498 411.52C40.9418 411.576 40.9018 411.584 40.8458 411.56C40.7658 411.528 40.6538 411.504 40.5098 411.512C40.0058 411.52 39.6538 411.968 39.6538 412.544V414.92C39.6538 414.968 39.6218 415 39.5738 415H39.1658ZM42.5935 415.064C42.0255 415.064 41.3775 414.8 41.3775 413.904C41.3775 413.024 42.0015 412.6 42.9135 412.6H43.6575C43.6735 412.6 43.6895 412.584 43.6895 412.568V412.264C43.6895 411.736 43.4255 411.384 42.8895 411.384C42.4735 411.384 42.1695 411.608 42.1135 411.952C42.1055 412.008 42.0735 412.024 42.0255 412.024L41.5855 412C41.5375 412 41.5055 411.96 41.5135 411.912C41.5935 411.296 42.1535 410.888 42.8895 410.888C43.7535 410.888 44.2575 411.432 44.2575 412.232V414.92C44.2575 414.968 44.2255 415 44.1775 415H43.7695C43.7215 415 43.6895 414.968 43.6895 414.92V414.632C43.6895 414.608 43.6735 414.592 43.6575 414.616C43.4255 414.92 43.0335 415.064 42.5935 415.064ZM41.9535 413.872C41.9535 414.36 42.2895 414.568 42.7055 414.568C43.2015 414.568 43.6895 414.288 43.6895 413.736V413.088C43.6895 413.072 43.6735 413.056 43.6575 413.056H42.9535C42.3695 413.056 41.9535 413.336 41.9535 413.872ZM46.4345 415.056C45.7465 415.056 45.2025 414.648 45.2025 413.808V411.032C45.2025 410.984 45.2345 410.952 45.2825 410.952H45.6905C45.7385 410.952 45.7705 410.984 45.7705 411.032V413.664C45.7705 414.232 46.0585 414.56 46.5625 414.56C47.0825 414.56 47.4025 414.2 47.4025 413.632V411.032C47.4025 410.984 47.4345 410.952 47.4825 410.952H47.8905C47.9385 410.952 47.9705 410.984 47.9705 411.032V414.92C47.9705 414.968 47.9385 415 47.8905 415H47.4825C47.4345 415 47.4025 414.968 47.4025 414.92V414.608C47.4025 414.576 47.3865 414.568 47.3705 414.592C47.1705 414.904 46.8505 415.056 46.4345 415.056ZM49.1378 410.696C49.1378 409.768 49.4338 409.376 50.3378 409.376H50.5058C50.5538 409.376 50.5858 409.408 50.5858 409.456V409.784C50.5858 409.832 50.5538 409.864 50.5058 409.864H50.3618C49.8498 409.864 49.7058 410.136 49.7058 410.72V410.92C49.7058 410.936 49.7218 410.952 49.7378 410.952H50.4898C50.5378 410.952 50.5698 410.984 50.5698 411.032V411.344C50.5698 411.392 50.5378 411.424 50.4898 411.424H49.7378C49.7218 411.424 49.7058 411.44 49.7058 411.456V414.92C49.7058 414.968 49.6738 415 49.6258 415H49.2178C49.1698 415 49.1378 414.968 49.1378 414.92V411.456C49.1378 411.44 49.1218 411.424 49.1058 411.424H48.6818C48.6338 411.424 48.6018 411.392 48.6018 411.344V411.032C48.6018 410.984 48.6338 410.952 48.6818 410.952H49.1058C49.1218 410.952 49.1378 410.936 49.1378 410.92V410.696ZM51.1971 415C51.1491 415 51.1171 414.968 51.1171 414.92V409.48C51.1171 409.432 51.1491 409.4 51.1971 409.4H51.6051C51.6531 409.4 51.6851 409.432 51.6851 409.48V412.752C51.6851 412.776 51.7091 412.792 51.7251 412.768L53.1651 411C53.1891 410.968 53.2211 410.952 53.2611 410.952H53.7171C53.7811 410.952 53.8051 410.992 53.7651 411.048L52.8611 412.192C52.8531 412.208 52.8451 412.216 52.8531 412.232L53.9331 414.904C53.9411 414.92 53.9411 414.928 53.9411 414.936C53.9411 414.976 53.9091 415 53.8691 415H53.4371C53.3971 415 53.3651 414.984 53.3491 414.936L52.4851 412.64C52.4771 412.616 52.4531 412.608 52.4371 412.632L51.7011 413.536C51.6931 413.552 51.6851 413.56 51.6851 413.576V414.92C51.6851 414.968 51.6531 415 51.6051 415H51.1971ZM55.8513 415.064C55.0673 415.064 54.5393 414.6 54.4353 413.896C54.4033 413.632 54.3873 413.296 54.3873 412.968C54.3873 412.64 54.4033 412.312 54.4353 412.056C54.5313 411.36 55.0673 410.888 55.8513 410.888C56.6353 410.888 57.1713 411.36 57.2673 412.056C57.3073 412.32 57.3153 412.648 57.3153 412.968C57.3153 413.304 57.3073 413.632 57.2673 413.896C57.1713 414.6 56.6353 415.064 55.8513 415.064ZM54.9553 412.976C54.9553 413.296 54.9633 413.576 54.9873 413.792C55.0433 414.256 55.3793 414.568 55.8513 414.568C56.3153 414.568 56.6513 414.256 56.7153 413.792C56.7393 413.568 56.7473 413.28 56.7473 412.976C56.7473 412.656 56.7393 412.376 56.7153 412.16C56.6593 411.696 56.3233 411.384 55.8513 411.384C55.3793 411.384 55.0513 411.696 54.9873 412.16C54.9633 412.376 54.9553 412.664 54.9553 412.976ZM58.2518 415C58.2038 415 58.1718 414.968 58.1718 414.92V411.032C58.1718 410.984 58.2038 410.952 58.2518 410.952H58.6518C58.6998 410.952 58.7318 410.984 58.7318 411.032V411.336C58.7318 411.36 58.7478 411.368 58.7718 411.344C58.9878 411.04 59.3478 410.896 59.7158 410.896C60.1958 410.896 60.5478 411.128 60.7318 411.512C60.7398 411.536 60.7558 411.536 60.7718 411.512C60.9878 411.088 61.4038 410.896 61.8438 410.896C62.5878 410.896 62.9958 411.416 62.9958 412.232V414.92C62.9958 414.968 62.9638 415 62.9158 415H62.5158C62.4678 415 62.4358 414.968 62.4358 414.92V412.312C62.4358 411.752 62.1478 411.392 61.6598 411.392C61.1798 411.392 60.8598 411.736 60.8598 412.296V414.92C60.8598 414.968 60.8278 415 60.7798 415H60.3798C60.3318 415 60.2998 414.968 60.2998 414.92V412.312C60.2998 411.736 59.9878 411.392 59.5318 411.392C59.0518 411.392 58.7318 411.736 58.7318 412.296V414.92C58.7318 414.968 58.6998 415 58.6518 415H58.2518ZM64.0408 415C63.9928 415 63.9608 414.968 63.9608 414.92V411.032C63.9608 410.984 63.9928 410.952 64.0408 410.952H64.4408C64.4888 410.952 64.5208 410.984 64.5208 411.032V411.336C64.5208 411.36 64.5368 411.368 64.5608 411.344C64.7768 411.04 65.1368 410.896 65.5048 410.896C65.9848 410.896 66.3368 411.128 66.5208 411.512C66.5288 411.536 66.5448 411.536 66.5608 411.512C66.7768 411.088 67.1928 410.896 67.6328 410.896C68.3768 410.896 68.7848 411.416 68.7848 412.232V414.92C68.7848 414.968 68.7528 415 68.7048 415H68.3048C68.2568 415 68.2248 414.968 68.2248 414.92V412.312C68.2248 411.752 67.9368 411.392 67.4488 411.392C66.9688 411.392 66.6488 411.736 66.6488 412.296V414.92C66.6488 414.968 66.6168 415 66.5688 415H66.1688C66.1208 415 66.0888 414.968 66.0888 414.92V412.312C66.0888 411.736 65.7768 411.392 65.3208 411.392C64.8408 411.392 64.5208 411.736 64.5208 412.296V414.92C64.5208 414.968 64.4888 415 64.4408 415H64.0408ZM71.1579 415.064C70.3739 415.064 69.8699 414.608 69.7579 413.92C69.7019 413.64 69.7019 413.328 69.7019 412.976C69.7019 412.64 69.7019 412.336 69.7339 412.08C69.8219 411.376 70.3659 410.888 71.1339 410.888C71.9739 410.888 72.5019 411.416 72.5659 412.168C72.5899 412.432 72.5899 412.776 72.5899 413.136C72.5899 413.184 72.5579 413.216 72.5099 413.216H70.3019C70.2859 413.216 70.2699 413.224 70.2699 413.248C70.2699 413.456 70.2779 413.648 70.2859 413.8C70.3419 414.256 70.6779 414.568 71.1659 414.568C71.5819 414.568 71.8859 414.336 72.0059 413.992C72.0219 413.944 72.0539 413.928 72.1019 413.936L72.4699 414.008C72.5179 414.016 72.5419 414.048 72.5259 414.096C72.3499 414.696 71.8539 415.064 71.1579 415.064ZM70.2699 412.712C70.2699 412.736 70.2859 412.744 70.3019 412.744H71.9899C72.0059 412.744 72.0219 412.736 72.0219 412.712C72.0219 412.512 72.0139 412.32 71.9979 412.16C71.9419 411.704 71.6139 411.384 71.1419 411.384C70.6619 411.384 70.3419 411.704 70.2859 412.152C70.2779 412.32 70.2699 412.512 70.2699 412.712ZM73.5252 415C73.4772 415 73.4452 414.968 73.4452 414.92V411.032C73.4452 410.984 73.4772 410.952 73.5252 410.952H73.9332C73.9812 410.952 74.0132 410.984 74.0132 411.032V411.376C74.0132 411.408 74.0372 411.416 74.0532 411.384C74.2612 411.056 74.6052 410.896 75.0372 410.896C76.0052 410.896 76.2292 411.56 76.2292 412.288V414.92C76.2292 414.968 76.1972 415 76.1492 415H75.7412C75.6932 415 75.6612 414.968 75.6612 414.92V412.36C75.6612 411.832 75.5252 411.392 74.8612 411.392C74.3492 411.392 74.0132 411.752 74.0132 412.32V414.92C74.0132 414.968 73.9812 415 73.9332 415H73.5252Z" fill="black"/>
<path d="M49.2798 396.575C49.6704 396.965 50.3035 396.965 50.694 396.575L57.058 390.211C57.4485 389.82 57.4485 389.187 57.058 388.797C56.6675 388.406 56.0343 388.406 55.6438 388.797L49.9869 394.453L44.3301 388.797C43.9396 388.406 43.3064 388.406 42.9159 388.797C42.5253 389.187 42.5253 389.82 42.9159 390.211L49.2798 396.575ZM48.9869 212V395.868H50.9869V212H48.9869Z" fill="black"/>
<rect opacity="0.5" width="210" height="98" fill="#B394F4"/>
</svg>
